%
M48
M72
T01C0.0120
T02C0.0400
T03C0.1300
%
T01
X4350Y4100
X5350Y6350
X6350Y7850
X6350Y8350
X6850Y8600
X7850Y7850
X7850Y6850
X7850Y6350
X6850Y4350
X9850Y6850
X10050Y8600
X10350Y9350
X9185Y9965
X6850Y9850
X6515Y9815
X5450Y8250
X4200Y7850
X4350Y14300
X5350Y16550
X6350Y18050
X6350Y18550
X6850Y18800
X6850Y20050
X6515Y20015
X5450Y18450
X4200Y18050
X7850Y18050
X7850Y17050
X7850Y16550
X6850Y14550
X9850Y17050
X10050Y18800
X10350Y19550
X9185Y20165
X6850Y24750
X7850Y26750
X7850Y27250
X7850Y28250
X6850Y29000
X6350Y28750
X6350Y28250
X5450Y28650
X4200Y28250
X5350Y26750
X4350Y24500
X9850Y27250
X10050Y29000
X10350Y29750
X9185Y30365
X6850Y30250
X6515Y30215
X14400Y28250
X15650Y28650
X16550Y28750
X16550Y28250
X17050Y29000
X17050Y30250
X16715Y30215
X18050Y28250
X18050Y27250
X18050Y26750
X20050Y27250
X20250Y29000
X20550Y29750
X19385Y30365
X15550Y26750
X17050Y24750
X14550Y24500
X16715Y20015
X17050Y20050
X17050Y18800
X16550Y18550
X16550Y18050
X15650Y18450
X14400Y18050
X15550Y16550
X17050Y14550
X18050Y16550
X18050Y17050
X18050Y18050
X20050Y17050
X20250Y18800
X20550Y19550
X19385Y20165
X24600Y18050
X25850Y18450
X26750Y18550
X26750Y18050
X27250Y18800
X27250Y20050
X26915Y20015
X28250Y18050
X28250Y17050
X28250Y16550
X30250Y17050
X30450Y18800
X30750Y19550
X29585Y20165
X25750Y16550
X27250Y14550
X24750Y14300
X26915Y9815
X27250Y9850
X27250Y8600
X26750Y8350
X26750Y7850
X25850Y8250
X24600Y7850
X25750Y6350
X27250Y4350
X28250Y6350
X28250Y6850
X28250Y7850
X30250Y6850
X30450Y8600
X30750Y9350
X29585Y9965
X24750Y4100
X20250Y8600
X20550Y9350
X19385Y9965
X17050Y9850
X16715Y9815
X17050Y8600
X16550Y8350
X16550Y7850
X15650Y8250
X14400Y7850
X15550Y6350
X17050Y4350
X18050Y6350
X18050Y6850
X18050Y7850
X20050Y6850
X14550Y4100
X14550Y14300
X24750Y24500
X25750Y26750
X26750Y28250
X26750Y28750
X27250Y29000
X27250Y30250
X26915Y30215
X25850Y28650
X24600Y28250
X28250Y28250
X28250Y27250
X28250Y26750
X30250Y27250
X30450Y29000
X30750Y29750
X29585Y30365
X27250Y24750
T02
X26750Y23750
X27750Y23750
X28750Y23750
X29750Y23750
X30750Y23750
X25750Y23750
X20550Y23750
X19550Y23750
X18550Y23750
X17550Y23750
X16550Y23750
X15550Y23750
X10350Y23750
X9350Y23750
X8350Y23750
X7350Y23750
X6350Y23750
X5350Y23750
X5350Y13550
X6350Y13550
X7350Y13550
X8350Y13550
X9350Y13550
X10350Y13550
X15550Y13550
X16550Y13550
X17550Y13550
X18550Y13550
X19550Y13550
X20550Y13550
X25750Y13550
X26750Y13550
X27750Y13550
X28750Y13550
X29750Y13550
X30750Y13550
X30750Y3350
X29750Y3350
X28750Y3350
X27750Y3350
X26750Y3350
X25750Y3350
X20550Y3350
X19550Y3350
X18550Y3350
X17550Y3350
X16550Y3350
X15550Y3350
X10350Y3350
X9350Y3350
X8350Y3350
X7350Y3350
X6350Y3350
X5350Y3350
T03
X3850Y11850
X11850Y11850
X14050Y11850
X22050Y11850
X24250Y11850
X32250Y11850
X32250Y22050
X24250Y22050
X22050Y22050
X14050Y22050
X11850Y22050
X3850Y22050
X3850Y32250
X11850Y32250
X14050Y32250
X22050Y32250
X24250Y32250
X32250Y32250
M30
