G75*
%MOIN*%
%OFA0B0*%
%FSLAX25Y25*%
%IPPOS*%
%LPD*%
%AMOC8*
5,1,8,0,0,1.08239X$1,22.5*
%
%ADD10R,0.04331X0.03937*%
%ADD11R,0.07874X0.04724*%
%ADD12R,0.05315X0.02362*%
%ADD13R,0.03937X0.04331*%
%ADD14R,0.01969X0.02362*%
%ADD15R,0.02362X0.01969*%
%ADD16C,0.01181*%
D10*
X0037654Y0047000D03*
X0044346Y0047000D03*
X0065154Y0063500D03*
X0071846Y0063500D03*
X0085154Y0063500D03*
X0091846Y0063500D03*
X0091846Y0093500D03*
X0085154Y0093500D03*
X0071846Y0093500D03*
X0065154Y0093500D03*
X0044346Y0149000D03*
X0037654Y0149000D03*
X0065154Y0165500D03*
X0071846Y0165500D03*
X0085154Y0165500D03*
X0091846Y0165500D03*
X0091846Y0195500D03*
X0085154Y0195500D03*
X0071846Y0195500D03*
X0065154Y0195500D03*
X0044346Y0251000D03*
X0037654Y0251000D03*
X0065154Y0267500D03*
X0071846Y0267500D03*
X0085154Y0267500D03*
X0091846Y0267500D03*
X0091846Y0297500D03*
X0085154Y0297500D03*
X0071846Y0297500D03*
X0065154Y0297500D03*
X0139654Y0251000D03*
X0146346Y0251000D03*
X0167154Y0267500D03*
X0173846Y0267500D03*
X0187154Y0267500D03*
X0193846Y0267500D03*
X0193846Y0297500D03*
X0187154Y0297500D03*
X0173846Y0297500D03*
X0167154Y0297500D03*
X0241654Y0251000D03*
X0248346Y0251000D03*
X0269154Y0267500D03*
X0275846Y0267500D03*
X0289154Y0267500D03*
X0295846Y0267500D03*
X0295846Y0297500D03*
X0289154Y0297500D03*
X0275846Y0297500D03*
X0269154Y0297500D03*
X0269154Y0195500D03*
X0275846Y0195500D03*
X0289154Y0195500D03*
X0295846Y0195500D03*
X0295846Y0165500D03*
X0289154Y0165500D03*
X0275846Y0165500D03*
X0269154Y0165500D03*
X0248346Y0149000D03*
X0241654Y0149000D03*
X0193846Y0165500D03*
X0187154Y0165500D03*
X0173846Y0165500D03*
X0167154Y0165500D03*
X0146346Y0149000D03*
X0139654Y0149000D03*
X0167154Y0195500D03*
X0173846Y0195500D03*
X0187154Y0195500D03*
X0193846Y0195500D03*
X0193846Y0093500D03*
X0187154Y0093500D03*
X0173846Y0093500D03*
X0167154Y0093500D03*
X0167154Y0063500D03*
X0173846Y0063500D03*
X0187154Y0063500D03*
X0193846Y0063500D03*
X0146346Y0047000D03*
X0139654Y0047000D03*
X0241654Y0047000D03*
X0248346Y0047000D03*
X0269154Y0063500D03*
X0275846Y0063500D03*
X0289154Y0063500D03*
X0295846Y0063500D03*
X0295846Y0093500D03*
X0289154Y0093500D03*
X0275846Y0093500D03*
X0269154Y0093500D03*
D11*
X0238031Y0089524D03*
X0224969Y0089524D03*
X0224969Y0067476D03*
X0238031Y0067476D03*
X0326969Y0067476D03*
X0326969Y0089524D03*
X0326969Y0169476D03*
X0326969Y0191524D03*
X0326969Y0271476D03*
X0326969Y0293524D03*
X0238031Y0293524D03*
X0224969Y0293524D03*
X0224969Y0271476D03*
X0238031Y0271476D03*
X0238031Y0191524D03*
X0224969Y0191524D03*
X0224969Y0169476D03*
X0238031Y0169476D03*
X0136031Y0169476D03*
X0122969Y0169476D03*
X0122969Y0191524D03*
X0136031Y0191524D03*
X0136031Y0271476D03*
X0122969Y0271476D03*
X0122969Y0293524D03*
X0136031Y0293524D03*
X0034031Y0293524D03*
X0034031Y0271476D03*
X0034031Y0191524D03*
X0034031Y0169476D03*
X0034031Y0089524D03*
X0034031Y0067476D03*
X0122969Y0067476D03*
X0136031Y0067476D03*
X0136031Y0089524D03*
X0122969Y0089524D03*
D12*
X0108500Y0084406D03*
X0108500Y0080469D03*
X0108500Y0076531D03*
X0108500Y0072594D03*
X0150500Y0072594D03*
X0150500Y0076531D03*
X0150500Y0080469D03*
X0150500Y0084406D03*
X0210500Y0084406D03*
X0210500Y0080469D03*
X0210500Y0076531D03*
X0210500Y0072594D03*
X0252500Y0072594D03*
X0252500Y0076531D03*
X0252500Y0080469D03*
X0252500Y0084406D03*
X0312500Y0084406D03*
X0312500Y0080469D03*
X0312500Y0076531D03*
X0312500Y0072594D03*
X0312500Y0174594D03*
X0312500Y0178531D03*
X0312500Y0182469D03*
X0312500Y0186406D03*
X0252500Y0186406D03*
X0252500Y0182469D03*
X0252500Y0178531D03*
X0252500Y0174594D03*
X0210500Y0174594D03*
X0210500Y0178531D03*
X0210500Y0182469D03*
X0210500Y0186406D03*
X0150500Y0186406D03*
X0150500Y0182469D03*
X0150500Y0178531D03*
X0150500Y0174594D03*
X0108500Y0174594D03*
X0108500Y0178531D03*
X0108500Y0182469D03*
X0108500Y0186406D03*
X0048500Y0186406D03*
X0048500Y0182469D03*
X0048500Y0178531D03*
X0048500Y0174594D03*
X0048500Y0084406D03*
X0048500Y0080469D03*
X0048500Y0076531D03*
X0048500Y0072594D03*
X0048500Y0276594D03*
X0048500Y0280531D03*
X0048500Y0284469D03*
X0048500Y0288406D03*
X0108500Y0288406D03*
X0108500Y0284469D03*
X0108500Y0280531D03*
X0108500Y0276594D03*
X0150500Y0276594D03*
X0150500Y0280531D03*
X0150500Y0284469D03*
X0150500Y0288406D03*
X0210500Y0288406D03*
X0210500Y0284469D03*
X0210500Y0280531D03*
X0210500Y0276594D03*
X0252500Y0276594D03*
X0252500Y0280531D03*
X0252500Y0284469D03*
X0252500Y0288406D03*
X0312500Y0288406D03*
X0312500Y0284469D03*
X0312500Y0280531D03*
X0312500Y0276594D03*
D13*
X0302500Y0279154D03*
X0302500Y0285846D03*
X0262500Y0285846D03*
X0262500Y0279154D03*
X0200500Y0279154D03*
X0200500Y0285846D03*
X0160500Y0285846D03*
X0160500Y0279154D03*
X0098500Y0279154D03*
X0098500Y0285846D03*
X0058500Y0285846D03*
X0058500Y0279154D03*
X0058500Y0183846D03*
X0058500Y0177154D03*
X0098500Y0177154D03*
X0098500Y0183846D03*
X0160500Y0183846D03*
X0160500Y0177154D03*
X0200500Y0177154D03*
X0200500Y0183846D03*
X0262500Y0183846D03*
X0262500Y0177154D03*
X0302500Y0177154D03*
X0302500Y0183846D03*
X0302500Y0081846D03*
X0302500Y0075154D03*
X0262500Y0075154D03*
X0262500Y0081846D03*
X0200500Y0081846D03*
X0200500Y0075154D03*
X0160500Y0075154D03*
X0160500Y0081846D03*
X0098500Y0081846D03*
X0098500Y0075154D03*
X0058500Y0075154D03*
X0058500Y0081846D03*
D14*
X0072201Y0081846D03*
X0075350Y0081846D03*
X0078500Y0081846D03*
X0081650Y0081846D03*
X0084799Y0081846D03*
X0084799Y0075154D03*
X0081650Y0075154D03*
X0078500Y0075154D03*
X0075350Y0075154D03*
X0072201Y0075154D03*
X0174201Y0075154D03*
X0177350Y0075154D03*
X0180500Y0075154D03*
X0183650Y0075154D03*
X0186799Y0075154D03*
X0186799Y0081846D03*
X0183650Y0081846D03*
X0180500Y0081846D03*
X0177350Y0081846D03*
X0174201Y0081846D03*
X0174201Y0177154D03*
X0177350Y0177154D03*
X0180500Y0177154D03*
X0183650Y0177154D03*
X0186799Y0177154D03*
X0186799Y0183846D03*
X0183650Y0183846D03*
X0180500Y0183846D03*
X0177350Y0183846D03*
X0174201Y0183846D03*
X0084799Y0183846D03*
X0081650Y0183846D03*
X0078500Y0183846D03*
X0075350Y0183846D03*
X0072201Y0183846D03*
X0072201Y0177154D03*
X0075350Y0177154D03*
X0078500Y0177154D03*
X0081650Y0177154D03*
X0084799Y0177154D03*
X0084799Y0279154D03*
X0081650Y0279154D03*
X0078500Y0279154D03*
X0075350Y0279154D03*
X0072201Y0279154D03*
X0072201Y0285846D03*
X0075350Y0285846D03*
X0078500Y0285846D03*
X0081650Y0285846D03*
X0084799Y0285846D03*
X0174201Y0285846D03*
X0177350Y0285846D03*
X0180500Y0285846D03*
X0183650Y0285846D03*
X0186799Y0285846D03*
X0186799Y0279154D03*
X0183650Y0279154D03*
X0180500Y0279154D03*
X0177350Y0279154D03*
X0174201Y0279154D03*
X0276201Y0279154D03*
X0279350Y0279154D03*
X0282500Y0279154D03*
X0285650Y0279154D03*
X0288799Y0279154D03*
X0288799Y0285846D03*
X0285650Y0285846D03*
X0282500Y0285846D03*
X0279350Y0285846D03*
X0276201Y0285846D03*
X0276201Y0183846D03*
X0279350Y0183846D03*
X0282500Y0183846D03*
X0285650Y0183846D03*
X0288799Y0183846D03*
X0288799Y0177154D03*
X0285650Y0177154D03*
X0282500Y0177154D03*
X0279350Y0177154D03*
X0276201Y0177154D03*
X0276201Y0081846D03*
X0279350Y0081846D03*
X0282500Y0081846D03*
X0285650Y0081846D03*
X0288799Y0081846D03*
X0288799Y0075154D03*
X0285650Y0075154D03*
X0282500Y0075154D03*
X0279350Y0075154D03*
X0276201Y0075154D03*
D15*
X0276004Y0078500D03*
X0288996Y0078500D03*
X0186996Y0078500D03*
X0174004Y0078500D03*
X0084996Y0078500D03*
X0072004Y0078500D03*
X0072004Y0180500D03*
X0084996Y0180500D03*
X0174004Y0180500D03*
X0186996Y0180500D03*
X0276004Y0180500D03*
X0288996Y0180500D03*
X0288996Y0282500D03*
X0276004Y0282500D03*
X0186996Y0282500D03*
X0174004Y0282500D03*
X0084996Y0282500D03*
X0072004Y0282500D03*
D16*
X0043075Y0257878D02*
X0043075Y0255122D01*
X0043075Y0257878D02*
X0045831Y0257878D01*
X0045831Y0255122D01*
X0043075Y0255122D01*
X0043075Y0256302D02*
X0045831Y0256302D01*
X0045831Y0257482D02*
X0043075Y0257482D01*
X0036169Y0257878D02*
X0036169Y0255122D01*
X0036169Y0257878D02*
X0038925Y0257878D01*
X0038925Y0255122D01*
X0036169Y0255122D01*
X0036169Y0256302D02*
X0038925Y0256302D01*
X0038925Y0257482D02*
X0036169Y0257482D01*
X0138169Y0257878D02*
X0138169Y0255122D01*
X0138169Y0257878D02*
X0140925Y0257878D01*
X0140925Y0255122D01*
X0138169Y0255122D01*
X0138169Y0256302D02*
X0140925Y0256302D01*
X0140925Y0257482D02*
X0138169Y0257482D01*
X0145075Y0257878D02*
X0145075Y0255122D01*
X0145075Y0257878D02*
X0147831Y0257878D01*
X0147831Y0255122D01*
X0145075Y0255122D01*
X0145075Y0256302D02*
X0147831Y0256302D01*
X0147831Y0257482D02*
X0145075Y0257482D01*
X0240169Y0257878D02*
X0240169Y0255122D01*
X0240169Y0257878D02*
X0242925Y0257878D01*
X0242925Y0255122D01*
X0240169Y0255122D01*
X0240169Y0256302D02*
X0242925Y0256302D01*
X0242925Y0257482D02*
X0240169Y0257482D01*
X0247075Y0257878D02*
X0247075Y0255122D01*
X0247075Y0257878D02*
X0249831Y0257878D01*
X0249831Y0255122D01*
X0247075Y0255122D01*
X0247075Y0256302D02*
X0249831Y0256302D01*
X0249831Y0257482D02*
X0247075Y0257482D01*
X0247075Y0155878D02*
X0247075Y0153122D01*
X0247075Y0155878D02*
X0249831Y0155878D01*
X0249831Y0153122D01*
X0247075Y0153122D01*
X0247075Y0154302D02*
X0249831Y0154302D01*
X0249831Y0155482D02*
X0247075Y0155482D01*
X0240169Y0155878D02*
X0240169Y0153122D01*
X0240169Y0155878D02*
X0242925Y0155878D01*
X0242925Y0153122D01*
X0240169Y0153122D01*
X0240169Y0154302D02*
X0242925Y0154302D01*
X0242925Y0155482D02*
X0240169Y0155482D01*
X0145075Y0155878D02*
X0145075Y0153122D01*
X0145075Y0155878D02*
X0147831Y0155878D01*
X0147831Y0153122D01*
X0145075Y0153122D01*
X0145075Y0154302D02*
X0147831Y0154302D01*
X0147831Y0155482D02*
X0145075Y0155482D01*
X0138169Y0155878D02*
X0138169Y0153122D01*
X0138169Y0155878D02*
X0140925Y0155878D01*
X0140925Y0153122D01*
X0138169Y0153122D01*
X0138169Y0154302D02*
X0140925Y0154302D01*
X0140925Y0155482D02*
X0138169Y0155482D01*
X0043075Y0155878D02*
X0043075Y0153122D01*
X0043075Y0155878D02*
X0045831Y0155878D01*
X0045831Y0153122D01*
X0043075Y0153122D01*
X0043075Y0154302D02*
X0045831Y0154302D01*
X0045831Y0155482D02*
X0043075Y0155482D01*
X0036169Y0155878D02*
X0036169Y0153122D01*
X0036169Y0155878D02*
X0038925Y0155878D01*
X0038925Y0153122D01*
X0036169Y0153122D01*
X0036169Y0154302D02*
X0038925Y0154302D01*
X0038925Y0155482D02*
X0036169Y0155482D01*
X0036169Y0053878D02*
X0036169Y0051122D01*
X0036169Y0053878D02*
X0038925Y0053878D01*
X0038925Y0051122D01*
X0036169Y0051122D01*
X0036169Y0052302D02*
X0038925Y0052302D01*
X0038925Y0053482D02*
X0036169Y0053482D01*
X0043075Y0053878D02*
X0043075Y0051122D01*
X0043075Y0053878D02*
X0045831Y0053878D01*
X0045831Y0051122D01*
X0043075Y0051122D01*
X0043075Y0052302D02*
X0045831Y0052302D01*
X0045831Y0053482D02*
X0043075Y0053482D01*
X0138169Y0053878D02*
X0138169Y0051122D01*
X0138169Y0053878D02*
X0140925Y0053878D01*
X0140925Y0051122D01*
X0138169Y0051122D01*
X0138169Y0052302D02*
X0140925Y0052302D01*
X0140925Y0053482D02*
X0138169Y0053482D01*
X0145075Y0053878D02*
X0145075Y0051122D01*
X0145075Y0053878D02*
X0147831Y0053878D01*
X0147831Y0051122D01*
X0145075Y0051122D01*
X0145075Y0052302D02*
X0147831Y0052302D01*
X0147831Y0053482D02*
X0145075Y0053482D01*
X0240169Y0053878D02*
X0240169Y0051122D01*
X0240169Y0053878D02*
X0242925Y0053878D01*
X0242925Y0051122D01*
X0240169Y0051122D01*
X0240169Y0052302D02*
X0242925Y0052302D01*
X0242925Y0053482D02*
X0240169Y0053482D01*
X0247075Y0053878D02*
X0247075Y0051122D01*
X0247075Y0053878D02*
X0249831Y0053878D01*
X0249831Y0051122D01*
X0247075Y0051122D01*
X0247075Y0052302D02*
X0249831Y0052302D01*
X0249831Y0053482D02*
X0247075Y0053482D01*
M02*
