G75*
%MOIN*%
%OFA0B0*%
%FSLAX25Y25*%
%IPPOS*%
%LPD*%
%AMOC8*
5,1,8,0,0,1.08239X$1,22.5*
%
%ADD10C,0.00800*%
%ADD11R,0.02500X0.05000*%
%ADD12C,0.01000*%
%ADD13C,0.07400*%
%ADD14C,0.02500*%
%ADD15C,0.02600*%
%ADD16C,0.00600*%
D10*
X0032496Y0031400D02*
X0035298Y0031400D01*
X0032496Y0034202D01*
X0032496Y0034903D01*
X0033196Y0035604D01*
X0034597Y0035604D01*
X0035298Y0034903D01*
X0037100Y0034903D02*
X0037100Y0032101D01*
X0037800Y0031400D01*
X0039201Y0031400D01*
X0039902Y0032101D01*
X0037100Y0034903D01*
X0037800Y0035604D01*
X0039201Y0035604D01*
X0039902Y0034903D01*
X0039902Y0032101D01*
X0041704Y0031400D02*
X0044506Y0035604D01*
X0041704Y0035604D02*
X0044506Y0031400D01*
X0134496Y0031400D02*
X0137298Y0031400D01*
X0134496Y0034202D01*
X0134496Y0034903D01*
X0135196Y0035604D01*
X0136597Y0035604D01*
X0137298Y0034903D01*
X0139100Y0034903D02*
X0141902Y0032101D01*
X0141201Y0031400D01*
X0139800Y0031400D01*
X0139100Y0032101D01*
X0139100Y0034903D01*
X0139800Y0035604D01*
X0141201Y0035604D01*
X0141902Y0034903D01*
X0141902Y0032101D01*
X0143704Y0031400D02*
X0146506Y0035604D01*
X0143704Y0035604D02*
X0146506Y0031400D01*
X0236496Y0031400D02*
X0239298Y0031400D01*
X0236496Y0034202D01*
X0236496Y0034903D01*
X0237196Y0035604D01*
X0238597Y0035604D01*
X0239298Y0034903D01*
X0241100Y0034903D02*
X0243902Y0032101D01*
X0243201Y0031400D01*
X0241800Y0031400D01*
X0241100Y0032101D01*
X0241100Y0034903D01*
X0241800Y0035604D01*
X0243201Y0035604D01*
X0243902Y0034903D01*
X0243902Y0032101D01*
X0245704Y0031400D02*
X0248506Y0035604D01*
X0245704Y0035604D02*
X0248506Y0031400D01*
X0248506Y0133400D02*
X0245704Y0137604D01*
X0243902Y0136903D02*
X0243201Y0137604D01*
X0241800Y0137604D01*
X0241100Y0136903D01*
X0243902Y0134101D01*
X0243201Y0133400D01*
X0241800Y0133400D01*
X0241100Y0134101D01*
X0241100Y0136903D01*
X0239298Y0136903D02*
X0238597Y0137604D01*
X0237196Y0137604D01*
X0236496Y0136903D01*
X0236496Y0136202D01*
X0239298Y0133400D01*
X0236496Y0133400D01*
X0243902Y0134101D02*
X0243902Y0136903D01*
X0245704Y0133400D02*
X0248506Y0137604D01*
X0248506Y0235400D02*
X0245704Y0239604D01*
X0243902Y0238903D02*
X0243902Y0236101D01*
X0241100Y0238903D01*
X0241100Y0236101D01*
X0241800Y0235400D01*
X0243201Y0235400D01*
X0243902Y0236101D01*
X0245704Y0235400D02*
X0248506Y0239604D01*
X0243902Y0238903D02*
X0243201Y0239604D01*
X0241800Y0239604D01*
X0241100Y0238903D01*
X0239298Y0238903D02*
X0238597Y0239604D01*
X0237196Y0239604D01*
X0236496Y0238903D01*
X0236496Y0238202D01*
X0239298Y0235400D01*
X0236496Y0235400D01*
X0146506Y0235400D02*
X0143704Y0239604D01*
X0141902Y0238903D02*
X0141201Y0239604D01*
X0139800Y0239604D01*
X0139100Y0238903D01*
X0141902Y0236101D01*
X0141201Y0235400D01*
X0139800Y0235400D01*
X0139100Y0236101D01*
X0139100Y0238903D01*
X0137298Y0238903D02*
X0136597Y0239604D01*
X0135196Y0239604D01*
X0134496Y0238903D01*
X0134496Y0238202D01*
X0137298Y0235400D01*
X0134496Y0235400D01*
X0141902Y0236101D02*
X0141902Y0238903D01*
X0143704Y0235400D02*
X0146506Y0239604D01*
X0044506Y0239604D02*
X0041704Y0235400D01*
X0039902Y0236101D02*
X0037100Y0238903D01*
X0037100Y0236101D01*
X0037800Y0235400D01*
X0039201Y0235400D01*
X0039902Y0236101D01*
X0039902Y0238903D01*
X0039201Y0239604D01*
X0037800Y0239604D01*
X0037100Y0238903D01*
X0035298Y0238903D02*
X0034597Y0239604D01*
X0033196Y0239604D01*
X0032496Y0238903D01*
X0032496Y0238202D01*
X0035298Y0235400D01*
X0032496Y0235400D01*
X0041704Y0239604D02*
X0044506Y0235400D01*
X0044506Y0137604D02*
X0041704Y0133400D01*
X0039902Y0134101D02*
X0037100Y0136903D01*
X0037100Y0134101D01*
X0037800Y0133400D01*
X0039201Y0133400D01*
X0039902Y0134101D01*
X0039902Y0136903D01*
X0039201Y0137604D01*
X0037800Y0137604D01*
X0037100Y0136903D01*
X0035298Y0136903D02*
X0034597Y0137604D01*
X0033196Y0137604D01*
X0032496Y0136903D01*
X0032496Y0136202D01*
X0035298Y0133400D01*
X0032496Y0133400D01*
X0041704Y0137604D02*
X0044506Y0133400D01*
X0134496Y0133400D02*
X0137298Y0133400D01*
X0134496Y0136202D01*
X0134496Y0136903D01*
X0135196Y0137604D01*
X0136597Y0137604D01*
X0137298Y0136903D01*
X0139100Y0136903D02*
X0141902Y0134101D01*
X0141201Y0133400D01*
X0139800Y0133400D01*
X0139100Y0134101D01*
X0139100Y0136903D01*
X0139800Y0137604D01*
X0141201Y0137604D01*
X0141902Y0136903D01*
X0141902Y0134101D01*
X0143704Y0133400D02*
X0146506Y0137604D01*
X0143704Y0137604D02*
X0146506Y0133400D01*
D11*
X0147500Y0155500D03*
X0143500Y0155500D03*
X0176500Y0195500D03*
X0180500Y0195500D03*
X0184500Y0195500D03*
X0147500Y0257500D03*
X0143500Y0257500D03*
X0176500Y0297500D03*
X0180500Y0297500D03*
X0184500Y0297500D03*
X0245500Y0257500D03*
X0249500Y0257500D03*
X0278500Y0297500D03*
X0282500Y0297500D03*
X0286500Y0297500D03*
X0286500Y0195500D03*
X0282500Y0195500D03*
X0278500Y0195500D03*
X0249500Y0155500D03*
X0245500Y0155500D03*
X0278500Y0093500D03*
X0282500Y0093500D03*
X0286500Y0093500D03*
X0249500Y0053500D03*
X0245500Y0053500D03*
X0184500Y0093500D03*
X0180500Y0093500D03*
X0176500Y0093500D03*
X0147500Y0053500D03*
X0143500Y0053500D03*
X0082500Y0093500D03*
X0078500Y0093500D03*
X0074500Y0093500D03*
X0045500Y0053500D03*
X0041500Y0053500D03*
X0041500Y0155500D03*
X0045500Y0155500D03*
X0074500Y0195500D03*
X0078500Y0195500D03*
X0082500Y0195500D03*
X0045500Y0257500D03*
X0041500Y0257500D03*
X0074500Y0297500D03*
X0078500Y0297500D03*
X0082500Y0297500D03*
D12*
X0078500Y0297500D01*
X0074500Y0297500D01*
X0071550Y0297100D02*
X0070500Y0297100D01*
X0070500Y0298098D02*
X0071550Y0298098D01*
X0071550Y0299097D02*
X0070500Y0299097D01*
X0070500Y0300095D02*
X0071550Y0300095D01*
X0071550Y0300704D02*
X0071550Y0294296D01*
X0072546Y0293300D01*
X0076454Y0293300D01*
X0076500Y0293346D01*
X0076546Y0293300D01*
X0080454Y0293300D01*
X0080500Y0293346D01*
X0080546Y0293300D01*
X0084454Y0293300D01*
X0085450Y0294296D01*
X0085450Y0295500D01*
X0086521Y0295500D01*
X0091675Y0300654D01*
X0092443Y0300654D01*
X0093546Y0301110D01*
X0094390Y0301954D01*
X0094846Y0303057D01*
X0094846Y0304250D01*
X0094390Y0305353D01*
X0093546Y0306197D01*
X0092443Y0306654D01*
X0091250Y0306654D01*
X0090147Y0306197D01*
X0089303Y0305353D01*
X0088846Y0304250D01*
X0088846Y0303482D01*
X0085450Y0300085D01*
X0085450Y0300704D01*
X0084454Y0301700D01*
X0080546Y0301700D01*
X0080500Y0301654D01*
X0080500Y0301654D01*
X0080500Y0306328D01*
X0079000Y0307828D01*
X0077828Y0309000D01*
X0041172Y0309000D01*
X0037672Y0305500D01*
X0036500Y0304328D01*
X0036500Y0271672D01*
X0037672Y0270500D01*
X0039500Y0268672D01*
X0039500Y0261654D01*
X0038550Y0260704D01*
X0038550Y0254296D01*
X0039500Y0253346D01*
X0039500Y0245172D01*
X0040664Y0244008D01*
X0040957Y0243301D01*
X0041801Y0242457D01*
X0042903Y0242000D01*
X0044097Y0242000D01*
X0045199Y0242457D01*
X0046043Y0243301D01*
X0046500Y0244403D01*
X0046500Y0245597D01*
X0046043Y0246699D01*
X0045199Y0247543D01*
X0044097Y0248000D01*
X0043500Y0248000D01*
X0043500Y0253346D01*
X0043546Y0253300D01*
X0047454Y0253300D01*
X0048450Y0254296D01*
X0048450Y0255500D01*
X0053328Y0255500D01*
X0059000Y0261172D01*
X0059000Y0284828D01*
X0057500Y0286328D01*
X0057500Y0287097D01*
X0057126Y0288000D01*
X0066257Y0288000D01*
X0066801Y0287457D01*
X0067903Y0287000D01*
X0069097Y0287000D01*
X0070199Y0287457D01*
X0070743Y0288000D01*
X0098257Y0288000D01*
X0098801Y0287457D01*
X0099903Y0287000D01*
X0101097Y0287000D01*
X0102199Y0287457D01*
X0103043Y0288301D01*
X0103500Y0289403D01*
X0103500Y0290597D01*
X0103043Y0291699D01*
X0102199Y0292543D01*
X0101097Y0293000D01*
X0099903Y0293000D01*
X0098801Y0292543D01*
X0098257Y0292000D01*
X0070743Y0292000D01*
X0070500Y0292243D01*
X0070500Y0300257D01*
X0071043Y0300801D01*
X0071500Y0301903D01*
X0071500Y0303000D01*
X0072500Y0303000D01*
X0072500Y0301654D01*
X0071550Y0300704D01*
X0071165Y0301094D02*
X0071939Y0301094D01*
X0071500Y0302092D02*
X0072500Y0302092D01*
X0071550Y0296101D02*
X0070500Y0296101D01*
X0070500Y0295103D02*
X0071550Y0295103D01*
X0071742Y0294104D02*
X0070500Y0294104D01*
X0070500Y0293105D02*
X0126400Y0293105D01*
X0126400Y0292107D02*
X0102636Y0292107D01*
X0103288Y0291108D02*
X0126400Y0291108D01*
X0126400Y0290110D02*
X0103500Y0290110D01*
X0103379Y0289111D02*
X0126400Y0289111D01*
X0126400Y0288113D02*
X0102856Y0288113D01*
X0101373Y0287114D02*
X0126400Y0287114D01*
X0126400Y0286116D02*
X0057712Y0286116D01*
X0057493Y0287114D02*
X0067627Y0287114D01*
X0069373Y0287114D02*
X0099627Y0287114D01*
X0098364Y0292107D02*
X0070636Y0292107D01*
X0065199Y0285043D02*
X0064097Y0285500D01*
X0062903Y0285500D01*
X0061801Y0285043D01*
X0060957Y0284199D01*
X0060500Y0283097D01*
X0060500Y0281903D01*
X0060957Y0280801D01*
X0061500Y0280257D01*
X0061500Y0266672D01*
X0062672Y0265500D01*
X0067672Y0260500D01*
X0087672Y0260500D01*
X0091500Y0256672D01*
X0091500Y0242516D01*
X0090441Y0242078D01*
X0088922Y0240559D01*
X0088500Y0239540D01*
X0088078Y0240559D01*
X0086559Y0242078D01*
X0084574Y0242900D01*
X0082426Y0242900D01*
X0080441Y0242078D01*
X0078922Y0240559D01*
X0078500Y0239540D01*
X0078078Y0240559D01*
X0076559Y0242078D01*
X0074574Y0242900D01*
X0072426Y0242900D01*
X0070441Y0242078D01*
X0068922Y0240559D01*
X0068500Y0239540D01*
X0068078Y0240559D01*
X0066559Y0242078D01*
X0064574Y0242900D01*
X0062426Y0242900D01*
X0060441Y0242078D01*
X0058922Y0240559D01*
X0058391Y0239276D01*
X0058319Y0239496D01*
X0057947Y0240225D01*
X0057466Y0240888D01*
X0056888Y0241466D01*
X0056225Y0241947D01*
X0055496Y0242319D01*
X0054718Y0242572D01*
X0054000Y0242686D01*
X0054000Y0238000D01*
X0053000Y0238000D01*
X0053000Y0242686D01*
X0052282Y0242572D01*
X0051504Y0242319D01*
X0050775Y0241947D01*
X0050112Y0241466D01*
X0049534Y0240888D01*
X0049053Y0240225D01*
X0048681Y0239496D01*
X0048428Y0238718D01*
X0048314Y0238000D01*
X0053000Y0238000D01*
X0053000Y0237000D01*
X0048314Y0237000D01*
X0048428Y0236282D01*
X0048681Y0235504D01*
X0049053Y0234775D01*
X0049179Y0234600D01*
X0046487Y0234600D01*
X0046736Y0235841D01*
X0045629Y0237502D01*
X0046736Y0239162D01*
X0046395Y0240868D01*
X0044947Y0241833D01*
X0043241Y0241492D01*
X0043105Y0241288D01*
X0042968Y0241492D01*
X0041262Y0241833D01*
X0040470Y0241305D01*
X0040071Y0241704D01*
X0038670Y0241704D01*
X0038332Y0241704D01*
X0038332Y0241704D01*
X0036930Y0241704D01*
X0036930Y0241704D01*
X0036916Y0241690D01*
X0036199Y0240972D01*
X0035481Y0241690D01*
X0035467Y0241704D01*
X0034066Y0241704D01*
X0033728Y0241704D01*
X0033728Y0241704D01*
X0032326Y0241704D01*
X0031836Y0241213D01*
X0031096Y0240473D01*
X0030600Y0239977D01*
X0030600Y0317383D01*
X0031188Y0316365D01*
X0031188Y0316365D01*
X0033727Y0314234D01*
X0033727Y0314234D01*
X0036843Y0313100D01*
X0040157Y0313100D01*
X0043272Y0314234D01*
X0043273Y0314234D01*
X0045812Y0316365D01*
X0047469Y0319235D01*
X0047469Y0319235D01*
X0048045Y0322500D01*
X0047469Y0325765D01*
X0045812Y0328635D01*
X0045812Y0328635D01*
X0043709Y0330400D01*
X0113291Y0330400D01*
X0111188Y0328635D01*
X0109531Y0325765D01*
X0108955Y0322500D01*
X0108955Y0322500D01*
X0109531Y0319235D01*
X0111188Y0316365D01*
X0111188Y0316365D01*
X0113727Y0314234D01*
X0113727Y0314234D01*
X0116843Y0313100D01*
X0120157Y0313100D01*
X0123272Y0314234D01*
X0123273Y0314234D01*
X0125812Y0316365D01*
X0126400Y0317383D01*
X0126400Y0238613D01*
X0125587Y0238950D01*
X0124413Y0238950D01*
X0123329Y0238501D01*
X0122499Y0237671D01*
X0122050Y0236587D01*
X0122050Y0235413D01*
X0122387Y0234600D01*
X0108144Y0234600D01*
X0108900Y0236426D01*
X0108900Y0238574D01*
X0108078Y0240559D01*
X0106559Y0242078D01*
X0105500Y0242516D01*
X0105500Y0263328D01*
X0104328Y0264500D01*
X0099328Y0269500D01*
X0080743Y0269500D01*
X0080199Y0270043D01*
X0079097Y0270500D01*
X0077903Y0270500D01*
X0076801Y0270043D01*
X0075957Y0269199D01*
X0075500Y0268097D01*
X0075500Y0266903D01*
X0075957Y0265801D01*
X0076801Y0264957D01*
X0077903Y0264500D01*
X0079097Y0264500D01*
X0080199Y0264957D01*
X0080743Y0265500D01*
X0097672Y0265500D01*
X0101500Y0261672D01*
X0101500Y0242516D01*
X0100441Y0242078D01*
X0098922Y0240559D01*
X0098500Y0239540D01*
X0098078Y0240559D01*
X0096559Y0242078D01*
X0095500Y0242516D01*
X0095500Y0258328D01*
X0090500Y0263328D01*
X0089328Y0264500D01*
X0069328Y0264500D01*
X0065500Y0268328D01*
X0065500Y0280257D01*
X0066043Y0280801D01*
X0066500Y0281903D01*
X0066500Y0283097D01*
X0066043Y0284199D01*
X0065199Y0285043D01*
X0065020Y0285117D02*
X0126400Y0285117D01*
X0126400Y0284119D02*
X0066077Y0284119D01*
X0066490Y0283120D02*
X0126400Y0283120D01*
X0126400Y0282122D02*
X0066500Y0282122D01*
X0066177Y0281123D02*
X0126400Y0281123D01*
X0126400Y0280125D02*
X0065500Y0280125D01*
X0065500Y0279126D02*
X0126400Y0279126D01*
X0126400Y0278128D02*
X0065500Y0278128D01*
X0065500Y0277129D02*
X0126400Y0277129D01*
X0126400Y0276131D02*
X0065500Y0276131D01*
X0065500Y0275132D02*
X0126400Y0275132D01*
X0126400Y0274134D02*
X0065500Y0274134D01*
X0065500Y0273135D02*
X0126400Y0273135D01*
X0126400Y0272137D02*
X0065500Y0272137D01*
X0065500Y0271138D02*
X0126400Y0271138D01*
X0126400Y0270140D02*
X0079966Y0270140D01*
X0077034Y0270140D02*
X0065500Y0270140D01*
X0065500Y0269141D02*
X0075933Y0269141D01*
X0075519Y0268143D02*
X0065686Y0268143D01*
X0066684Y0267144D02*
X0075500Y0267144D01*
X0075814Y0266146D02*
X0067683Y0266146D01*
X0068681Y0265147D02*
X0076610Y0265147D01*
X0080390Y0265147D02*
X0098024Y0265147D01*
X0099023Y0264149D02*
X0089680Y0264149D01*
X0090678Y0263150D02*
X0100021Y0263150D01*
X0101020Y0262152D02*
X0091677Y0262152D01*
X0092675Y0261153D02*
X0101500Y0261153D01*
X0101500Y0260155D02*
X0093674Y0260155D01*
X0094672Y0259156D02*
X0101500Y0259156D01*
X0101500Y0258158D02*
X0095500Y0258158D01*
X0095500Y0257159D02*
X0101500Y0257159D01*
X0101500Y0256161D02*
X0095500Y0256161D01*
X0095500Y0255162D02*
X0101500Y0255162D01*
X0101500Y0254164D02*
X0095500Y0254164D01*
X0095500Y0253165D02*
X0101500Y0253165D01*
X0101500Y0252167D02*
X0095500Y0252167D01*
X0095500Y0251168D02*
X0101500Y0251168D01*
X0101500Y0250170D02*
X0095500Y0250170D01*
X0095500Y0249171D02*
X0101500Y0249171D01*
X0101500Y0248172D02*
X0095500Y0248172D01*
X0095500Y0247174D02*
X0101500Y0247174D01*
X0101500Y0246175D02*
X0095500Y0246175D01*
X0095500Y0245177D02*
X0101500Y0245177D01*
X0101500Y0244178D02*
X0095500Y0244178D01*
X0095500Y0243180D02*
X0101500Y0243180D01*
X0100691Y0242181D02*
X0096309Y0242181D01*
X0097454Y0241183D02*
X0099546Y0241183D01*
X0098767Y0240184D02*
X0098233Y0240184D01*
X0091500Y0243180D02*
X0045923Y0243180D01*
X0046407Y0244178D02*
X0091500Y0244178D01*
X0091500Y0245177D02*
X0046500Y0245177D01*
X0046260Y0246175D02*
X0091500Y0246175D01*
X0091500Y0247174D02*
X0045569Y0247174D01*
X0043500Y0248172D02*
X0091500Y0248172D01*
X0091500Y0249171D02*
X0043500Y0249171D01*
X0043500Y0250170D02*
X0091500Y0250170D01*
X0091500Y0251168D02*
X0043500Y0251168D01*
X0043500Y0252167D02*
X0091500Y0252167D01*
X0091500Y0253165D02*
X0043500Y0253165D01*
X0043500Y0253346D02*
X0043500Y0253346D01*
X0045000Y0257500D02*
X0042000Y0257500D01*
X0038550Y0257159D02*
X0030600Y0257159D01*
X0030600Y0256161D02*
X0038550Y0256161D01*
X0038550Y0255162D02*
X0030600Y0255162D01*
X0030600Y0254164D02*
X0038682Y0254164D01*
X0039500Y0253165D02*
X0030600Y0253165D01*
X0030600Y0252167D02*
X0039500Y0252167D01*
X0039500Y0251168D02*
X0030600Y0251168D01*
X0030600Y0250170D02*
X0039500Y0250170D01*
X0039500Y0249171D02*
X0030600Y0249171D01*
X0030600Y0248172D02*
X0039500Y0248172D01*
X0039500Y0247174D02*
X0030600Y0247174D01*
X0030600Y0246175D02*
X0039500Y0246175D01*
X0039500Y0245177D02*
X0030600Y0245177D01*
X0030600Y0244178D02*
X0040493Y0244178D01*
X0041077Y0243180D02*
X0030600Y0243180D01*
X0030600Y0242181D02*
X0042465Y0242181D01*
X0044535Y0242181D02*
X0051234Y0242181D01*
X0049829Y0241183D02*
X0045923Y0241183D01*
X0046531Y0240184D02*
X0049032Y0240184D01*
X0048580Y0239186D02*
X0046731Y0239186D01*
X0046086Y0238187D02*
X0048344Y0238187D01*
X0048458Y0236190D02*
X0046503Y0236190D01*
X0046606Y0235192D02*
X0048840Y0235192D01*
X0045837Y0237189D02*
X0053000Y0237189D01*
X0053000Y0238187D02*
X0054000Y0238187D01*
X0054000Y0239186D02*
X0053000Y0239186D01*
X0053000Y0240184D02*
X0054000Y0240184D01*
X0054000Y0241183D02*
X0053000Y0241183D01*
X0053000Y0242181D02*
X0054000Y0242181D01*
X0055766Y0242181D02*
X0060691Y0242181D01*
X0059546Y0241183D02*
X0057171Y0241183D01*
X0057968Y0240184D02*
X0058767Y0240184D01*
X0066309Y0242181D02*
X0070691Y0242181D01*
X0069546Y0241183D02*
X0067454Y0241183D01*
X0068233Y0240184D02*
X0068767Y0240184D01*
X0076309Y0242181D02*
X0080691Y0242181D01*
X0079546Y0241183D02*
X0077454Y0241183D01*
X0078233Y0240184D02*
X0078767Y0240184D01*
X0086309Y0242181D02*
X0090691Y0242181D01*
X0089546Y0241183D02*
X0087454Y0241183D01*
X0088233Y0240184D02*
X0088767Y0240184D01*
X0091500Y0254164D02*
X0048318Y0254164D01*
X0048450Y0255162D02*
X0091500Y0255162D01*
X0091500Y0256161D02*
X0053989Y0256161D01*
X0054988Y0257159D02*
X0091012Y0257159D01*
X0090014Y0258158D02*
X0055986Y0258158D01*
X0056985Y0259156D02*
X0089015Y0259156D01*
X0088017Y0260155D02*
X0057983Y0260155D01*
X0058982Y0261153D02*
X0067018Y0261153D01*
X0066020Y0262152D02*
X0059000Y0262152D01*
X0059000Y0263150D02*
X0065021Y0263150D01*
X0064023Y0264149D02*
X0059000Y0264149D01*
X0059000Y0265147D02*
X0063024Y0265147D01*
X0062026Y0266146D02*
X0059000Y0266146D01*
X0059000Y0267144D02*
X0061500Y0267144D01*
X0061500Y0268143D02*
X0059000Y0268143D01*
X0059000Y0269141D02*
X0061500Y0269141D01*
X0061500Y0270140D02*
X0059000Y0270140D01*
X0059000Y0271138D02*
X0061500Y0271138D01*
X0061500Y0272137D02*
X0059000Y0272137D01*
X0059000Y0273135D02*
X0061500Y0273135D01*
X0061500Y0274134D02*
X0059000Y0274134D01*
X0059000Y0275132D02*
X0061500Y0275132D01*
X0061500Y0276131D02*
X0059000Y0276131D01*
X0059000Y0277129D02*
X0061500Y0277129D01*
X0061500Y0278128D02*
X0059000Y0278128D01*
X0059000Y0279126D02*
X0061500Y0279126D01*
X0061500Y0280125D02*
X0059000Y0280125D01*
X0059000Y0281123D02*
X0060823Y0281123D01*
X0060500Y0282122D02*
X0059000Y0282122D01*
X0059000Y0283120D02*
X0060510Y0283120D01*
X0060923Y0284119D02*
X0059000Y0284119D01*
X0058711Y0285117D02*
X0061980Y0285117D01*
X0080500Y0302092D02*
X0087457Y0302092D01*
X0088455Y0303091D02*
X0080500Y0303091D01*
X0080500Y0304089D02*
X0088846Y0304089D01*
X0089193Y0305088D02*
X0080500Y0305088D01*
X0080500Y0306086D02*
X0090036Y0306086D01*
X0093656Y0306086D02*
X0126400Y0306086D01*
X0126400Y0305088D02*
X0094500Y0305088D01*
X0094846Y0304089D02*
X0126400Y0304089D01*
X0126400Y0303091D02*
X0094846Y0303091D01*
X0094447Y0302092D02*
X0126400Y0302092D01*
X0126400Y0301094D02*
X0093506Y0301094D01*
X0091116Y0300095D02*
X0126400Y0300095D01*
X0126400Y0299097D02*
X0090118Y0299097D01*
X0089119Y0298098D02*
X0126400Y0298098D01*
X0126400Y0297100D02*
X0088121Y0297100D01*
X0087122Y0296101D02*
X0126400Y0296101D01*
X0126400Y0295103D02*
X0085450Y0295103D01*
X0085258Y0294104D02*
X0126400Y0294104D01*
X0132600Y0294104D02*
X0138500Y0294104D01*
X0138500Y0293105D02*
X0132600Y0293105D01*
X0132600Y0292107D02*
X0138500Y0292107D01*
X0138500Y0291108D02*
X0132600Y0291108D01*
X0132600Y0290110D02*
X0138500Y0290110D01*
X0138500Y0289111D02*
X0132600Y0289111D01*
X0132600Y0288113D02*
X0138500Y0288113D01*
X0138500Y0287114D02*
X0132600Y0287114D01*
X0132600Y0286116D02*
X0138500Y0286116D01*
X0138500Y0285117D02*
X0132600Y0285117D01*
X0132600Y0284119D02*
X0138500Y0284119D01*
X0138500Y0283120D02*
X0132600Y0283120D01*
X0132600Y0282122D02*
X0138500Y0282122D01*
X0138500Y0281123D02*
X0132600Y0281123D01*
X0132600Y0280125D02*
X0138500Y0280125D01*
X0138500Y0279126D02*
X0132600Y0279126D01*
X0132600Y0278128D02*
X0138500Y0278128D01*
X0138500Y0277129D02*
X0132600Y0277129D01*
X0132600Y0276131D02*
X0138500Y0276131D01*
X0138500Y0275132D02*
X0132600Y0275132D01*
X0132600Y0274134D02*
X0138500Y0274134D01*
X0138500Y0273135D02*
X0132600Y0273135D01*
X0132600Y0272137D02*
X0138500Y0272137D01*
X0138500Y0271672D02*
X0139672Y0270500D01*
X0141500Y0268672D01*
X0141500Y0261654D01*
X0140550Y0260704D01*
X0140550Y0254296D01*
X0141500Y0253346D01*
X0141500Y0245172D01*
X0142664Y0244008D01*
X0142957Y0243301D01*
X0143801Y0242457D01*
X0144903Y0242000D01*
X0146097Y0242000D01*
X0147199Y0242457D01*
X0148043Y0243301D01*
X0148500Y0244403D01*
X0148500Y0245597D01*
X0148043Y0246699D01*
X0147199Y0247543D01*
X0146097Y0248000D01*
X0145500Y0248000D01*
X0145500Y0253346D01*
X0145546Y0253300D01*
X0149454Y0253300D01*
X0150450Y0254296D01*
X0150450Y0255500D01*
X0155328Y0255500D01*
X0161000Y0261172D01*
X0161000Y0284828D01*
X0159500Y0286328D01*
X0159500Y0287097D01*
X0159126Y0288000D01*
X0168257Y0288000D01*
X0168801Y0287457D01*
X0169903Y0287000D01*
X0171097Y0287000D01*
X0172199Y0287457D01*
X0172743Y0288000D01*
X0200257Y0288000D01*
X0200801Y0287457D01*
X0201903Y0287000D01*
X0203097Y0287000D01*
X0204199Y0287457D01*
X0205043Y0288301D01*
X0205500Y0289403D01*
X0205500Y0290597D01*
X0205043Y0291699D01*
X0204199Y0292543D01*
X0203097Y0293000D01*
X0201903Y0293000D01*
X0200801Y0292543D01*
X0200257Y0292000D01*
X0172743Y0292000D01*
X0172500Y0292243D01*
X0172500Y0300257D01*
X0173043Y0300801D01*
X0173500Y0301903D01*
X0173500Y0303000D01*
X0174500Y0303000D01*
X0174500Y0301654D01*
X0173550Y0300704D01*
X0173550Y0294296D01*
X0174546Y0293300D01*
X0178454Y0293300D01*
X0178500Y0293346D01*
X0178546Y0293300D01*
X0182454Y0293300D01*
X0182500Y0293346D01*
X0182546Y0293300D01*
X0186454Y0293300D01*
X0187450Y0294296D01*
X0187450Y0295500D01*
X0188521Y0295500D01*
X0193675Y0300654D01*
X0194443Y0300654D01*
X0195546Y0301110D01*
X0196390Y0301954D01*
X0196846Y0303057D01*
X0196846Y0304250D01*
X0196390Y0305353D01*
X0195546Y0306197D01*
X0194443Y0306654D01*
X0193250Y0306654D01*
X0192147Y0306197D01*
X0191303Y0305353D01*
X0190846Y0304250D01*
X0190846Y0303482D01*
X0187450Y0300085D01*
X0187450Y0300704D01*
X0186454Y0301700D01*
X0182546Y0301700D01*
X0182500Y0301654D01*
X0182500Y0301654D01*
X0182500Y0306328D01*
X0181000Y0307828D01*
X0179828Y0309000D01*
X0143172Y0309000D01*
X0139672Y0305500D01*
X0138500Y0304328D01*
X0138500Y0271672D01*
X0139033Y0271138D02*
X0132600Y0271138D01*
X0132600Y0270140D02*
X0140032Y0270140D01*
X0141030Y0269141D02*
X0132600Y0269141D01*
X0132600Y0268143D02*
X0141500Y0268143D01*
X0141500Y0267144D02*
X0132600Y0267144D01*
X0132600Y0266146D02*
X0141500Y0266146D01*
X0141500Y0265147D02*
X0132600Y0265147D01*
X0132600Y0264149D02*
X0141500Y0264149D01*
X0141500Y0263150D02*
X0132600Y0263150D01*
X0132600Y0262152D02*
X0141500Y0262152D01*
X0140999Y0261153D02*
X0132600Y0261153D01*
X0132600Y0260155D02*
X0140550Y0260155D01*
X0140550Y0259156D02*
X0132600Y0259156D01*
X0132600Y0258158D02*
X0140550Y0258158D01*
X0140550Y0257159D02*
X0132600Y0257159D01*
X0132600Y0256161D02*
X0140550Y0256161D01*
X0140550Y0255162D02*
X0132600Y0255162D01*
X0132600Y0254164D02*
X0140682Y0254164D01*
X0141500Y0253165D02*
X0132600Y0253165D01*
X0132600Y0252167D02*
X0141500Y0252167D01*
X0141500Y0251168D02*
X0132600Y0251168D01*
X0132600Y0250170D02*
X0141500Y0250170D01*
X0141500Y0249171D02*
X0132600Y0249171D01*
X0132600Y0248172D02*
X0141500Y0248172D01*
X0141500Y0247174D02*
X0132600Y0247174D01*
X0132600Y0246175D02*
X0141500Y0246175D01*
X0141500Y0245177D02*
X0132600Y0245177D01*
X0132600Y0244178D02*
X0142493Y0244178D01*
X0143077Y0243180D02*
X0132600Y0243180D01*
X0132600Y0242181D02*
X0144465Y0242181D01*
X0144968Y0241492D02*
X0143262Y0241833D01*
X0142470Y0241305D01*
X0142071Y0241704D01*
X0140670Y0241704D01*
X0140492Y0241704D01*
X0140332Y0241704D01*
X0140332Y0241704D01*
X0138930Y0241704D01*
X0138930Y0241704D01*
X0138916Y0241690D01*
X0138199Y0240972D01*
X0137481Y0241690D01*
X0137467Y0241704D01*
X0136066Y0241704D01*
X0135728Y0241704D01*
X0135728Y0241704D01*
X0134326Y0241704D01*
X0133096Y0240473D01*
X0132600Y0239977D01*
X0132600Y0317383D01*
X0133188Y0316365D01*
X0133188Y0316365D01*
X0135727Y0314234D01*
X0135727Y0314234D01*
X0138843Y0313100D01*
X0142157Y0313100D01*
X0145272Y0314234D01*
X0145273Y0314234D01*
X0147812Y0316365D01*
X0149469Y0319235D01*
X0149469Y0319235D01*
X0150045Y0322500D01*
X0149469Y0325765D01*
X0147812Y0328635D01*
X0147812Y0328635D01*
X0145709Y0330400D01*
X0215291Y0330400D01*
X0213188Y0328635D01*
X0211531Y0325765D01*
X0210955Y0322500D01*
X0210955Y0322500D01*
X0211531Y0319235D01*
X0213188Y0316365D01*
X0213188Y0316365D01*
X0215727Y0314234D01*
X0215727Y0314234D01*
X0218843Y0313100D01*
X0222157Y0313100D01*
X0225272Y0314234D01*
X0225273Y0314234D01*
X0227812Y0316365D01*
X0228400Y0317383D01*
X0228400Y0238613D01*
X0227587Y0238950D01*
X0226413Y0238950D01*
X0225329Y0238501D01*
X0224499Y0237671D01*
X0224050Y0236587D01*
X0224050Y0235413D01*
X0224387Y0234600D01*
X0210144Y0234600D01*
X0210900Y0236426D01*
X0210900Y0238574D01*
X0210078Y0240559D01*
X0208559Y0242078D01*
X0207500Y0242516D01*
X0207500Y0263328D01*
X0206328Y0264500D01*
X0201328Y0269500D01*
X0182743Y0269500D01*
X0182199Y0270043D01*
X0181097Y0270500D01*
X0179903Y0270500D01*
X0178801Y0270043D01*
X0177957Y0269199D01*
X0177500Y0268097D01*
X0177500Y0266903D01*
X0177957Y0265801D01*
X0178801Y0264957D01*
X0179903Y0264500D01*
X0181097Y0264500D01*
X0182199Y0264957D01*
X0182743Y0265500D01*
X0199672Y0265500D01*
X0203500Y0261672D01*
X0203500Y0242516D01*
X0202441Y0242078D01*
X0200922Y0240559D01*
X0200500Y0239540D01*
X0200078Y0240559D01*
X0198559Y0242078D01*
X0197500Y0242516D01*
X0197500Y0258328D01*
X0192500Y0263328D01*
X0191328Y0264500D01*
X0171328Y0264500D01*
X0167500Y0268328D01*
X0167500Y0280257D01*
X0168043Y0280801D01*
X0168500Y0281903D01*
X0168500Y0283097D01*
X0168043Y0284199D01*
X0167199Y0285043D01*
X0166097Y0285500D01*
X0164903Y0285500D01*
X0163801Y0285043D01*
X0162957Y0284199D01*
X0162500Y0283097D01*
X0162500Y0281903D01*
X0162957Y0280801D01*
X0163500Y0280257D01*
X0163500Y0266672D01*
X0164672Y0265500D01*
X0169672Y0260500D01*
X0189672Y0260500D01*
X0193500Y0256672D01*
X0193500Y0242516D01*
X0192441Y0242078D01*
X0190922Y0240559D01*
X0190500Y0239540D01*
X0190078Y0240559D01*
X0188559Y0242078D01*
X0186574Y0242900D01*
X0184426Y0242900D01*
X0182441Y0242078D01*
X0180922Y0240559D01*
X0180500Y0239540D01*
X0180078Y0240559D01*
X0178559Y0242078D01*
X0176574Y0242900D01*
X0174426Y0242900D01*
X0172441Y0242078D01*
X0170922Y0240559D01*
X0170500Y0239540D01*
X0170078Y0240559D01*
X0168559Y0242078D01*
X0166574Y0242900D01*
X0164426Y0242900D01*
X0162441Y0242078D01*
X0160922Y0240559D01*
X0160391Y0239276D01*
X0160319Y0239496D01*
X0159947Y0240225D01*
X0159466Y0240888D01*
X0158888Y0241466D01*
X0158225Y0241947D01*
X0157496Y0242319D01*
X0156718Y0242572D01*
X0156000Y0242686D01*
X0156000Y0238000D01*
X0155000Y0238000D01*
X0155000Y0242686D01*
X0154282Y0242572D01*
X0153504Y0242319D01*
X0152775Y0241947D01*
X0152112Y0241466D01*
X0151534Y0240888D01*
X0151053Y0240225D01*
X0150681Y0239496D01*
X0150428Y0238718D01*
X0150314Y0238000D01*
X0155000Y0238000D01*
X0155000Y0237000D01*
X0150314Y0237000D01*
X0150428Y0236282D01*
X0150681Y0235504D01*
X0151053Y0234775D01*
X0151179Y0234600D01*
X0148487Y0234600D01*
X0148736Y0235841D01*
X0147629Y0237502D01*
X0148736Y0239162D01*
X0148395Y0240868D01*
X0146947Y0241833D01*
X0145241Y0241492D01*
X0145105Y0241288D01*
X0144968Y0241492D01*
X0146535Y0242181D02*
X0153234Y0242181D01*
X0151829Y0241183D02*
X0147923Y0241183D01*
X0148531Y0240184D02*
X0151032Y0240184D01*
X0150580Y0239186D02*
X0148731Y0239186D01*
X0148086Y0238187D02*
X0150344Y0238187D01*
X0150458Y0236190D02*
X0148503Y0236190D01*
X0148606Y0235192D02*
X0150840Y0235192D01*
X0147837Y0237189D02*
X0155000Y0237189D01*
X0155000Y0238187D02*
X0156000Y0238187D01*
X0156000Y0239186D02*
X0155000Y0239186D01*
X0155000Y0240184D02*
X0156000Y0240184D01*
X0156000Y0241183D02*
X0155000Y0241183D01*
X0155000Y0242181D02*
X0156000Y0242181D01*
X0157766Y0242181D02*
X0162691Y0242181D01*
X0161546Y0241183D02*
X0159171Y0241183D01*
X0159968Y0240184D02*
X0160767Y0240184D01*
X0168309Y0242181D02*
X0172691Y0242181D01*
X0171546Y0241183D02*
X0169454Y0241183D01*
X0170233Y0240184D02*
X0170767Y0240184D01*
X0178309Y0242181D02*
X0182691Y0242181D01*
X0181546Y0241183D02*
X0179454Y0241183D01*
X0180233Y0240184D02*
X0180767Y0240184D01*
X0188309Y0242181D02*
X0192691Y0242181D01*
X0193500Y0243180D02*
X0147923Y0243180D01*
X0148407Y0244178D02*
X0193500Y0244178D01*
X0193500Y0245177D02*
X0148500Y0245177D01*
X0148260Y0246175D02*
X0193500Y0246175D01*
X0193500Y0247174D02*
X0147569Y0247174D01*
X0145500Y0248172D02*
X0193500Y0248172D01*
X0193500Y0249171D02*
X0145500Y0249171D01*
X0145500Y0250170D02*
X0193500Y0250170D01*
X0193500Y0251168D02*
X0145500Y0251168D01*
X0145500Y0252167D02*
X0193500Y0252167D01*
X0193500Y0253165D02*
X0145500Y0253165D01*
X0145500Y0253346D02*
X0145500Y0253346D01*
X0147000Y0257500D02*
X0144000Y0257500D01*
X0150450Y0255162D02*
X0193500Y0255162D01*
X0193500Y0254164D02*
X0150318Y0254164D01*
X0155989Y0256161D02*
X0193500Y0256161D01*
X0193012Y0257159D02*
X0156988Y0257159D01*
X0157986Y0258158D02*
X0192014Y0258158D01*
X0191015Y0259156D02*
X0158985Y0259156D01*
X0159983Y0260155D02*
X0190017Y0260155D01*
X0192678Y0263150D02*
X0202021Y0263150D01*
X0201023Y0264149D02*
X0191680Y0264149D01*
X0193677Y0262152D02*
X0203020Y0262152D01*
X0203500Y0261153D02*
X0194675Y0261153D01*
X0195674Y0260155D02*
X0203500Y0260155D01*
X0203500Y0259156D02*
X0196672Y0259156D01*
X0197500Y0258158D02*
X0203500Y0258158D01*
X0203500Y0257159D02*
X0197500Y0257159D01*
X0197500Y0256161D02*
X0203500Y0256161D01*
X0203500Y0255162D02*
X0197500Y0255162D01*
X0197500Y0254164D02*
X0203500Y0254164D01*
X0203500Y0253165D02*
X0197500Y0253165D01*
X0197500Y0252167D02*
X0203500Y0252167D01*
X0203500Y0251168D02*
X0197500Y0251168D01*
X0197500Y0250170D02*
X0203500Y0250170D01*
X0203500Y0249171D02*
X0197500Y0249171D01*
X0197500Y0248172D02*
X0203500Y0248172D01*
X0203500Y0247174D02*
X0197500Y0247174D01*
X0197500Y0246175D02*
X0203500Y0246175D01*
X0203500Y0245177D02*
X0197500Y0245177D01*
X0197500Y0244178D02*
X0203500Y0244178D01*
X0203500Y0243180D02*
X0197500Y0243180D01*
X0198309Y0242181D02*
X0202691Y0242181D01*
X0201546Y0241183D02*
X0199454Y0241183D01*
X0200233Y0240184D02*
X0200767Y0240184D01*
X0207500Y0243180D02*
X0228400Y0243180D01*
X0228400Y0244178D02*
X0207500Y0244178D01*
X0207500Y0245177D02*
X0228400Y0245177D01*
X0228400Y0246175D02*
X0207500Y0246175D01*
X0207500Y0247174D02*
X0228400Y0247174D01*
X0228400Y0248172D02*
X0207500Y0248172D01*
X0207500Y0249171D02*
X0228400Y0249171D01*
X0228400Y0250170D02*
X0207500Y0250170D01*
X0207500Y0251168D02*
X0228400Y0251168D01*
X0228400Y0252167D02*
X0207500Y0252167D01*
X0207500Y0253165D02*
X0228400Y0253165D01*
X0228400Y0254164D02*
X0207500Y0254164D01*
X0207500Y0255162D02*
X0228400Y0255162D01*
X0228400Y0256161D02*
X0207500Y0256161D01*
X0207500Y0257159D02*
X0228400Y0257159D01*
X0228400Y0258158D02*
X0207500Y0258158D01*
X0207500Y0259156D02*
X0228400Y0259156D01*
X0228400Y0260155D02*
X0207500Y0260155D01*
X0207500Y0261153D02*
X0228400Y0261153D01*
X0228400Y0262152D02*
X0207500Y0262152D01*
X0207500Y0263150D02*
X0228400Y0263150D01*
X0228400Y0264149D02*
X0206680Y0264149D01*
X0205681Y0265147D02*
X0228400Y0265147D01*
X0228400Y0266146D02*
X0204683Y0266146D01*
X0203684Y0267144D02*
X0228400Y0267144D01*
X0228400Y0268143D02*
X0202686Y0268143D01*
X0201687Y0269141D02*
X0228400Y0269141D01*
X0228400Y0270140D02*
X0181966Y0270140D01*
X0179034Y0270140D02*
X0167500Y0270140D01*
X0167500Y0271138D02*
X0228400Y0271138D01*
X0228400Y0272137D02*
X0167500Y0272137D01*
X0167500Y0273135D02*
X0228400Y0273135D01*
X0228400Y0274134D02*
X0167500Y0274134D01*
X0167500Y0275132D02*
X0228400Y0275132D01*
X0228400Y0276131D02*
X0167500Y0276131D01*
X0167500Y0277129D02*
X0228400Y0277129D01*
X0228400Y0278128D02*
X0167500Y0278128D01*
X0167500Y0279126D02*
X0228400Y0279126D01*
X0228400Y0280125D02*
X0167500Y0280125D01*
X0168177Y0281123D02*
X0228400Y0281123D01*
X0228400Y0282122D02*
X0168500Y0282122D01*
X0168490Y0283120D02*
X0228400Y0283120D01*
X0228400Y0284119D02*
X0168077Y0284119D01*
X0167020Y0285117D02*
X0228400Y0285117D01*
X0228400Y0286116D02*
X0159712Y0286116D01*
X0159493Y0287114D02*
X0169627Y0287114D01*
X0171373Y0287114D02*
X0201627Y0287114D01*
X0203373Y0287114D02*
X0228400Y0287114D01*
X0228400Y0288113D02*
X0204856Y0288113D01*
X0205379Y0289111D02*
X0228400Y0289111D01*
X0228400Y0290110D02*
X0205500Y0290110D01*
X0205288Y0291108D02*
X0228400Y0291108D01*
X0228400Y0292107D02*
X0204636Y0292107D01*
X0200364Y0292107D02*
X0172636Y0292107D01*
X0172500Y0293105D02*
X0228400Y0293105D01*
X0228400Y0294104D02*
X0187258Y0294104D01*
X0187450Y0295103D02*
X0228400Y0295103D01*
X0228400Y0296101D02*
X0189122Y0296101D01*
X0190121Y0297100D02*
X0228400Y0297100D01*
X0228400Y0298098D02*
X0191119Y0298098D01*
X0192118Y0299097D02*
X0228400Y0299097D01*
X0228400Y0300095D02*
X0193116Y0300095D01*
X0195506Y0301094D02*
X0228400Y0301094D01*
X0228400Y0302092D02*
X0196447Y0302092D01*
X0196846Y0303091D02*
X0228400Y0303091D01*
X0228400Y0304089D02*
X0196846Y0304089D01*
X0196500Y0305088D02*
X0228400Y0305088D01*
X0228400Y0306086D02*
X0195656Y0306086D01*
X0192036Y0306086D02*
X0182500Y0306086D01*
X0182500Y0305088D02*
X0191193Y0305088D01*
X0190846Y0304089D02*
X0182500Y0304089D01*
X0182500Y0303091D02*
X0190455Y0303091D01*
X0189457Y0302092D02*
X0182500Y0302092D01*
X0187061Y0301094D02*
X0188458Y0301094D01*
X0187460Y0300095D02*
X0187450Y0300095D01*
X0184500Y0297500D02*
X0180500Y0297500D01*
X0176500Y0297500D01*
X0173550Y0297100D02*
X0172500Y0297100D01*
X0172500Y0298098D02*
X0173550Y0298098D01*
X0173550Y0299097D02*
X0172500Y0299097D01*
X0172500Y0300095D02*
X0173550Y0300095D01*
X0173165Y0301094D02*
X0173939Y0301094D01*
X0173500Y0302092D02*
X0174500Y0302092D01*
X0173550Y0296101D02*
X0172500Y0296101D01*
X0172500Y0295103D02*
X0173550Y0295103D01*
X0173742Y0294104D02*
X0172500Y0294104D01*
X0163980Y0285117D02*
X0160711Y0285117D01*
X0161000Y0284119D02*
X0162923Y0284119D01*
X0162510Y0283120D02*
X0161000Y0283120D01*
X0161000Y0282122D02*
X0162500Y0282122D01*
X0162823Y0281123D02*
X0161000Y0281123D01*
X0161000Y0280125D02*
X0163500Y0280125D01*
X0163500Y0279126D02*
X0161000Y0279126D01*
X0161000Y0278128D02*
X0163500Y0278128D01*
X0163500Y0277129D02*
X0161000Y0277129D01*
X0161000Y0276131D02*
X0163500Y0276131D01*
X0163500Y0275132D02*
X0161000Y0275132D01*
X0161000Y0274134D02*
X0163500Y0274134D01*
X0163500Y0273135D02*
X0161000Y0273135D01*
X0161000Y0272137D02*
X0163500Y0272137D01*
X0163500Y0271138D02*
X0161000Y0271138D01*
X0161000Y0270140D02*
X0163500Y0270140D01*
X0163500Y0269141D02*
X0161000Y0269141D01*
X0161000Y0268143D02*
X0163500Y0268143D01*
X0163500Y0267144D02*
X0161000Y0267144D01*
X0161000Y0266146D02*
X0164026Y0266146D01*
X0165024Y0265147D02*
X0161000Y0265147D01*
X0161000Y0264149D02*
X0166023Y0264149D01*
X0167021Y0263150D02*
X0161000Y0263150D01*
X0161000Y0262152D02*
X0168020Y0262152D01*
X0169018Y0261153D02*
X0160982Y0261153D01*
X0167686Y0268143D02*
X0177519Y0268143D01*
X0177500Y0267144D02*
X0168684Y0267144D01*
X0169683Y0266146D02*
X0177814Y0266146D01*
X0178610Y0265147D02*
X0170681Y0265147D01*
X0167500Y0269141D02*
X0177933Y0269141D01*
X0182390Y0265147D02*
X0200024Y0265147D01*
X0208309Y0242181D02*
X0228400Y0242181D01*
X0228400Y0241183D02*
X0209454Y0241183D01*
X0210233Y0240184D02*
X0228400Y0240184D01*
X0228400Y0239186D02*
X0210647Y0239186D01*
X0210900Y0238187D02*
X0225015Y0238187D01*
X0224299Y0237189D02*
X0210900Y0237189D01*
X0210802Y0236190D02*
X0224050Y0236190D01*
X0224142Y0235192D02*
X0210389Y0235192D01*
X0215291Y0228400D02*
X0213188Y0226635D01*
X0211531Y0223765D01*
X0210955Y0220500D01*
X0210955Y0220500D01*
X0211531Y0217235D01*
X0213188Y0214365D01*
X0213188Y0214365D01*
X0215727Y0212234D01*
X0215727Y0212234D01*
X0218843Y0211100D01*
X0222157Y0211100D01*
X0225272Y0212234D01*
X0225273Y0212234D01*
X0227812Y0214365D01*
X0228400Y0215383D01*
X0228400Y0136613D01*
X0227587Y0136950D01*
X0226413Y0136950D01*
X0225329Y0136501D01*
X0224499Y0135671D01*
X0224050Y0134587D01*
X0224050Y0133413D01*
X0224387Y0132600D01*
X0210144Y0132600D01*
X0210900Y0134426D01*
X0210900Y0136574D01*
X0210078Y0138559D01*
X0208559Y0140078D01*
X0207500Y0140516D01*
X0207500Y0161328D01*
X0206328Y0162500D01*
X0201328Y0167500D01*
X0182743Y0167500D01*
X0182199Y0168043D01*
X0181097Y0168500D01*
X0179903Y0168500D01*
X0178801Y0168043D01*
X0177957Y0167199D01*
X0177500Y0166097D01*
X0177500Y0164903D01*
X0177957Y0163801D01*
X0178801Y0162957D01*
X0179903Y0162500D01*
X0181097Y0162500D01*
X0182199Y0162957D01*
X0182743Y0163500D01*
X0199672Y0163500D01*
X0203500Y0159672D01*
X0203500Y0140516D01*
X0202441Y0140078D01*
X0200922Y0138559D01*
X0200500Y0137540D01*
X0200078Y0138559D01*
X0198559Y0140078D01*
X0197500Y0140516D01*
X0197500Y0156328D01*
X0192500Y0161328D01*
X0191328Y0162500D01*
X0171328Y0162500D01*
X0167500Y0166328D01*
X0167500Y0178257D01*
X0168043Y0178801D01*
X0168500Y0179903D01*
X0168500Y0181097D01*
X0168043Y0182199D01*
X0167199Y0183043D01*
X0166097Y0183500D01*
X0164903Y0183500D01*
X0163801Y0183043D01*
X0162957Y0182199D01*
X0162500Y0181097D01*
X0162500Y0179903D01*
X0162957Y0178801D01*
X0163500Y0178257D01*
X0163500Y0164672D01*
X0164672Y0163500D01*
X0169672Y0158500D01*
X0189672Y0158500D01*
X0193500Y0154672D01*
X0193500Y0140516D01*
X0192441Y0140078D01*
X0190922Y0138559D01*
X0190500Y0137540D01*
X0190078Y0138559D01*
X0188559Y0140078D01*
X0186574Y0140900D01*
X0184426Y0140900D01*
X0182441Y0140078D01*
X0180922Y0138559D01*
X0180500Y0137540D01*
X0180078Y0138559D01*
X0178559Y0140078D01*
X0176574Y0140900D01*
X0174426Y0140900D01*
X0172441Y0140078D01*
X0170922Y0138559D01*
X0170500Y0137540D01*
X0170078Y0138559D01*
X0168559Y0140078D01*
X0166574Y0140900D01*
X0164426Y0140900D01*
X0162441Y0140078D01*
X0160922Y0138559D01*
X0160391Y0137276D01*
X0160319Y0137496D01*
X0159947Y0138225D01*
X0159466Y0138888D01*
X0158888Y0139466D01*
X0158225Y0139947D01*
X0157496Y0140319D01*
X0156718Y0140572D01*
X0156000Y0140686D01*
X0156000Y0136000D01*
X0155000Y0136000D01*
X0155000Y0140686D01*
X0154282Y0140572D01*
X0153504Y0140319D01*
X0152775Y0139947D01*
X0152112Y0139466D01*
X0151534Y0138888D01*
X0151053Y0138225D01*
X0150681Y0137496D01*
X0150428Y0136718D01*
X0150314Y0136000D01*
X0155000Y0136000D01*
X0155000Y0135000D01*
X0150314Y0135000D01*
X0150428Y0134282D01*
X0150681Y0133504D01*
X0151053Y0132775D01*
X0151179Y0132600D01*
X0148487Y0132600D01*
X0148736Y0133841D01*
X0147629Y0135502D01*
X0148736Y0137162D01*
X0148395Y0138868D01*
X0146947Y0139833D01*
X0145241Y0139492D01*
X0145105Y0139288D01*
X0144968Y0139492D01*
X0143262Y0139833D01*
X0142470Y0139305D01*
X0142071Y0139704D01*
X0140670Y0139704D01*
X0140332Y0139704D01*
X0140332Y0139704D01*
X0138930Y0139704D01*
X0138930Y0139704D01*
X0138916Y0139690D01*
X0138199Y0138972D01*
X0137481Y0139690D01*
X0137467Y0139704D01*
X0136066Y0139704D01*
X0135728Y0139704D01*
X0135728Y0139704D01*
X0134326Y0139704D01*
X0133096Y0138473D01*
X0132600Y0137977D01*
X0132600Y0215383D01*
X0133188Y0214365D01*
X0133188Y0214365D01*
X0135727Y0212234D01*
X0135727Y0212234D01*
X0138843Y0211100D01*
X0142157Y0211100D01*
X0145272Y0212234D01*
X0145273Y0212234D01*
X0147812Y0214365D01*
X0149469Y0217235D01*
X0149469Y0217235D01*
X0150045Y0220500D01*
X0149469Y0223765D01*
X0147812Y0226635D01*
X0147812Y0226635D01*
X0145709Y0228400D01*
X0215291Y0228400D01*
X0215055Y0228202D02*
X0145945Y0228202D01*
X0147135Y0227204D02*
X0213865Y0227204D01*
X0213188Y0226635D02*
X0213188Y0226635D01*
X0213188Y0226635D01*
X0212940Y0226205D02*
X0148060Y0226205D01*
X0148637Y0225207D02*
X0212363Y0225207D01*
X0211787Y0224208D02*
X0149213Y0224208D01*
X0149469Y0223765D02*
X0149469Y0223765D01*
X0149567Y0223210D02*
X0211433Y0223210D01*
X0211531Y0223765D02*
X0211531Y0223765D01*
X0211257Y0222211D02*
X0149743Y0222211D01*
X0149919Y0221213D02*
X0211081Y0221213D01*
X0211005Y0220214D02*
X0149995Y0220214D01*
X0150045Y0220500D02*
X0150045Y0220500D01*
X0149819Y0219216D02*
X0211181Y0219216D01*
X0211358Y0218217D02*
X0149642Y0218217D01*
X0149460Y0217219D02*
X0211540Y0217219D01*
X0211531Y0217235D02*
X0211531Y0217235D01*
X0212117Y0216220D02*
X0148883Y0216220D01*
X0148307Y0215222D02*
X0212693Y0215222D01*
X0213357Y0214223D02*
X0147643Y0214223D01*
X0147812Y0214365D02*
X0147812Y0214365D01*
X0147812Y0214365D01*
X0146453Y0213225D02*
X0214547Y0213225D01*
X0215749Y0212226D02*
X0145251Y0212226D01*
X0142508Y0211228D02*
X0218492Y0211228D01*
X0222508Y0211228D02*
X0228400Y0211228D01*
X0228400Y0212226D02*
X0225251Y0212226D01*
X0226453Y0213225D02*
X0228400Y0213225D01*
X0228400Y0214223D02*
X0227643Y0214223D01*
X0227812Y0214365D02*
X0227812Y0214365D01*
X0227812Y0214365D01*
X0228307Y0215222D02*
X0228400Y0215222D01*
X0228400Y0210229D02*
X0132600Y0210229D01*
X0132600Y0209231D02*
X0228400Y0209231D01*
X0228400Y0208232D02*
X0132600Y0208232D01*
X0132600Y0207234D02*
X0228400Y0207234D01*
X0228400Y0206235D02*
X0180593Y0206235D01*
X0181000Y0205828D02*
X0179828Y0207000D01*
X0143172Y0207000D01*
X0139672Y0203500D01*
X0138500Y0202328D01*
X0138500Y0169672D01*
X0139672Y0168500D01*
X0141500Y0166672D01*
X0141500Y0159654D01*
X0140550Y0158704D01*
X0140550Y0152296D01*
X0141500Y0151346D01*
X0141500Y0143172D01*
X0142664Y0142008D01*
X0142957Y0141301D01*
X0143801Y0140457D01*
X0144903Y0140000D01*
X0146097Y0140000D01*
X0147199Y0140457D01*
X0148043Y0141301D01*
X0148500Y0142403D01*
X0148500Y0143597D01*
X0148043Y0144699D01*
X0147199Y0145543D01*
X0146097Y0146000D01*
X0145500Y0146000D01*
X0145500Y0151346D01*
X0145546Y0151300D01*
X0149454Y0151300D01*
X0150450Y0152296D01*
X0150450Y0153500D01*
X0155328Y0153500D01*
X0161000Y0159172D01*
X0161000Y0182828D01*
X0159500Y0184328D01*
X0159500Y0185097D01*
X0159126Y0186000D01*
X0168257Y0186000D01*
X0168801Y0185457D01*
X0169903Y0185000D01*
X0171097Y0185000D01*
X0172199Y0185457D01*
X0172743Y0186000D01*
X0200257Y0186000D01*
X0200801Y0185457D01*
X0201903Y0185000D01*
X0203097Y0185000D01*
X0204199Y0185457D01*
X0205043Y0186301D01*
X0205500Y0187403D01*
X0205500Y0188597D01*
X0205043Y0189699D01*
X0204199Y0190543D01*
X0203097Y0191000D01*
X0201903Y0191000D01*
X0200801Y0190543D01*
X0200257Y0190000D01*
X0172743Y0190000D01*
X0172500Y0190243D01*
X0172500Y0198257D01*
X0173043Y0198801D01*
X0173500Y0199903D01*
X0173500Y0201000D01*
X0174500Y0201000D01*
X0174500Y0199654D01*
X0173550Y0198704D01*
X0173550Y0192296D01*
X0174546Y0191300D01*
X0178454Y0191300D01*
X0178500Y0191346D01*
X0178546Y0191300D01*
X0182454Y0191300D01*
X0182500Y0191346D01*
X0182546Y0191300D01*
X0186454Y0191300D01*
X0187450Y0192296D01*
X0187450Y0193500D01*
X0188521Y0193500D01*
X0193675Y0198654D01*
X0194443Y0198654D01*
X0195546Y0199110D01*
X0196390Y0199954D01*
X0196846Y0201057D01*
X0196846Y0202250D01*
X0196390Y0203353D01*
X0195546Y0204197D01*
X0194443Y0204654D01*
X0193250Y0204654D01*
X0192147Y0204197D01*
X0191303Y0203353D01*
X0190846Y0202250D01*
X0190846Y0201482D01*
X0187450Y0198085D01*
X0187450Y0198704D01*
X0186454Y0199700D01*
X0182546Y0199700D01*
X0182500Y0199654D01*
X0182500Y0199654D01*
X0182500Y0204328D01*
X0181000Y0205828D01*
X0181592Y0205237D02*
X0228400Y0205237D01*
X0228400Y0204238D02*
X0195446Y0204238D01*
X0196437Y0203239D02*
X0228400Y0203239D01*
X0228400Y0202241D02*
X0196846Y0202241D01*
X0196846Y0201242D02*
X0228400Y0201242D01*
X0228400Y0200244D02*
X0196510Y0200244D01*
X0195681Y0199245D02*
X0228400Y0199245D01*
X0228400Y0198247D02*
X0193268Y0198247D01*
X0192270Y0197248D02*
X0228400Y0197248D01*
X0228400Y0196250D02*
X0191271Y0196250D01*
X0190273Y0195251D02*
X0228400Y0195251D01*
X0228400Y0194253D02*
X0189274Y0194253D01*
X0187450Y0193254D02*
X0228400Y0193254D01*
X0228400Y0192256D02*
X0187410Y0192256D01*
X0184500Y0195500D02*
X0180500Y0195500D01*
X0176500Y0195500D01*
X0173550Y0195251D02*
X0172500Y0195251D01*
X0172500Y0194253D02*
X0173550Y0194253D01*
X0173550Y0193254D02*
X0172500Y0193254D01*
X0172500Y0192256D02*
X0173590Y0192256D01*
X0172500Y0191257D02*
X0228400Y0191257D01*
X0228400Y0190259D02*
X0204484Y0190259D01*
X0205225Y0189260D02*
X0228400Y0189260D01*
X0228400Y0188262D02*
X0205500Y0188262D01*
X0205442Y0187263D02*
X0228400Y0187263D01*
X0228400Y0186265D02*
X0205007Y0186265D01*
X0203740Y0185266D02*
X0228400Y0185266D01*
X0228400Y0184268D02*
X0159561Y0184268D01*
X0159430Y0185266D02*
X0169260Y0185266D01*
X0171740Y0185266D02*
X0201260Y0185266D01*
X0200516Y0190259D02*
X0172500Y0190259D01*
X0172500Y0196250D02*
X0173550Y0196250D01*
X0173550Y0197248D02*
X0172500Y0197248D01*
X0172500Y0198247D02*
X0173550Y0198247D01*
X0173228Y0199245D02*
X0174091Y0199245D01*
X0174500Y0200244D02*
X0173500Y0200244D01*
X0182500Y0200244D02*
X0189608Y0200244D01*
X0188610Y0199245D02*
X0186909Y0199245D01*
X0187450Y0198247D02*
X0187611Y0198247D01*
X0190607Y0201242D02*
X0182500Y0201242D01*
X0182500Y0202241D02*
X0190846Y0202241D01*
X0191256Y0203239D02*
X0182500Y0203239D01*
X0182500Y0204238D02*
X0192247Y0204238D01*
X0167972Y0182271D02*
X0228400Y0182271D01*
X0228400Y0183269D02*
X0166654Y0183269D01*
X0164346Y0183269D02*
X0160559Y0183269D01*
X0161000Y0182271D02*
X0163028Y0182271D01*
X0162573Y0181272D02*
X0161000Y0181272D01*
X0161000Y0180274D02*
X0162500Y0180274D01*
X0162760Y0179275D02*
X0161000Y0179275D01*
X0161000Y0178277D02*
X0163481Y0178277D01*
X0163500Y0177278D02*
X0161000Y0177278D01*
X0161000Y0176280D02*
X0163500Y0176280D01*
X0163500Y0175281D02*
X0161000Y0175281D01*
X0161000Y0174283D02*
X0163500Y0174283D01*
X0163500Y0173284D02*
X0161000Y0173284D01*
X0161000Y0172286D02*
X0163500Y0172286D01*
X0163500Y0171287D02*
X0161000Y0171287D01*
X0161000Y0170289D02*
X0163500Y0170289D01*
X0163500Y0169290D02*
X0161000Y0169290D01*
X0161000Y0168292D02*
X0163500Y0168292D01*
X0163500Y0167293D02*
X0161000Y0167293D01*
X0161000Y0166295D02*
X0163500Y0166295D01*
X0163500Y0165296D02*
X0161000Y0165296D01*
X0161000Y0164298D02*
X0163874Y0164298D01*
X0164873Y0163299D02*
X0161000Y0163299D01*
X0161000Y0162301D02*
X0165871Y0162301D01*
X0166870Y0161302D02*
X0161000Y0161302D01*
X0161000Y0160303D02*
X0167868Y0160303D01*
X0168867Y0159305D02*
X0161000Y0159305D01*
X0160135Y0158306D02*
X0189865Y0158306D01*
X0190864Y0157308D02*
X0159136Y0157308D01*
X0158138Y0156309D02*
X0191862Y0156309D01*
X0192861Y0155311D02*
X0157139Y0155311D01*
X0156141Y0154312D02*
X0193500Y0154312D01*
X0193500Y0153314D02*
X0150450Y0153314D01*
X0150450Y0152315D02*
X0193500Y0152315D01*
X0193500Y0151317D02*
X0149471Y0151317D01*
X0145529Y0151317D02*
X0145500Y0151317D01*
X0145500Y0151346D02*
X0145500Y0151346D01*
X0145500Y0150318D02*
X0193500Y0150318D01*
X0193500Y0149320D02*
X0145500Y0149320D01*
X0145500Y0148321D02*
X0193500Y0148321D01*
X0193500Y0147323D02*
X0145500Y0147323D01*
X0145500Y0146324D02*
X0193500Y0146324D01*
X0193500Y0145326D02*
X0147417Y0145326D01*
X0148197Y0144327D02*
X0193500Y0144327D01*
X0193500Y0143329D02*
X0148500Y0143329D01*
X0148470Y0142330D02*
X0193500Y0142330D01*
X0193500Y0141332D02*
X0148056Y0141332D01*
X0146901Y0140333D02*
X0153548Y0140333D01*
X0155000Y0140333D02*
X0156000Y0140333D01*
X0156000Y0139335D02*
X0155000Y0139335D01*
X0155000Y0138336D02*
X0156000Y0138336D01*
X0156000Y0137338D02*
X0155000Y0137338D01*
X0155000Y0136339D02*
X0156000Y0136339D01*
X0155000Y0135341D02*
X0147736Y0135341D01*
X0148187Y0136339D02*
X0150368Y0136339D01*
X0150630Y0137338D02*
X0148701Y0137338D01*
X0148501Y0138336D02*
X0151133Y0138336D01*
X0151981Y0139335D02*
X0147695Y0139335D01*
X0145136Y0139335D02*
X0145073Y0139335D01*
X0144099Y0140333D02*
X0132600Y0140333D01*
X0132600Y0139335D02*
X0133958Y0139335D01*
X0133096Y0138473D02*
X0133096Y0138473D01*
X0132959Y0138336D02*
X0132600Y0138336D01*
X0132600Y0141332D02*
X0142944Y0141332D01*
X0142341Y0142330D02*
X0132600Y0142330D01*
X0132600Y0143329D02*
X0141500Y0143329D01*
X0141500Y0144327D02*
X0132600Y0144327D01*
X0132600Y0145326D02*
X0141500Y0145326D01*
X0141500Y0146324D02*
X0132600Y0146324D01*
X0132600Y0147323D02*
X0141500Y0147323D01*
X0141500Y0148321D02*
X0132600Y0148321D01*
X0132600Y0149320D02*
X0141500Y0149320D01*
X0141500Y0150318D02*
X0132600Y0150318D01*
X0132600Y0151317D02*
X0141500Y0151317D01*
X0140550Y0152315D02*
X0132600Y0152315D01*
X0132600Y0153314D02*
X0140550Y0153314D01*
X0140550Y0154312D02*
X0132600Y0154312D01*
X0132600Y0155311D02*
X0140550Y0155311D01*
X0140550Y0156309D02*
X0132600Y0156309D01*
X0132600Y0157308D02*
X0140550Y0157308D01*
X0140550Y0158306D02*
X0132600Y0158306D01*
X0132600Y0159305D02*
X0141151Y0159305D01*
X0141500Y0160303D02*
X0132600Y0160303D01*
X0132600Y0161302D02*
X0141500Y0161302D01*
X0141500Y0162301D02*
X0132600Y0162301D01*
X0132600Y0163299D02*
X0141500Y0163299D01*
X0141500Y0164298D02*
X0132600Y0164298D01*
X0132600Y0165296D02*
X0141500Y0165296D01*
X0141500Y0166295D02*
X0132600Y0166295D01*
X0132600Y0167293D02*
X0140878Y0167293D01*
X0139880Y0168292D02*
X0132600Y0168292D01*
X0132600Y0169290D02*
X0138881Y0169290D01*
X0138500Y0170289D02*
X0132600Y0170289D01*
X0132600Y0171287D02*
X0138500Y0171287D01*
X0138500Y0172286D02*
X0132600Y0172286D01*
X0132600Y0173284D02*
X0138500Y0173284D01*
X0138500Y0174283D02*
X0132600Y0174283D01*
X0132600Y0175281D02*
X0138500Y0175281D01*
X0138500Y0176280D02*
X0132600Y0176280D01*
X0132600Y0177278D02*
X0138500Y0177278D01*
X0138500Y0178277D02*
X0132600Y0178277D01*
X0132600Y0179275D02*
X0138500Y0179275D01*
X0138500Y0180274D02*
X0132600Y0180274D01*
X0132600Y0181272D02*
X0138500Y0181272D01*
X0138500Y0182271D02*
X0132600Y0182271D01*
X0132600Y0183269D02*
X0138500Y0183269D01*
X0138500Y0184268D02*
X0132600Y0184268D01*
X0132600Y0185266D02*
X0138500Y0185266D01*
X0138500Y0186265D02*
X0132600Y0186265D01*
X0132600Y0187263D02*
X0138500Y0187263D01*
X0138500Y0188262D02*
X0132600Y0188262D01*
X0132600Y0189260D02*
X0138500Y0189260D01*
X0138500Y0190259D02*
X0132600Y0190259D01*
X0132600Y0191257D02*
X0138500Y0191257D01*
X0138500Y0192256D02*
X0132600Y0192256D01*
X0132600Y0193254D02*
X0138500Y0193254D01*
X0138500Y0194253D02*
X0132600Y0194253D01*
X0132600Y0195251D02*
X0138500Y0195251D01*
X0138500Y0196250D02*
X0132600Y0196250D01*
X0132600Y0197248D02*
X0138500Y0197248D01*
X0138500Y0198247D02*
X0132600Y0198247D01*
X0132600Y0199245D02*
X0138500Y0199245D01*
X0138500Y0200244D02*
X0132600Y0200244D01*
X0132600Y0201242D02*
X0138500Y0201242D01*
X0138500Y0202241D02*
X0132600Y0202241D01*
X0132600Y0203239D02*
X0139411Y0203239D01*
X0140410Y0204238D02*
X0132600Y0204238D01*
X0132600Y0205237D02*
X0141408Y0205237D01*
X0142407Y0206235D02*
X0132600Y0206235D01*
X0132600Y0211228D02*
X0138492Y0211228D01*
X0135749Y0212226D02*
X0132600Y0212226D01*
X0132600Y0213225D02*
X0134547Y0213225D01*
X0133357Y0214223D02*
X0132600Y0214223D01*
X0132600Y0215222D02*
X0132693Y0215222D01*
X0126400Y0215222D02*
X0126307Y0215222D01*
X0126400Y0215383D02*
X0125812Y0214365D01*
X0125812Y0214365D01*
X0125812Y0214365D01*
X0123273Y0212234D01*
X0123272Y0212234D01*
X0120157Y0211100D01*
X0116843Y0211100D01*
X0113727Y0212234D01*
X0113727Y0212234D01*
X0111188Y0214365D01*
X0111188Y0214365D01*
X0109531Y0217235D01*
X0109531Y0217235D01*
X0108955Y0220500D01*
X0108955Y0220500D01*
X0109531Y0223765D01*
X0109531Y0223765D01*
X0111188Y0226635D01*
X0111188Y0226635D01*
X0111188Y0226635D01*
X0113291Y0228400D01*
X0043709Y0228400D01*
X0045812Y0226635D01*
X0045812Y0226635D01*
X0047469Y0223765D01*
X0047469Y0223765D01*
X0048045Y0220500D01*
X0048045Y0220500D01*
X0047469Y0217235D01*
X0047469Y0217235D01*
X0045812Y0214365D01*
X0045812Y0214365D01*
X0045812Y0214365D01*
X0043273Y0212234D01*
X0043272Y0212234D01*
X0040157Y0211100D01*
X0036843Y0211100D01*
X0033727Y0212234D01*
X0031188Y0214365D01*
X0031188Y0214365D01*
X0030600Y0215383D01*
X0030600Y0137977D01*
X0031096Y0138473D01*
X0031096Y0138473D01*
X0032326Y0139704D01*
X0033728Y0139704D01*
X0033728Y0139704D01*
X0033906Y0139704D01*
X0034066Y0139704D01*
X0034066Y0139704D01*
X0035467Y0139704D01*
X0035467Y0139704D01*
X0035481Y0139690D01*
X0036199Y0138972D01*
X0036916Y0139690D01*
X0036930Y0139704D01*
X0036930Y0139704D01*
X0038332Y0139704D01*
X0038332Y0139704D01*
X0038670Y0139704D01*
X0038670Y0139704D01*
X0040071Y0139704D01*
X0040470Y0139305D01*
X0041262Y0139833D01*
X0042968Y0139492D01*
X0043105Y0139288D01*
X0043241Y0139492D01*
X0044947Y0139833D01*
X0046395Y0138868D01*
X0046736Y0137162D01*
X0045629Y0135502D01*
X0046736Y0133841D01*
X0046487Y0132600D01*
X0049179Y0132600D01*
X0049053Y0132775D01*
X0048681Y0133504D01*
X0048428Y0134282D01*
X0048314Y0135000D01*
X0053000Y0135000D01*
X0053000Y0136000D01*
X0053000Y0140686D01*
X0052282Y0140572D01*
X0051504Y0140319D01*
X0050775Y0139947D01*
X0050112Y0139466D01*
X0049534Y0138888D01*
X0049053Y0138225D01*
X0048681Y0137496D01*
X0048428Y0136718D01*
X0048314Y0136000D01*
X0053000Y0136000D01*
X0054000Y0136000D01*
X0054000Y0140686D01*
X0054718Y0140572D01*
X0055496Y0140319D01*
X0056225Y0139947D01*
X0056888Y0139466D01*
X0057466Y0138888D01*
X0057947Y0138225D01*
X0058319Y0137496D01*
X0058391Y0137276D01*
X0058922Y0138559D01*
X0060441Y0140078D01*
X0062426Y0140900D01*
X0064574Y0140900D01*
X0066559Y0140078D01*
X0068078Y0138559D01*
X0068500Y0137540D01*
X0068922Y0138559D01*
X0070441Y0140078D01*
X0072426Y0140900D01*
X0074574Y0140900D01*
X0076559Y0140078D01*
X0078078Y0138559D01*
X0078500Y0137540D01*
X0078922Y0138559D01*
X0080441Y0140078D01*
X0082426Y0140900D01*
X0084574Y0140900D01*
X0086559Y0140078D01*
X0088078Y0138559D01*
X0088500Y0137540D01*
X0088922Y0138559D01*
X0090441Y0140078D01*
X0091500Y0140516D01*
X0091500Y0154672D01*
X0087672Y0158500D01*
X0067672Y0158500D01*
X0062672Y0163500D01*
X0061500Y0164672D01*
X0061500Y0178257D01*
X0060957Y0178801D01*
X0060500Y0179903D01*
X0060500Y0181097D01*
X0060957Y0182199D01*
X0061801Y0183043D01*
X0062903Y0183500D01*
X0064097Y0183500D01*
X0065199Y0183043D01*
X0066043Y0182199D01*
X0066500Y0181097D01*
X0066500Y0179903D01*
X0066043Y0178801D01*
X0065500Y0178257D01*
X0065500Y0166328D01*
X0069328Y0162500D01*
X0089328Y0162500D01*
X0090500Y0161328D01*
X0095500Y0156328D01*
X0095500Y0140516D01*
X0096559Y0140078D01*
X0098078Y0138559D01*
X0098500Y0137540D01*
X0098922Y0138559D01*
X0100441Y0140078D01*
X0101500Y0140516D01*
X0101500Y0159672D01*
X0097672Y0163500D01*
X0080743Y0163500D01*
X0080199Y0162957D01*
X0079097Y0162500D01*
X0077903Y0162500D01*
X0076801Y0162957D01*
X0075957Y0163801D01*
X0075500Y0164903D01*
X0075500Y0166097D01*
X0075957Y0167199D01*
X0076801Y0168043D01*
X0077903Y0168500D01*
X0079097Y0168500D01*
X0080199Y0168043D01*
X0080743Y0167500D01*
X0099328Y0167500D01*
X0104328Y0162500D01*
X0105500Y0161328D01*
X0105500Y0140516D01*
X0106559Y0140078D01*
X0108078Y0138559D01*
X0108900Y0136574D01*
X0108900Y0134426D01*
X0108144Y0132600D01*
X0122387Y0132600D01*
X0122050Y0133413D01*
X0122050Y0134587D01*
X0122499Y0135671D01*
X0123329Y0136501D01*
X0124413Y0136950D01*
X0125587Y0136950D01*
X0126400Y0136613D01*
X0126400Y0215383D01*
X0126400Y0214223D02*
X0125643Y0214223D01*
X0126400Y0213225D02*
X0124453Y0213225D01*
X0123251Y0212226D02*
X0126400Y0212226D01*
X0126400Y0211228D02*
X0120508Y0211228D01*
X0116492Y0211228D02*
X0040508Y0211228D01*
X0043251Y0212226D02*
X0113749Y0212226D01*
X0112547Y0213225D02*
X0044453Y0213225D01*
X0045643Y0214223D02*
X0111357Y0214223D01*
X0110693Y0215222D02*
X0046307Y0215222D01*
X0046883Y0216220D02*
X0110117Y0216220D01*
X0109540Y0217219D02*
X0047460Y0217219D01*
X0047642Y0218217D02*
X0109358Y0218217D01*
X0109181Y0219216D02*
X0047819Y0219216D01*
X0047995Y0220214D02*
X0109005Y0220214D01*
X0109081Y0221213D02*
X0047919Y0221213D01*
X0047743Y0222211D02*
X0109257Y0222211D01*
X0109433Y0223210D02*
X0047567Y0223210D01*
X0047213Y0224208D02*
X0109787Y0224208D01*
X0110363Y0225207D02*
X0046637Y0225207D01*
X0046060Y0226205D02*
X0110940Y0226205D01*
X0111865Y0227204D02*
X0045135Y0227204D01*
X0043945Y0228202D02*
X0113055Y0228202D01*
X0108389Y0235192D02*
X0122142Y0235192D01*
X0122050Y0236190D02*
X0108802Y0236190D01*
X0108900Y0237189D02*
X0122299Y0237189D01*
X0123015Y0238187D02*
X0108900Y0238187D01*
X0108647Y0239186D02*
X0126400Y0239186D01*
X0126400Y0240184D02*
X0108233Y0240184D01*
X0107454Y0241183D02*
X0126400Y0241183D01*
X0126400Y0242181D02*
X0106309Y0242181D01*
X0105500Y0243180D02*
X0126400Y0243180D01*
X0126400Y0244178D02*
X0105500Y0244178D01*
X0105500Y0245177D02*
X0126400Y0245177D01*
X0126400Y0246175D02*
X0105500Y0246175D01*
X0105500Y0247174D02*
X0126400Y0247174D01*
X0126400Y0248172D02*
X0105500Y0248172D01*
X0105500Y0249171D02*
X0126400Y0249171D01*
X0126400Y0250170D02*
X0105500Y0250170D01*
X0105500Y0251168D02*
X0126400Y0251168D01*
X0126400Y0252167D02*
X0105500Y0252167D01*
X0105500Y0253165D02*
X0126400Y0253165D01*
X0126400Y0254164D02*
X0105500Y0254164D01*
X0105500Y0255162D02*
X0126400Y0255162D01*
X0126400Y0256161D02*
X0105500Y0256161D01*
X0105500Y0257159D02*
X0126400Y0257159D01*
X0126400Y0258158D02*
X0105500Y0258158D01*
X0105500Y0259156D02*
X0126400Y0259156D01*
X0126400Y0260155D02*
X0105500Y0260155D01*
X0105500Y0261153D02*
X0126400Y0261153D01*
X0126400Y0262152D02*
X0105500Y0262152D01*
X0105500Y0263150D02*
X0126400Y0263150D01*
X0126400Y0264149D02*
X0104680Y0264149D01*
X0103681Y0265147D02*
X0126400Y0265147D01*
X0126400Y0266146D02*
X0102683Y0266146D01*
X0101684Y0267144D02*
X0126400Y0267144D01*
X0126400Y0268143D02*
X0100686Y0268143D01*
X0099687Y0269141D02*
X0126400Y0269141D01*
X0132600Y0295103D02*
X0138500Y0295103D01*
X0138500Y0296101D02*
X0132600Y0296101D01*
X0132600Y0297100D02*
X0138500Y0297100D01*
X0138500Y0298098D02*
X0132600Y0298098D01*
X0132600Y0299097D02*
X0138500Y0299097D01*
X0138500Y0300095D02*
X0132600Y0300095D01*
X0132600Y0301094D02*
X0138500Y0301094D01*
X0138500Y0302092D02*
X0132600Y0302092D01*
X0132600Y0303091D02*
X0138500Y0303091D01*
X0138500Y0304089D02*
X0132600Y0304089D01*
X0132600Y0305088D02*
X0139259Y0305088D01*
X0140258Y0306086D02*
X0132600Y0306086D01*
X0132600Y0307085D02*
X0141256Y0307085D01*
X0142255Y0308083D02*
X0132600Y0308083D01*
X0132600Y0309082D02*
X0228400Y0309082D01*
X0228400Y0310080D02*
X0132600Y0310080D01*
X0132600Y0311079D02*
X0228400Y0311079D01*
X0228400Y0312077D02*
X0132600Y0312077D01*
X0132600Y0313076D02*
X0228400Y0313076D01*
X0228400Y0314074D02*
X0224834Y0314074D01*
X0226272Y0315073D02*
X0228400Y0315073D01*
X0228400Y0316071D02*
X0227462Y0316071D01*
X0227812Y0316365D02*
X0227812Y0316365D01*
X0227812Y0316365D01*
X0228219Y0317070D02*
X0228400Y0317070D01*
X0234600Y0317070D02*
X0234781Y0317070D01*
X0234600Y0317383D02*
X0235188Y0316365D01*
X0235188Y0316365D01*
X0237727Y0314234D01*
X0237727Y0314234D01*
X0240843Y0313100D01*
X0244157Y0313100D01*
X0247272Y0314234D01*
X0247273Y0314234D01*
X0249812Y0316365D01*
X0251469Y0319235D01*
X0251469Y0319235D01*
X0252045Y0322500D01*
X0251469Y0325765D01*
X0249812Y0328635D01*
X0249812Y0328635D01*
X0247709Y0330400D01*
X0317291Y0330400D01*
X0315188Y0328635D01*
X0313531Y0325765D01*
X0312955Y0322500D01*
X0312955Y0322500D01*
X0313531Y0319235D01*
X0315188Y0316365D01*
X0315188Y0316365D01*
X0317727Y0314234D01*
X0317727Y0314234D01*
X0320843Y0313100D01*
X0324157Y0313100D01*
X0327272Y0314234D01*
X0327273Y0314234D01*
X0329812Y0316365D01*
X0330400Y0317383D01*
X0330400Y0238613D01*
X0329587Y0238950D01*
X0328413Y0238950D01*
X0327329Y0238501D01*
X0326499Y0237671D01*
X0326050Y0236587D01*
X0326050Y0235413D01*
X0326387Y0234600D01*
X0312144Y0234600D01*
X0312900Y0236426D01*
X0312900Y0238574D01*
X0312078Y0240559D01*
X0310559Y0242078D01*
X0309500Y0242516D01*
X0309500Y0263328D01*
X0308328Y0264500D01*
X0303328Y0269500D01*
X0284743Y0269500D01*
X0284199Y0270043D01*
X0283097Y0270500D01*
X0281903Y0270500D01*
X0280801Y0270043D01*
X0279957Y0269199D01*
X0279500Y0268097D01*
X0279500Y0266903D01*
X0279957Y0265801D01*
X0280801Y0264957D01*
X0281903Y0264500D01*
X0283097Y0264500D01*
X0284199Y0264957D01*
X0284743Y0265500D01*
X0301672Y0265500D01*
X0305500Y0261672D01*
X0305500Y0242516D01*
X0304441Y0242078D01*
X0302922Y0240559D01*
X0302500Y0239540D01*
X0302078Y0240559D01*
X0300559Y0242078D01*
X0299500Y0242516D01*
X0299500Y0258328D01*
X0294500Y0263328D01*
X0293328Y0264500D01*
X0273328Y0264500D01*
X0269500Y0268328D01*
X0269500Y0280257D01*
X0270043Y0280801D01*
X0270500Y0281903D01*
X0270500Y0283097D01*
X0270043Y0284199D01*
X0269199Y0285043D01*
X0268097Y0285500D01*
X0266903Y0285500D01*
X0265801Y0285043D01*
X0264957Y0284199D01*
X0264500Y0283097D01*
X0264500Y0281903D01*
X0264957Y0280801D01*
X0265500Y0280257D01*
X0265500Y0266672D01*
X0266672Y0265500D01*
X0271672Y0260500D01*
X0291672Y0260500D01*
X0295500Y0256672D01*
X0295500Y0242516D01*
X0294441Y0242078D01*
X0292922Y0240559D01*
X0292500Y0239540D01*
X0292078Y0240559D01*
X0290559Y0242078D01*
X0288574Y0242900D01*
X0286426Y0242900D01*
X0284441Y0242078D01*
X0282922Y0240559D01*
X0282500Y0239540D01*
X0282078Y0240559D01*
X0280559Y0242078D01*
X0278574Y0242900D01*
X0276426Y0242900D01*
X0274441Y0242078D01*
X0272922Y0240559D01*
X0272500Y0239540D01*
X0272078Y0240559D01*
X0270559Y0242078D01*
X0268574Y0242900D01*
X0266426Y0242900D01*
X0264441Y0242078D01*
X0262922Y0240559D01*
X0262391Y0239276D01*
X0262319Y0239496D01*
X0261947Y0240225D01*
X0261466Y0240888D01*
X0260888Y0241466D01*
X0260225Y0241947D01*
X0259496Y0242319D01*
X0258718Y0242572D01*
X0258000Y0242686D01*
X0258000Y0238000D01*
X0257000Y0238000D01*
X0257000Y0242686D01*
X0256282Y0242572D01*
X0255504Y0242319D01*
X0254775Y0241947D01*
X0254112Y0241466D01*
X0253534Y0240888D01*
X0253053Y0240225D01*
X0252681Y0239496D01*
X0252428Y0238718D01*
X0252314Y0238000D01*
X0257000Y0238000D01*
X0257000Y0237000D01*
X0252314Y0237000D01*
X0252428Y0236282D01*
X0252681Y0235504D01*
X0253053Y0234775D01*
X0253179Y0234600D01*
X0250487Y0234600D01*
X0250736Y0235841D01*
X0249629Y0237502D01*
X0250736Y0239162D01*
X0250395Y0240868D01*
X0248947Y0241833D01*
X0247241Y0241492D01*
X0247105Y0241288D01*
X0246968Y0241492D01*
X0245262Y0241833D01*
X0244470Y0241305D01*
X0244071Y0241704D01*
X0242670Y0241704D01*
X0242332Y0241704D01*
X0242332Y0241704D01*
X0240930Y0241704D01*
X0240930Y0241704D01*
X0240916Y0241690D01*
X0240199Y0240972D01*
X0239481Y0241690D01*
X0239467Y0241704D01*
X0238066Y0241704D01*
X0237906Y0241704D01*
X0237728Y0241704D01*
X0237728Y0241704D01*
X0236326Y0241704D01*
X0235096Y0240473D01*
X0234600Y0239977D01*
X0234600Y0317383D01*
X0234600Y0316071D02*
X0235538Y0316071D01*
X0234600Y0315073D02*
X0236728Y0315073D01*
X0238166Y0314074D02*
X0234600Y0314074D01*
X0234600Y0313076D02*
X0330400Y0313076D01*
X0330400Y0314074D02*
X0326834Y0314074D01*
X0328272Y0315073D02*
X0330400Y0315073D01*
X0330400Y0316071D02*
X0329462Y0316071D01*
X0329812Y0316365D02*
X0329812Y0316365D01*
X0329812Y0316365D01*
X0330219Y0317070D02*
X0330400Y0317070D01*
X0330400Y0312077D02*
X0234600Y0312077D01*
X0234600Y0311079D02*
X0330400Y0311079D01*
X0330400Y0310080D02*
X0234600Y0310080D01*
X0234600Y0309082D02*
X0330400Y0309082D01*
X0330400Y0308083D02*
X0282745Y0308083D01*
X0283000Y0307828D02*
X0281828Y0309000D01*
X0245172Y0309000D01*
X0241672Y0305500D01*
X0240500Y0304328D01*
X0240500Y0271672D01*
X0241672Y0270500D01*
X0243500Y0268672D01*
X0243500Y0261654D01*
X0242550Y0260704D01*
X0242550Y0254296D01*
X0243500Y0253346D01*
X0243500Y0245172D01*
X0244664Y0244008D01*
X0244957Y0243301D01*
X0245801Y0242457D01*
X0246903Y0242000D01*
X0248097Y0242000D01*
X0249199Y0242457D01*
X0250043Y0243301D01*
X0250500Y0244403D01*
X0250500Y0245597D01*
X0250043Y0246699D01*
X0249199Y0247543D01*
X0248097Y0248000D01*
X0247500Y0248000D01*
X0247500Y0253346D01*
X0247546Y0253300D01*
X0251454Y0253300D01*
X0252450Y0254296D01*
X0252450Y0255500D01*
X0257328Y0255500D01*
X0263000Y0261172D01*
X0263000Y0284828D01*
X0261500Y0286328D01*
X0261500Y0287097D01*
X0261126Y0288000D01*
X0270257Y0288000D01*
X0270801Y0287457D01*
X0271903Y0287000D01*
X0273097Y0287000D01*
X0274199Y0287457D01*
X0274743Y0288000D01*
X0302257Y0288000D01*
X0302801Y0287457D01*
X0303903Y0287000D01*
X0305097Y0287000D01*
X0306199Y0287457D01*
X0307043Y0288301D01*
X0307500Y0289403D01*
X0307500Y0290597D01*
X0307043Y0291699D01*
X0306199Y0292543D01*
X0305097Y0293000D01*
X0303903Y0293000D01*
X0302801Y0292543D01*
X0302257Y0292000D01*
X0274743Y0292000D01*
X0274500Y0292243D01*
X0274500Y0300257D01*
X0275043Y0300801D01*
X0275500Y0301903D01*
X0275500Y0303000D01*
X0276500Y0303000D01*
X0276500Y0301654D01*
X0275550Y0300704D01*
X0275550Y0294296D01*
X0276546Y0293300D01*
X0280454Y0293300D01*
X0280500Y0293346D01*
X0280546Y0293300D01*
X0284454Y0293300D01*
X0284500Y0293346D01*
X0284546Y0293300D01*
X0288454Y0293300D01*
X0289450Y0294296D01*
X0289450Y0295500D01*
X0290521Y0295500D01*
X0295675Y0300654D01*
X0296443Y0300654D01*
X0297546Y0301110D01*
X0298390Y0301954D01*
X0298846Y0303057D01*
X0298846Y0304250D01*
X0298390Y0305353D01*
X0297546Y0306197D01*
X0296443Y0306654D01*
X0295250Y0306654D01*
X0294147Y0306197D01*
X0293303Y0305353D01*
X0292846Y0304250D01*
X0292846Y0303482D01*
X0289450Y0300085D01*
X0289450Y0300704D01*
X0288454Y0301700D01*
X0284546Y0301700D01*
X0284500Y0301654D01*
X0284500Y0301654D01*
X0284500Y0306328D01*
X0283000Y0307828D01*
X0283744Y0307085D02*
X0330400Y0307085D01*
X0330400Y0306086D02*
X0297656Y0306086D01*
X0298500Y0305088D02*
X0330400Y0305088D01*
X0330400Y0304089D02*
X0298846Y0304089D01*
X0298846Y0303091D02*
X0330400Y0303091D01*
X0330400Y0302092D02*
X0298447Y0302092D01*
X0297506Y0301094D02*
X0330400Y0301094D01*
X0330400Y0300095D02*
X0295116Y0300095D01*
X0294118Y0299097D02*
X0330400Y0299097D01*
X0330400Y0298098D02*
X0293119Y0298098D01*
X0292121Y0297100D02*
X0330400Y0297100D01*
X0330400Y0296101D02*
X0291122Y0296101D01*
X0289450Y0295103D02*
X0330400Y0295103D01*
X0330400Y0294104D02*
X0289258Y0294104D01*
X0286500Y0297500D02*
X0282500Y0297500D01*
X0278500Y0297500D01*
X0275550Y0297100D02*
X0274500Y0297100D01*
X0274500Y0298098D02*
X0275550Y0298098D01*
X0275550Y0299097D02*
X0274500Y0299097D01*
X0274500Y0300095D02*
X0275550Y0300095D01*
X0275165Y0301094D02*
X0275939Y0301094D01*
X0275500Y0302092D02*
X0276500Y0302092D01*
X0275550Y0296101D02*
X0274500Y0296101D01*
X0274500Y0295103D02*
X0275550Y0295103D01*
X0275742Y0294104D02*
X0274500Y0294104D01*
X0274500Y0293105D02*
X0330400Y0293105D01*
X0330400Y0292107D02*
X0306636Y0292107D01*
X0307288Y0291108D02*
X0330400Y0291108D01*
X0330400Y0290110D02*
X0307500Y0290110D01*
X0307379Y0289111D02*
X0330400Y0289111D01*
X0330400Y0288113D02*
X0306856Y0288113D01*
X0305373Y0287114D02*
X0330400Y0287114D01*
X0330400Y0286116D02*
X0261712Y0286116D01*
X0261493Y0287114D02*
X0271627Y0287114D01*
X0273373Y0287114D02*
X0303627Y0287114D01*
X0302364Y0292107D02*
X0274636Y0292107D01*
X0269020Y0285117D02*
X0330400Y0285117D01*
X0330400Y0284119D02*
X0270077Y0284119D01*
X0270490Y0283120D02*
X0330400Y0283120D01*
X0330400Y0282122D02*
X0270500Y0282122D01*
X0270177Y0281123D02*
X0330400Y0281123D01*
X0330400Y0280125D02*
X0269500Y0280125D01*
X0269500Y0279126D02*
X0330400Y0279126D01*
X0330400Y0278128D02*
X0269500Y0278128D01*
X0269500Y0277129D02*
X0330400Y0277129D01*
X0330400Y0276131D02*
X0269500Y0276131D01*
X0269500Y0275132D02*
X0330400Y0275132D01*
X0330400Y0274134D02*
X0269500Y0274134D01*
X0269500Y0273135D02*
X0330400Y0273135D01*
X0330400Y0272137D02*
X0269500Y0272137D01*
X0269500Y0271138D02*
X0330400Y0271138D01*
X0330400Y0270140D02*
X0283966Y0270140D01*
X0281034Y0270140D02*
X0269500Y0270140D01*
X0269500Y0269141D02*
X0279933Y0269141D01*
X0279519Y0268143D02*
X0269686Y0268143D01*
X0270684Y0267144D02*
X0279500Y0267144D01*
X0279814Y0266146D02*
X0271683Y0266146D01*
X0272681Y0265147D02*
X0280610Y0265147D01*
X0284390Y0265147D02*
X0302024Y0265147D01*
X0303023Y0264149D02*
X0293680Y0264149D01*
X0294678Y0263150D02*
X0304021Y0263150D01*
X0305020Y0262152D02*
X0295677Y0262152D01*
X0296675Y0261153D02*
X0305500Y0261153D01*
X0305500Y0260155D02*
X0297674Y0260155D01*
X0298672Y0259156D02*
X0305500Y0259156D01*
X0305500Y0258158D02*
X0299500Y0258158D01*
X0299500Y0257159D02*
X0305500Y0257159D01*
X0305500Y0256161D02*
X0299500Y0256161D01*
X0299500Y0255162D02*
X0305500Y0255162D01*
X0305500Y0254164D02*
X0299500Y0254164D01*
X0299500Y0253165D02*
X0305500Y0253165D01*
X0305500Y0252167D02*
X0299500Y0252167D01*
X0299500Y0251168D02*
X0305500Y0251168D01*
X0305500Y0250170D02*
X0299500Y0250170D01*
X0299500Y0249171D02*
X0305500Y0249171D01*
X0305500Y0248172D02*
X0299500Y0248172D01*
X0299500Y0247174D02*
X0305500Y0247174D01*
X0305500Y0246175D02*
X0299500Y0246175D01*
X0299500Y0245177D02*
X0305500Y0245177D01*
X0305500Y0244178D02*
X0299500Y0244178D01*
X0299500Y0243180D02*
X0305500Y0243180D01*
X0304691Y0242181D02*
X0300309Y0242181D01*
X0301454Y0241183D02*
X0303546Y0241183D01*
X0302767Y0240184D02*
X0302233Y0240184D01*
X0295500Y0243180D02*
X0249923Y0243180D01*
X0250407Y0244178D02*
X0295500Y0244178D01*
X0295500Y0245177D02*
X0250500Y0245177D01*
X0250260Y0246175D02*
X0295500Y0246175D01*
X0295500Y0247174D02*
X0249569Y0247174D01*
X0247500Y0248172D02*
X0295500Y0248172D01*
X0295500Y0249171D02*
X0247500Y0249171D01*
X0247500Y0250170D02*
X0295500Y0250170D01*
X0295500Y0251168D02*
X0247500Y0251168D01*
X0247500Y0252167D02*
X0295500Y0252167D01*
X0295500Y0253165D02*
X0247500Y0253165D01*
X0243500Y0253165D02*
X0234600Y0253165D01*
X0234600Y0252167D02*
X0243500Y0252167D01*
X0243500Y0251168D02*
X0234600Y0251168D01*
X0234600Y0250170D02*
X0243500Y0250170D01*
X0243500Y0249171D02*
X0234600Y0249171D01*
X0234600Y0248172D02*
X0243500Y0248172D01*
X0243500Y0247174D02*
X0234600Y0247174D01*
X0234600Y0246175D02*
X0243500Y0246175D01*
X0243500Y0245177D02*
X0234600Y0245177D01*
X0234600Y0244178D02*
X0244493Y0244178D01*
X0245077Y0243180D02*
X0234600Y0243180D01*
X0234600Y0242181D02*
X0246465Y0242181D01*
X0248535Y0242181D02*
X0255234Y0242181D01*
X0253829Y0241183D02*
X0249923Y0241183D01*
X0250531Y0240184D02*
X0253032Y0240184D01*
X0252580Y0239186D02*
X0250731Y0239186D01*
X0250086Y0238187D02*
X0252344Y0238187D01*
X0252458Y0236190D02*
X0250503Y0236190D01*
X0250606Y0235192D02*
X0252840Y0235192D01*
X0249837Y0237189D02*
X0257000Y0237189D01*
X0257000Y0238187D02*
X0258000Y0238187D01*
X0258000Y0239186D02*
X0257000Y0239186D01*
X0257000Y0240184D02*
X0258000Y0240184D01*
X0258000Y0241183D02*
X0257000Y0241183D01*
X0257000Y0242181D02*
X0258000Y0242181D01*
X0259766Y0242181D02*
X0264691Y0242181D01*
X0263546Y0241183D02*
X0261171Y0241183D01*
X0261968Y0240184D02*
X0262767Y0240184D01*
X0270309Y0242181D02*
X0274691Y0242181D01*
X0273546Y0241183D02*
X0271454Y0241183D01*
X0272233Y0240184D02*
X0272767Y0240184D01*
X0280309Y0242181D02*
X0284691Y0242181D01*
X0283546Y0241183D02*
X0281454Y0241183D01*
X0282233Y0240184D02*
X0282767Y0240184D01*
X0290309Y0242181D02*
X0294691Y0242181D01*
X0293546Y0241183D02*
X0291454Y0241183D01*
X0292233Y0240184D02*
X0292767Y0240184D01*
X0295500Y0254164D02*
X0252318Y0254164D01*
X0252450Y0255162D02*
X0295500Y0255162D01*
X0295500Y0256161D02*
X0257989Y0256161D01*
X0258988Y0257159D02*
X0295012Y0257159D01*
X0294014Y0258158D02*
X0259986Y0258158D01*
X0260985Y0259156D02*
X0293015Y0259156D01*
X0292017Y0260155D02*
X0261983Y0260155D01*
X0262982Y0261153D02*
X0271018Y0261153D01*
X0270020Y0262152D02*
X0263000Y0262152D01*
X0263000Y0263150D02*
X0269021Y0263150D01*
X0268023Y0264149D02*
X0263000Y0264149D01*
X0263000Y0265147D02*
X0267024Y0265147D01*
X0266026Y0266146D02*
X0263000Y0266146D01*
X0263000Y0267144D02*
X0265500Y0267144D01*
X0265500Y0268143D02*
X0263000Y0268143D01*
X0263000Y0269141D02*
X0265500Y0269141D01*
X0265500Y0270140D02*
X0263000Y0270140D01*
X0263000Y0271138D02*
X0265500Y0271138D01*
X0265500Y0272137D02*
X0263000Y0272137D01*
X0263000Y0273135D02*
X0265500Y0273135D01*
X0265500Y0274134D02*
X0263000Y0274134D01*
X0263000Y0275132D02*
X0265500Y0275132D01*
X0265500Y0276131D02*
X0263000Y0276131D01*
X0263000Y0277129D02*
X0265500Y0277129D01*
X0265500Y0278128D02*
X0263000Y0278128D01*
X0263000Y0279126D02*
X0265500Y0279126D01*
X0265500Y0280125D02*
X0263000Y0280125D01*
X0263000Y0281123D02*
X0264823Y0281123D01*
X0264500Y0282122D02*
X0263000Y0282122D01*
X0263000Y0283120D02*
X0264510Y0283120D01*
X0264923Y0284119D02*
X0263000Y0284119D01*
X0262711Y0285117D02*
X0265980Y0285117D01*
X0284500Y0302092D02*
X0291457Y0302092D01*
X0292455Y0303091D02*
X0284500Y0303091D01*
X0284500Y0304089D02*
X0292846Y0304089D01*
X0293193Y0305088D02*
X0284500Y0305088D01*
X0284500Y0306086D02*
X0294036Y0306086D01*
X0290458Y0301094D02*
X0289061Y0301094D01*
X0289450Y0300095D02*
X0289460Y0300095D01*
X0313628Y0319067D02*
X0251372Y0319067D01*
X0251616Y0320065D02*
X0313384Y0320065D01*
X0313531Y0319235D02*
X0313531Y0319235D01*
X0314204Y0318068D02*
X0250796Y0318068D01*
X0250219Y0317070D02*
X0314781Y0317070D01*
X0315538Y0316071D02*
X0249462Y0316071D01*
X0249812Y0316365D02*
X0249812Y0316365D01*
X0249812Y0316365D01*
X0248272Y0315073D02*
X0316728Y0315073D01*
X0318166Y0314074D02*
X0246834Y0314074D01*
X0251792Y0321064D02*
X0313208Y0321064D01*
X0313032Y0322062D02*
X0251968Y0322062D01*
X0252045Y0322500D02*
X0252045Y0322500D01*
X0251946Y0323061D02*
X0313054Y0323061D01*
X0313230Y0324059D02*
X0251770Y0324059D01*
X0251594Y0325058D02*
X0313406Y0325058D01*
X0313531Y0325765D02*
X0313531Y0325765D01*
X0313699Y0326056D02*
X0251301Y0326056D01*
X0251469Y0325765D02*
X0251469Y0325765D01*
X0250724Y0327055D02*
X0314276Y0327055D01*
X0314852Y0328053D02*
X0250148Y0328053D01*
X0249316Y0329052D02*
X0315684Y0329052D01*
X0315188Y0328635D02*
X0315188Y0328635D01*
X0315188Y0328635D01*
X0316874Y0330050D02*
X0248126Y0330050D01*
X0244255Y0308083D02*
X0234600Y0308083D01*
X0234600Y0307085D02*
X0243256Y0307085D01*
X0242258Y0306086D02*
X0234600Y0306086D01*
X0234600Y0305088D02*
X0241259Y0305088D01*
X0240500Y0304089D02*
X0234600Y0304089D01*
X0234600Y0303091D02*
X0240500Y0303091D01*
X0240500Y0302092D02*
X0234600Y0302092D01*
X0234600Y0301094D02*
X0240500Y0301094D01*
X0240500Y0300095D02*
X0234600Y0300095D01*
X0234600Y0299097D02*
X0240500Y0299097D01*
X0240500Y0298098D02*
X0234600Y0298098D01*
X0234600Y0297100D02*
X0240500Y0297100D01*
X0240500Y0296101D02*
X0234600Y0296101D01*
X0234600Y0295103D02*
X0240500Y0295103D01*
X0240500Y0294104D02*
X0234600Y0294104D01*
X0234600Y0293105D02*
X0240500Y0293105D01*
X0240500Y0292107D02*
X0234600Y0292107D01*
X0234600Y0291108D02*
X0240500Y0291108D01*
X0240500Y0290110D02*
X0234600Y0290110D01*
X0234600Y0289111D02*
X0240500Y0289111D01*
X0240500Y0288113D02*
X0234600Y0288113D01*
X0234600Y0287114D02*
X0240500Y0287114D01*
X0240500Y0286116D02*
X0234600Y0286116D01*
X0234600Y0285117D02*
X0240500Y0285117D01*
X0240500Y0284119D02*
X0234600Y0284119D01*
X0234600Y0283120D02*
X0240500Y0283120D01*
X0240500Y0282122D02*
X0234600Y0282122D01*
X0234600Y0281123D02*
X0240500Y0281123D01*
X0240500Y0280125D02*
X0234600Y0280125D01*
X0234600Y0279126D02*
X0240500Y0279126D01*
X0240500Y0278128D02*
X0234600Y0278128D01*
X0234600Y0277129D02*
X0240500Y0277129D01*
X0240500Y0276131D02*
X0234600Y0276131D01*
X0234600Y0275132D02*
X0240500Y0275132D01*
X0240500Y0274134D02*
X0234600Y0274134D01*
X0234600Y0273135D02*
X0240500Y0273135D01*
X0240500Y0272137D02*
X0234600Y0272137D01*
X0234600Y0271138D02*
X0241033Y0271138D01*
X0241672Y0270500D02*
X0241672Y0270500D01*
X0242032Y0270140D02*
X0234600Y0270140D01*
X0234600Y0269141D02*
X0243030Y0269141D01*
X0243500Y0268143D02*
X0234600Y0268143D01*
X0234600Y0267144D02*
X0243500Y0267144D01*
X0243500Y0266146D02*
X0234600Y0266146D01*
X0234600Y0265147D02*
X0243500Y0265147D01*
X0243500Y0264149D02*
X0234600Y0264149D01*
X0234600Y0263150D02*
X0243500Y0263150D01*
X0243500Y0262152D02*
X0234600Y0262152D01*
X0234600Y0261153D02*
X0242999Y0261153D01*
X0242550Y0260155D02*
X0234600Y0260155D01*
X0234600Y0259156D02*
X0242550Y0259156D01*
X0242550Y0258158D02*
X0234600Y0258158D01*
X0234600Y0257159D02*
X0242550Y0257159D01*
X0242550Y0256161D02*
X0234600Y0256161D01*
X0234600Y0255162D02*
X0242550Y0255162D01*
X0242682Y0254164D02*
X0234600Y0254164D01*
X0246000Y0257500D02*
X0249000Y0257500D01*
X0242670Y0241704D02*
X0242670Y0241704D01*
X0240410Y0241183D02*
X0239988Y0241183D01*
X0239467Y0241704D02*
X0239467Y0241704D01*
X0238066Y0241704D02*
X0238066Y0241704D01*
X0235806Y0241183D02*
X0234600Y0241183D01*
X0235096Y0240473D02*
X0235096Y0240473D01*
X0234807Y0240184D02*
X0234600Y0240184D01*
X0247709Y0228400D02*
X0317291Y0228400D01*
X0315188Y0226635D01*
X0313531Y0223765D01*
X0312955Y0220500D01*
X0312955Y0220500D01*
X0313531Y0217235D01*
X0315188Y0214365D01*
X0315188Y0214365D01*
X0317727Y0212234D01*
X0317727Y0212234D01*
X0320843Y0211100D01*
X0324157Y0211100D01*
X0327272Y0212234D01*
X0329812Y0214365D01*
X0330400Y0215383D01*
X0330400Y0136613D01*
X0329587Y0136950D01*
X0328413Y0136950D01*
X0327329Y0136501D01*
X0326499Y0135671D01*
X0326050Y0134587D01*
X0326050Y0133413D01*
X0326387Y0132600D01*
X0312144Y0132600D01*
X0312900Y0134426D01*
X0312900Y0136574D01*
X0312078Y0138559D01*
X0310559Y0140078D01*
X0309500Y0140516D01*
X0309500Y0161328D01*
X0308328Y0162500D01*
X0303328Y0167500D01*
X0284743Y0167500D01*
X0284199Y0168043D01*
X0283097Y0168500D01*
X0281903Y0168500D01*
X0280801Y0168043D01*
X0279957Y0167199D01*
X0279500Y0166097D01*
X0279500Y0164903D01*
X0279957Y0163801D01*
X0280801Y0162957D01*
X0281903Y0162500D01*
X0283097Y0162500D01*
X0284199Y0162957D01*
X0284743Y0163500D01*
X0301672Y0163500D01*
X0305500Y0159672D01*
X0305500Y0140516D01*
X0304441Y0140078D01*
X0302922Y0138559D01*
X0302500Y0137540D01*
X0302078Y0138559D01*
X0300559Y0140078D01*
X0299500Y0140516D01*
X0299500Y0156328D01*
X0294500Y0161328D01*
X0293328Y0162500D01*
X0273328Y0162500D01*
X0269500Y0166328D01*
X0269500Y0178257D01*
X0270043Y0178801D01*
X0270500Y0179903D01*
X0270500Y0181097D01*
X0270043Y0182199D01*
X0269199Y0183043D01*
X0268097Y0183500D01*
X0266903Y0183500D01*
X0265801Y0183043D01*
X0264957Y0182199D01*
X0264500Y0181097D01*
X0264500Y0179903D01*
X0264957Y0178801D01*
X0265500Y0178257D01*
X0265500Y0164672D01*
X0266672Y0163500D01*
X0271672Y0158500D01*
X0291672Y0158500D01*
X0295500Y0154672D01*
X0295500Y0140516D01*
X0294441Y0140078D01*
X0292922Y0138559D01*
X0292500Y0137540D01*
X0292078Y0138559D01*
X0290559Y0140078D01*
X0288574Y0140900D01*
X0286426Y0140900D01*
X0284441Y0140078D01*
X0282922Y0138559D01*
X0282500Y0137540D01*
X0282078Y0138559D01*
X0280559Y0140078D01*
X0278574Y0140900D01*
X0276426Y0140900D01*
X0274441Y0140078D01*
X0272922Y0138559D01*
X0272500Y0137540D01*
X0272078Y0138559D01*
X0270559Y0140078D01*
X0268574Y0140900D01*
X0266426Y0140900D01*
X0264441Y0140078D01*
X0262922Y0138559D01*
X0262391Y0137276D01*
X0262319Y0137496D01*
X0261947Y0138225D01*
X0261466Y0138888D01*
X0260888Y0139466D01*
X0260225Y0139947D01*
X0259496Y0140319D01*
X0258718Y0140572D01*
X0258000Y0140686D01*
X0258000Y0136000D01*
X0257000Y0136000D01*
X0257000Y0140686D01*
X0256282Y0140572D01*
X0255504Y0140319D01*
X0254775Y0139947D01*
X0254112Y0139466D01*
X0253534Y0138888D01*
X0253053Y0138225D01*
X0252681Y0137496D01*
X0252428Y0136718D01*
X0252314Y0136000D01*
X0257000Y0136000D01*
X0257000Y0135000D01*
X0252314Y0135000D01*
X0252428Y0134282D01*
X0252681Y0133504D01*
X0253053Y0132775D01*
X0253179Y0132600D01*
X0250487Y0132600D01*
X0250736Y0133841D01*
X0249629Y0135502D01*
X0250736Y0137162D01*
X0250395Y0138868D01*
X0248947Y0139833D01*
X0247241Y0139492D01*
X0247105Y0139288D01*
X0246968Y0139492D01*
X0245262Y0139833D01*
X0244470Y0139305D01*
X0244071Y0139704D01*
X0242670Y0139704D01*
X0242492Y0139704D01*
X0242332Y0139704D01*
X0242332Y0139704D01*
X0240930Y0139704D01*
X0240930Y0139704D01*
X0240916Y0139690D01*
X0240199Y0138972D01*
X0239481Y0139690D01*
X0239467Y0139704D01*
X0238066Y0139704D01*
X0237906Y0139704D01*
X0237728Y0139704D01*
X0237728Y0139704D01*
X0236326Y0139704D01*
X0235096Y0138473D01*
X0234600Y0137977D01*
X0234600Y0215383D01*
X0235188Y0214365D01*
X0235188Y0214365D01*
X0237727Y0212234D01*
X0237727Y0212234D01*
X0240843Y0211100D01*
X0244157Y0211100D01*
X0247272Y0212234D01*
X0247273Y0212234D01*
X0249812Y0214365D01*
X0251469Y0217235D01*
X0251469Y0217235D01*
X0252045Y0220500D01*
X0251469Y0223765D01*
X0249812Y0226635D01*
X0249812Y0226635D01*
X0247709Y0228400D01*
X0247945Y0228202D02*
X0317055Y0228202D01*
X0315865Y0227204D02*
X0249135Y0227204D01*
X0250060Y0226205D02*
X0314940Y0226205D01*
X0315188Y0226635D02*
X0315188Y0226635D01*
X0315188Y0226635D01*
X0314363Y0225207D02*
X0250637Y0225207D01*
X0251213Y0224208D02*
X0313787Y0224208D01*
X0313531Y0223765D02*
X0313531Y0223765D01*
X0313433Y0223210D02*
X0251567Y0223210D01*
X0251469Y0223765D02*
X0251469Y0223765D01*
X0251743Y0222211D02*
X0313257Y0222211D01*
X0313081Y0221213D02*
X0251919Y0221213D01*
X0252045Y0220500D02*
X0252045Y0220500D01*
X0251995Y0220214D02*
X0313005Y0220214D01*
X0313181Y0219216D02*
X0251819Y0219216D01*
X0251642Y0218217D02*
X0313358Y0218217D01*
X0313531Y0217235D02*
X0313531Y0217235D01*
X0313540Y0217219D02*
X0251460Y0217219D01*
X0250883Y0216220D02*
X0314117Y0216220D01*
X0314693Y0215222D02*
X0250307Y0215222D01*
X0249812Y0214365D02*
X0249812Y0214365D01*
X0249812Y0214365D01*
X0249643Y0214223D02*
X0315357Y0214223D01*
X0316547Y0213225D02*
X0248453Y0213225D01*
X0247251Y0212226D02*
X0317749Y0212226D01*
X0320492Y0211228D02*
X0244508Y0211228D01*
X0240492Y0211228D02*
X0234600Y0211228D01*
X0234600Y0212226D02*
X0237749Y0212226D01*
X0236547Y0213225D02*
X0234600Y0213225D01*
X0234600Y0214223D02*
X0235357Y0214223D01*
X0234693Y0215222D02*
X0234600Y0215222D01*
X0234600Y0210229D02*
X0330400Y0210229D01*
X0330400Y0209231D02*
X0234600Y0209231D01*
X0234600Y0208232D02*
X0330400Y0208232D01*
X0330400Y0207234D02*
X0234600Y0207234D01*
X0234600Y0206235D02*
X0244407Y0206235D01*
X0245172Y0207000D02*
X0241672Y0203500D01*
X0240500Y0202328D01*
X0240500Y0169672D01*
X0241672Y0168500D01*
X0243500Y0166672D01*
X0243500Y0159654D01*
X0242550Y0158704D01*
X0242550Y0152296D01*
X0243500Y0151346D01*
X0243500Y0143172D01*
X0244664Y0142008D01*
X0244957Y0141301D01*
X0245801Y0140457D01*
X0246903Y0140000D01*
X0248097Y0140000D01*
X0249199Y0140457D01*
X0250043Y0141301D01*
X0250500Y0142403D01*
X0250500Y0143597D01*
X0250043Y0144699D01*
X0249199Y0145543D01*
X0248097Y0146000D01*
X0247500Y0146000D01*
X0247500Y0151346D01*
X0247546Y0151300D01*
X0251454Y0151300D01*
X0252450Y0152296D01*
X0252450Y0153500D01*
X0257328Y0153500D01*
X0263000Y0159172D01*
X0263000Y0182828D01*
X0261500Y0184328D01*
X0261500Y0185097D01*
X0261126Y0186000D01*
X0270257Y0186000D01*
X0270801Y0185457D01*
X0271903Y0185000D01*
X0273097Y0185000D01*
X0274199Y0185457D01*
X0274743Y0186000D01*
X0302257Y0186000D01*
X0302801Y0185457D01*
X0303903Y0185000D01*
X0305097Y0185000D01*
X0306199Y0185457D01*
X0307043Y0186301D01*
X0307500Y0187403D01*
X0307500Y0188597D01*
X0307043Y0189699D01*
X0306199Y0190543D01*
X0305097Y0191000D01*
X0303903Y0191000D01*
X0302801Y0190543D01*
X0302257Y0190000D01*
X0274743Y0190000D01*
X0274500Y0190243D01*
X0274500Y0198257D01*
X0275043Y0198801D01*
X0275500Y0199903D01*
X0275500Y0201000D01*
X0276500Y0201000D01*
X0276500Y0199654D01*
X0275550Y0198704D01*
X0275550Y0192296D01*
X0276546Y0191300D01*
X0280454Y0191300D01*
X0280500Y0191346D01*
X0280546Y0191300D01*
X0284454Y0191300D01*
X0284500Y0191346D01*
X0284546Y0191300D01*
X0288454Y0191300D01*
X0289450Y0192296D01*
X0289450Y0193500D01*
X0290521Y0193500D01*
X0295675Y0198654D01*
X0296443Y0198654D01*
X0297546Y0199110D01*
X0298390Y0199954D01*
X0298846Y0201057D01*
X0298846Y0202250D01*
X0298390Y0203353D01*
X0297546Y0204197D01*
X0296443Y0204654D01*
X0295250Y0204654D01*
X0294147Y0204197D01*
X0293303Y0203353D01*
X0292846Y0202250D01*
X0292846Y0201482D01*
X0289450Y0198085D01*
X0289450Y0198704D01*
X0288454Y0199700D01*
X0284546Y0199700D01*
X0284500Y0199654D01*
X0284500Y0199654D01*
X0284500Y0204328D01*
X0283000Y0205828D01*
X0281828Y0207000D01*
X0245172Y0207000D01*
X0243408Y0205237D02*
X0234600Y0205237D01*
X0234600Y0204238D02*
X0242410Y0204238D01*
X0241411Y0203239D02*
X0234600Y0203239D01*
X0234600Y0202241D02*
X0240500Y0202241D01*
X0240500Y0201242D02*
X0234600Y0201242D01*
X0234600Y0200244D02*
X0240500Y0200244D01*
X0240500Y0199245D02*
X0234600Y0199245D01*
X0234600Y0198247D02*
X0240500Y0198247D01*
X0240500Y0197248D02*
X0234600Y0197248D01*
X0234600Y0196250D02*
X0240500Y0196250D01*
X0240500Y0195251D02*
X0234600Y0195251D01*
X0234600Y0194253D02*
X0240500Y0194253D01*
X0240500Y0193254D02*
X0234600Y0193254D01*
X0234600Y0192256D02*
X0240500Y0192256D01*
X0240500Y0191257D02*
X0234600Y0191257D01*
X0234600Y0190259D02*
X0240500Y0190259D01*
X0240500Y0189260D02*
X0234600Y0189260D01*
X0234600Y0188262D02*
X0240500Y0188262D01*
X0240500Y0187263D02*
X0234600Y0187263D01*
X0234600Y0186265D02*
X0240500Y0186265D01*
X0240500Y0185266D02*
X0234600Y0185266D01*
X0234600Y0184268D02*
X0240500Y0184268D01*
X0240500Y0183269D02*
X0234600Y0183269D01*
X0234600Y0182271D02*
X0240500Y0182271D01*
X0240500Y0181272D02*
X0234600Y0181272D01*
X0234600Y0180274D02*
X0240500Y0180274D01*
X0240500Y0179275D02*
X0234600Y0179275D01*
X0234600Y0178277D02*
X0240500Y0178277D01*
X0240500Y0177278D02*
X0234600Y0177278D01*
X0234600Y0176280D02*
X0240500Y0176280D01*
X0240500Y0175281D02*
X0234600Y0175281D01*
X0234600Y0174283D02*
X0240500Y0174283D01*
X0240500Y0173284D02*
X0234600Y0173284D01*
X0234600Y0172286D02*
X0240500Y0172286D01*
X0240500Y0171287D02*
X0234600Y0171287D01*
X0234600Y0170289D02*
X0240500Y0170289D01*
X0240881Y0169290D02*
X0234600Y0169290D01*
X0234600Y0168292D02*
X0241880Y0168292D01*
X0242878Y0167293D02*
X0234600Y0167293D01*
X0234600Y0166295D02*
X0243500Y0166295D01*
X0243500Y0165296D02*
X0234600Y0165296D01*
X0234600Y0164298D02*
X0243500Y0164298D01*
X0243500Y0163299D02*
X0234600Y0163299D01*
X0234600Y0162301D02*
X0243500Y0162301D01*
X0243500Y0161302D02*
X0234600Y0161302D01*
X0234600Y0160303D02*
X0243500Y0160303D01*
X0243151Y0159305D02*
X0234600Y0159305D01*
X0234600Y0158306D02*
X0242550Y0158306D01*
X0242550Y0157308D02*
X0234600Y0157308D01*
X0234600Y0156309D02*
X0242550Y0156309D01*
X0242550Y0155311D02*
X0234600Y0155311D01*
X0234600Y0154312D02*
X0242550Y0154312D01*
X0242550Y0153314D02*
X0234600Y0153314D01*
X0234600Y0152315D02*
X0242550Y0152315D01*
X0243500Y0151317D02*
X0234600Y0151317D01*
X0234600Y0150318D02*
X0243500Y0150318D01*
X0243500Y0149320D02*
X0234600Y0149320D01*
X0234600Y0148321D02*
X0243500Y0148321D01*
X0243500Y0147323D02*
X0234600Y0147323D01*
X0234600Y0146324D02*
X0243500Y0146324D01*
X0243500Y0145326D02*
X0234600Y0145326D01*
X0234600Y0144327D02*
X0243500Y0144327D01*
X0243500Y0143329D02*
X0234600Y0143329D01*
X0234600Y0142330D02*
X0244341Y0142330D01*
X0244944Y0141332D02*
X0234600Y0141332D01*
X0234600Y0140333D02*
X0246099Y0140333D01*
X0247073Y0139335D02*
X0247136Y0139335D01*
X0248901Y0140333D02*
X0255548Y0140333D01*
X0257000Y0140333D02*
X0258000Y0140333D01*
X0258000Y0139335D02*
X0257000Y0139335D01*
X0257000Y0138336D02*
X0258000Y0138336D01*
X0258000Y0137338D02*
X0257000Y0137338D01*
X0257000Y0136339D02*
X0258000Y0136339D01*
X0257000Y0135341D02*
X0249736Y0135341D01*
X0250187Y0136339D02*
X0252368Y0136339D01*
X0252630Y0137338D02*
X0250701Y0137338D01*
X0250501Y0138336D02*
X0253133Y0138336D01*
X0253981Y0139335D02*
X0249695Y0139335D01*
X0250056Y0141332D02*
X0295500Y0141332D01*
X0295500Y0142330D02*
X0250470Y0142330D01*
X0250500Y0143329D02*
X0295500Y0143329D01*
X0295500Y0144327D02*
X0250197Y0144327D01*
X0249417Y0145326D02*
X0295500Y0145326D01*
X0295500Y0146324D02*
X0247500Y0146324D01*
X0247500Y0147323D02*
X0295500Y0147323D01*
X0295500Y0148321D02*
X0247500Y0148321D01*
X0247500Y0149320D02*
X0295500Y0149320D01*
X0295500Y0150318D02*
X0247500Y0150318D01*
X0247500Y0151317D02*
X0247529Y0151317D01*
X0247500Y0151346D02*
X0247500Y0151346D01*
X0251471Y0151317D02*
X0295500Y0151317D01*
X0295500Y0152315D02*
X0252450Y0152315D01*
X0252450Y0153314D02*
X0295500Y0153314D01*
X0295500Y0154312D02*
X0258141Y0154312D01*
X0259139Y0155311D02*
X0294861Y0155311D01*
X0293862Y0156309D02*
X0260138Y0156309D01*
X0261136Y0157308D02*
X0292864Y0157308D01*
X0291865Y0158306D02*
X0262135Y0158306D01*
X0263000Y0159305D02*
X0270867Y0159305D01*
X0269868Y0160303D02*
X0263000Y0160303D01*
X0263000Y0161302D02*
X0268870Y0161302D01*
X0267871Y0162301D02*
X0263000Y0162301D01*
X0263000Y0163299D02*
X0266873Y0163299D01*
X0265874Y0164298D02*
X0263000Y0164298D01*
X0263000Y0165296D02*
X0265500Y0165296D01*
X0265500Y0166295D02*
X0263000Y0166295D01*
X0263000Y0167293D02*
X0265500Y0167293D01*
X0265500Y0168292D02*
X0263000Y0168292D01*
X0263000Y0169290D02*
X0265500Y0169290D01*
X0265500Y0170289D02*
X0263000Y0170289D01*
X0263000Y0171287D02*
X0265500Y0171287D01*
X0265500Y0172286D02*
X0263000Y0172286D01*
X0263000Y0173284D02*
X0265500Y0173284D01*
X0265500Y0174283D02*
X0263000Y0174283D01*
X0263000Y0175281D02*
X0265500Y0175281D01*
X0265500Y0176280D02*
X0263000Y0176280D01*
X0263000Y0177278D02*
X0265500Y0177278D01*
X0265481Y0178277D02*
X0263000Y0178277D01*
X0263000Y0179275D02*
X0264760Y0179275D01*
X0264500Y0180274D02*
X0263000Y0180274D01*
X0263000Y0181272D02*
X0264573Y0181272D01*
X0265028Y0182271D02*
X0263000Y0182271D01*
X0262559Y0183269D02*
X0266346Y0183269D01*
X0268654Y0183269D02*
X0330400Y0183269D01*
X0330400Y0182271D02*
X0269972Y0182271D01*
X0270427Y0181272D02*
X0330400Y0181272D01*
X0330400Y0180274D02*
X0270500Y0180274D01*
X0270240Y0179275D02*
X0330400Y0179275D01*
X0330400Y0178277D02*
X0269519Y0178277D01*
X0269500Y0177278D02*
X0330400Y0177278D01*
X0330400Y0176280D02*
X0269500Y0176280D01*
X0269500Y0175281D02*
X0330400Y0175281D01*
X0330400Y0174283D02*
X0269500Y0174283D01*
X0269500Y0173284D02*
X0330400Y0173284D01*
X0330400Y0172286D02*
X0269500Y0172286D01*
X0269500Y0171287D02*
X0330400Y0171287D01*
X0330400Y0170289D02*
X0269500Y0170289D01*
X0269500Y0169290D02*
X0330400Y0169290D01*
X0330400Y0168292D02*
X0283600Y0168292D01*
X0281400Y0168292D02*
X0269500Y0168292D01*
X0269500Y0167293D02*
X0280050Y0167293D01*
X0279582Y0166295D02*
X0269534Y0166295D01*
X0270532Y0165296D02*
X0279500Y0165296D01*
X0279751Y0164298D02*
X0271531Y0164298D01*
X0272529Y0163299D02*
X0280458Y0163299D01*
X0284542Y0163299D02*
X0301873Y0163299D01*
X0302871Y0162301D02*
X0293528Y0162301D01*
X0294526Y0161302D02*
X0303870Y0161302D01*
X0304868Y0160303D02*
X0295525Y0160303D01*
X0296523Y0159305D02*
X0305500Y0159305D01*
X0305500Y0158306D02*
X0297522Y0158306D01*
X0298520Y0157308D02*
X0305500Y0157308D01*
X0305500Y0156309D02*
X0299500Y0156309D01*
X0299500Y0155311D02*
X0305500Y0155311D01*
X0305500Y0154312D02*
X0299500Y0154312D01*
X0299500Y0153314D02*
X0305500Y0153314D01*
X0305500Y0152315D02*
X0299500Y0152315D01*
X0299500Y0151317D02*
X0305500Y0151317D01*
X0305500Y0150318D02*
X0299500Y0150318D01*
X0299500Y0149320D02*
X0305500Y0149320D01*
X0305500Y0148321D02*
X0299500Y0148321D01*
X0299500Y0147323D02*
X0305500Y0147323D01*
X0305500Y0146324D02*
X0299500Y0146324D01*
X0299500Y0145326D02*
X0305500Y0145326D01*
X0305500Y0144327D02*
X0299500Y0144327D01*
X0299500Y0143329D02*
X0305500Y0143329D01*
X0305500Y0142330D02*
X0299500Y0142330D01*
X0299500Y0141332D02*
X0305500Y0141332D01*
X0305058Y0140333D02*
X0299942Y0140333D01*
X0301302Y0139335D02*
X0303698Y0139335D01*
X0302830Y0138336D02*
X0302170Y0138336D01*
X0295058Y0140333D02*
X0289942Y0140333D01*
X0291302Y0139335D02*
X0293698Y0139335D01*
X0292830Y0138336D02*
X0292170Y0138336D01*
X0285058Y0140333D02*
X0279942Y0140333D01*
X0281302Y0139335D02*
X0283698Y0139335D01*
X0282830Y0138336D02*
X0282170Y0138336D01*
X0275058Y0140333D02*
X0269942Y0140333D01*
X0271302Y0139335D02*
X0273698Y0139335D01*
X0272830Y0138336D02*
X0272170Y0138336D01*
X0265058Y0140333D02*
X0259452Y0140333D01*
X0261019Y0139335D02*
X0263698Y0139335D01*
X0262830Y0138336D02*
X0261867Y0138336D01*
X0262370Y0137338D02*
X0262416Y0137338D01*
X0252763Y0133344D02*
X0250636Y0133344D01*
X0250402Y0134342D02*
X0252419Y0134342D01*
X0247709Y0126400D02*
X0317291Y0126400D01*
X0315188Y0124635D01*
X0313531Y0121765D01*
X0312955Y0118500D01*
X0312955Y0118500D01*
X0313531Y0115235D01*
X0315188Y0112365D01*
X0315188Y0112365D01*
X0317727Y0110234D01*
X0317727Y0110234D01*
X0320843Y0109100D01*
X0324157Y0109100D01*
X0327272Y0110234D01*
X0327273Y0110234D01*
X0329812Y0112365D01*
X0330400Y0113383D01*
X0330400Y0034613D01*
X0329587Y0034950D01*
X0328413Y0034950D01*
X0327329Y0034501D01*
X0326499Y0033671D01*
X0326050Y0032587D01*
X0326050Y0031413D01*
X0326387Y0030600D01*
X0312144Y0030600D01*
X0312900Y0032426D01*
X0312900Y0034574D01*
X0312078Y0036559D01*
X0310559Y0038078D01*
X0309500Y0038516D01*
X0309500Y0059328D01*
X0308328Y0060500D01*
X0303328Y0065500D01*
X0284743Y0065500D01*
X0284199Y0066043D01*
X0283097Y0066500D01*
X0281903Y0066500D01*
X0280801Y0066043D01*
X0279957Y0065199D01*
X0279500Y0064097D01*
X0279500Y0062903D01*
X0279957Y0061801D01*
X0280801Y0060957D01*
X0281903Y0060500D01*
X0283097Y0060500D01*
X0284199Y0060957D01*
X0284743Y0061500D01*
X0301672Y0061500D01*
X0305500Y0057672D01*
X0305500Y0038516D01*
X0304441Y0038078D01*
X0302922Y0036559D01*
X0302500Y0035540D01*
X0302078Y0036559D01*
X0300559Y0038078D01*
X0299500Y0038516D01*
X0299500Y0054328D01*
X0294500Y0059328D01*
X0293328Y0060500D01*
X0273328Y0060500D01*
X0269500Y0064328D01*
X0269500Y0076257D01*
X0270043Y0076801D01*
X0270500Y0077903D01*
X0270500Y0079097D01*
X0270043Y0080199D01*
X0269199Y0081043D01*
X0268097Y0081500D01*
X0266903Y0081500D01*
X0265801Y0081043D01*
X0264957Y0080199D01*
X0264500Y0079097D01*
X0264500Y0077903D01*
X0264957Y0076801D01*
X0265500Y0076257D01*
X0265500Y0062672D01*
X0266672Y0061500D01*
X0271672Y0056500D01*
X0291672Y0056500D01*
X0295500Y0052672D01*
X0295500Y0038516D01*
X0294441Y0038078D01*
X0292922Y0036559D01*
X0292500Y0035540D01*
X0292078Y0036559D01*
X0290559Y0038078D01*
X0288574Y0038900D01*
X0286426Y0038900D01*
X0284441Y0038078D01*
X0282922Y0036559D01*
X0282500Y0035540D01*
X0282078Y0036559D01*
X0280559Y0038078D01*
X0278574Y0038900D01*
X0276426Y0038900D01*
X0274441Y0038078D01*
X0272922Y0036559D01*
X0272500Y0035540D01*
X0272078Y0036559D01*
X0270559Y0038078D01*
X0268574Y0038900D01*
X0266426Y0038900D01*
X0264441Y0038078D01*
X0262922Y0036559D01*
X0262391Y0035276D01*
X0262319Y0035496D01*
X0261947Y0036225D01*
X0261466Y0036888D01*
X0260888Y0037466D01*
X0260225Y0037947D01*
X0259496Y0038319D01*
X0258718Y0038572D01*
X0258000Y0038686D01*
X0258000Y0034000D01*
X0257000Y0034000D01*
X0257000Y0038686D01*
X0256282Y0038572D01*
X0255504Y0038319D01*
X0254775Y0037947D01*
X0254112Y0037466D01*
X0253534Y0036888D01*
X0253053Y0036225D01*
X0252681Y0035496D01*
X0252428Y0034718D01*
X0252314Y0034000D01*
X0257000Y0034000D01*
X0257000Y0033000D01*
X0252314Y0033000D01*
X0252428Y0032282D01*
X0252681Y0031504D01*
X0253053Y0030775D01*
X0253179Y0030600D01*
X0250487Y0030600D01*
X0250736Y0031841D01*
X0249629Y0033502D01*
X0250736Y0035162D01*
X0250395Y0036868D01*
X0248947Y0037833D01*
X0247241Y0037492D01*
X0247105Y0037288D01*
X0246968Y0037492D01*
X0245262Y0037833D01*
X0244470Y0037305D01*
X0244071Y0037704D01*
X0242670Y0037704D01*
X0242492Y0037704D01*
X0242332Y0037704D01*
X0242332Y0037704D01*
X0240930Y0037704D01*
X0240930Y0037704D01*
X0240916Y0037690D01*
X0240199Y0036972D01*
X0239481Y0037690D01*
X0239467Y0037704D01*
X0238066Y0037704D01*
X0237728Y0037704D01*
X0237728Y0037704D01*
X0236326Y0037704D01*
X0235096Y0036473D01*
X0234600Y0035977D01*
X0234600Y0113383D01*
X0235188Y0112365D01*
X0237727Y0110234D01*
X0237727Y0110234D01*
X0240843Y0109100D01*
X0244157Y0109100D01*
X0247272Y0110234D01*
X0247273Y0110234D01*
X0249812Y0112365D01*
X0251469Y0115235D01*
X0251469Y0115235D01*
X0252045Y0118500D01*
X0251469Y0121765D01*
X0249812Y0124635D01*
X0249812Y0124635D01*
X0247709Y0126400D01*
X0247764Y0126354D02*
X0317236Y0126354D01*
X0316046Y0125356D02*
X0248954Y0125356D01*
X0249973Y0124357D02*
X0315027Y0124357D01*
X0315188Y0124635D02*
X0315188Y0124635D01*
X0315188Y0124635D01*
X0314451Y0123359D02*
X0250549Y0123359D01*
X0251126Y0122360D02*
X0313874Y0122360D01*
X0313531Y0121765D02*
X0313531Y0121765D01*
X0313460Y0121362D02*
X0251540Y0121362D01*
X0251469Y0121765D02*
X0251469Y0121765D01*
X0251716Y0120363D02*
X0313284Y0120363D01*
X0313107Y0119365D02*
X0251893Y0119365D01*
X0252045Y0118500D02*
X0252045Y0118500D01*
X0252021Y0118366D02*
X0312979Y0118366D01*
X0313155Y0117368D02*
X0251845Y0117368D01*
X0251669Y0116369D02*
X0313331Y0116369D01*
X0313507Y0115370D02*
X0251493Y0115370D01*
X0250971Y0114372D02*
X0314029Y0114372D01*
X0313531Y0115235D02*
X0313531Y0115235D01*
X0314606Y0113373D02*
X0250394Y0113373D01*
X0249818Y0112375D02*
X0315182Y0112375D01*
X0316366Y0111376D02*
X0248634Y0111376D01*
X0249812Y0112365D02*
X0249812Y0112365D01*
X0249812Y0112365D01*
X0247444Y0110378D02*
X0317556Y0110378D01*
X0320075Y0109379D02*
X0244925Y0109379D01*
X0245172Y0105000D02*
X0241672Y0101500D01*
X0240500Y0100328D01*
X0240500Y0067672D01*
X0241672Y0066500D01*
X0243500Y0064672D01*
X0243500Y0057654D01*
X0242550Y0056704D01*
X0242550Y0050296D01*
X0243500Y0049346D01*
X0243500Y0041172D01*
X0244664Y0040008D01*
X0244957Y0039301D01*
X0245801Y0038457D01*
X0246903Y0038000D01*
X0248097Y0038000D01*
X0249199Y0038457D01*
X0250043Y0039301D01*
X0250500Y0040403D01*
X0250500Y0041597D01*
X0250043Y0042699D01*
X0249199Y0043543D01*
X0248097Y0044000D01*
X0247500Y0044000D01*
X0247500Y0049346D01*
X0247546Y0049300D01*
X0251454Y0049300D01*
X0252450Y0050296D01*
X0252450Y0051500D01*
X0257328Y0051500D01*
X0263000Y0057172D01*
X0263000Y0080828D01*
X0261500Y0082328D01*
X0261500Y0083097D01*
X0261126Y0084000D01*
X0270257Y0084000D01*
X0270801Y0083457D01*
X0271903Y0083000D01*
X0273097Y0083000D01*
X0274199Y0083457D01*
X0274743Y0084000D01*
X0302257Y0084000D01*
X0302801Y0083457D01*
X0303903Y0083000D01*
X0305097Y0083000D01*
X0306199Y0083457D01*
X0307043Y0084301D01*
X0307500Y0085403D01*
X0307500Y0086597D01*
X0307043Y0087699D01*
X0306199Y0088543D01*
X0305097Y0089000D01*
X0303903Y0089000D01*
X0302801Y0088543D01*
X0302257Y0088000D01*
X0274743Y0088000D01*
X0274500Y0088243D01*
X0274500Y0096257D01*
X0275043Y0096801D01*
X0275500Y0097903D01*
X0275500Y0099000D01*
X0276500Y0099000D01*
X0276500Y0097654D01*
X0275550Y0096704D01*
X0275550Y0090296D01*
X0276546Y0089300D01*
X0280454Y0089300D01*
X0280500Y0089346D01*
X0280546Y0089300D01*
X0284454Y0089300D01*
X0284500Y0089346D01*
X0284546Y0089300D01*
X0288454Y0089300D01*
X0289450Y0090296D01*
X0289450Y0091500D01*
X0290521Y0091500D01*
X0295675Y0096654D01*
X0296443Y0096654D01*
X0297546Y0097110D01*
X0298390Y0097954D01*
X0298846Y0099057D01*
X0298846Y0100250D01*
X0298390Y0101353D01*
X0297546Y0102197D01*
X0296443Y0102654D01*
X0295250Y0102654D01*
X0294147Y0102197D01*
X0293303Y0101353D01*
X0292846Y0100250D01*
X0292846Y0099482D01*
X0289450Y0096085D01*
X0289450Y0096704D01*
X0288454Y0097700D01*
X0284546Y0097700D01*
X0284500Y0097654D01*
X0284500Y0102328D01*
X0283000Y0103828D01*
X0281828Y0105000D01*
X0245172Y0105000D01*
X0244558Y0104387D02*
X0234600Y0104387D01*
X0234600Y0105385D02*
X0330400Y0105385D01*
X0330400Y0104387D02*
X0282442Y0104387D01*
X0283440Y0103388D02*
X0330400Y0103388D01*
X0330400Y0102390D02*
X0297080Y0102390D01*
X0298351Y0101391D02*
X0330400Y0101391D01*
X0330400Y0100393D02*
X0298787Y0100393D01*
X0298846Y0099394D02*
X0330400Y0099394D01*
X0330400Y0098396D02*
X0298573Y0098396D01*
X0297833Y0097397D02*
X0330400Y0097397D01*
X0330400Y0096399D02*
X0295420Y0096399D01*
X0294422Y0095400D02*
X0330400Y0095400D01*
X0330400Y0094402D02*
X0293423Y0094402D01*
X0292425Y0093403D02*
X0330400Y0093403D01*
X0330400Y0092405D02*
X0291426Y0092405D01*
X0289450Y0091406D02*
X0330400Y0091406D01*
X0330400Y0090408D02*
X0289450Y0090408D01*
X0288563Y0089409D02*
X0330400Y0089409D01*
X0330400Y0088411D02*
X0306332Y0088411D01*
X0307162Y0087412D02*
X0330400Y0087412D01*
X0330400Y0086414D02*
X0307500Y0086414D01*
X0307500Y0085415D02*
X0330400Y0085415D01*
X0330400Y0084417D02*
X0307091Y0084417D01*
X0306106Y0083418D02*
X0330400Y0083418D01*
X0330400Y0082420D02*
X0261500Y0082420D01*
X0261367Y0083418D02*
X0270894Y0083418D01*
X0269820Y0080423D02*
X0330400Y0080423D01*
X0330400Y0081421D02*
X0268287Y0081421D01*
X0266713Y0081421D02*
X0262407Y0081421D01*
X0263000Y0080423D02*
X0265180Y0080423D01*
X0264636Y0079424D02*
X0263000Y0079424D01*
X0263000Y0078426D02*
X0264500Y0078426D01*
X0264697Y0077427D02*
X0263000Y0077427D01*
X0263000Y0076429D02*
X0265329Y0076429D01*
X0265500Y0075430D02*
X0263000Y0075430D01*
X0263000Y0074432D02*
X0265500Y0074432D01*
X0265500Y0073433D02*
X0263000Y0073433D01*
X0263000Y0072434D02*
X0265500Y0072434D01*
X0265500Y0071436D02*
X0263000Y0071436D01*
X0263000Y0070437D02*
X0265500Y0070437D01*
X0265500Y0069439D02*
X0263000Y0069439D01*
X0263000Y0068440D02*
X0265500Y0068440D01*
X0265500Y0067442D02*
X0263000Y0067442D01*
X0263000Y0066443D02*
X0265500Y0066443D01*
X0265500Y0065445D02*
X0263000Y0065445D01*
X0263000Y0064446D02*
X0265500Y0064446D01*
X0265500Y0063448D02*
X0263000Y0063448D01*
X0263000Y0062449D02*
X0265722Y0062449D01*
X0266721Y0061451D02*
X0263000Y0061451D01*
X0263000Y0060452D02*
X0267719Y0060452D01*
X0268718Y0059454D02*
X0263000Y0059454D01*
X0263000Y0058455D02*
X0269716Y0058455D01*
X0270715Y0057457D02*
X0263000Y0057457D01*
X0262287Y0056458D02*
X0291713Y0056458D01*
X0292712Y0055460D02*
X0261288Y0055460D01*
X0260290Y0054461D02*
X0293710Y0054461D01*
X0294709Y0053463D02*
X0259291Y0053463D01*
X0258293Y0052464D02*
X0295500Y0052464D01*
X0295500Y0051466D02*
X0252450Y0051466D01*
X0252450Y0050467D02*
X0295500Y0050467D01*
X0295500Y0049469D02*
X0251623Y0049469D01*
X0247500Y0049346D02*
X0247500Y0049346D01*
X0247500Y0048470D02*
X0295500Y0048470D01*
X0295500Y0047472D02*
X0247500Y0047472D01*
X0247500Y0046473D02*
X0295500Y0046473D01*
X0295500Y0045475D02*
X0247500Y0045475D01*
X0247500Y0044476D02*
X0295500Y0044476D01*
X0295500Y0043478D02*
X0249265Y0043478D01*
X0250134Y0042479D02*
X0295500Y0042479D01*
X0295500Y0041481D02*
X0250500Y0041481D01*
X0250500Y0040482D02*
X0295500Y0040482D01*
X0295500Y0039484D02*
X0250119Y0039484D01*
X0249228Y0038485D02*
X0256015Y0038485D01*
X0257000Y0038485D02*
X0258000Y0038485D01*
X0258985Y0038485D02*
X0265424Y0038485D01*
X0263850Y0037487D02*
X0260860Y0037487D01*
X0261757Y0036488D02*
X0262893Y0036488D01*
X0262479Y0035490D02*
X0262321Y0035490D01*
X0258000Y0035490D02*
X0257000Y0035490D01*
X0257000Y0036488D02*
X0258000Y0036488D01*
X0258000Y0037487D02*
X0257000Y0037487D01*
X0254140Y0037487D02*
X0249467Y0037487D01*
X0250471Y0036488D02*
X0253243Y0036488D01*
X0252679Y0035490D02*
X0250670Y0035490D01*
X0250288Y0034491D02*
X0252392Y0034491D01*
X0252395Y0032494D02*
X0250300Y0032494D01*
X0250667Y0031496D02*
X0252685Y0031496D01*
X0249635Y0033493D02*
X0257000Y0033493D01*
X0257000Y0034491D02*
X0258000Y0034491D01*
X0247237Y0037487D02*
X0246972Y0037487D01*
X0245772Y0038485D02*
X0234600Y0038485D01*
X0234600Y0037487D02*
X0236109Y0037487D01*
X0235111Y0036488D02*
X0234600Y0036488D01*
X0235096Y0036473D02*
X0235096Y0036473D01*
X0234600Y0039484D02*
X0244881Y0039484D01*
X0244189Y0040482D02*
X0234600Y0040482D01*
X0234600Y0041481D02*
X0243500Y0041481D01*
X0243500Y0042479D02*
X0234600Y0042479D01*
X0234600Y0043478D02*
X0243500Y0043478D01*
X0243500Y0044476D02*
X0234600Y0044476D01*
X0234600Y0045475D02*
X0243500Y0045475D01*
X0243500Y0046473D02*
X0234600Y0046473D01*
X0234600Y0047472D02*
X0243500Y0047472D01*
X0243500Y0048470D02*
X0234600Y0048470D01*
X0234600Y0049469D02*
X0243377Y0049469D01*
X0242550Y0050467D02*
X0234600Y0050467D01*
X0234600Y0051466D02*
X0242550Y0051466D01*
X0242550Y0052464D02*
X0234600Y0052464D01*
X0234600Y0053463D02*
X0242550Y0053463D01*
X0242550Y0054461D02*
X0234600Y0054461D01*
X0234600Y0055460D02*
X0242550Y0055460D01*
X0242550Y0056458D02*
X0234600Y0056458D01*
X0234600Y0057457D02*
X0243303Y0057457D01*
X0243500Y0058455D02*
X0234600Y0058455D01*
X0234600Y0059454D02*
X0243500Y0059454D01*
X0243500Y0060452D02*
X0234600Y0060452D01*
X0234600Y0061451D02*
X0243500Y0061451D01*
X0243500Y0062449D02*
X0234600Y0062449D01*
X0234600Y0063448D02*
X0243500Y0063448D01*
X0243500Y0064446D02*
X0234600Y0064446D01*
X0234600Y0065445D02*
X0242727Y0065445D01*
X0241728Y0066443D02*
X0234600Y0066443D01*
X0234600Y0067442D02*
X0240730Y0067442D01*
X0240500Y0068440D02*
X0234600Y0068440D01*
X0234600Y0069439D02*
X0240500Y0069439D01*
X0240500Y0070437D02*
X0234600Y0070437D01*
X0234600Y0071436D02*
X0240500Y0071436D01*
X0240500Y0072434D02*
X0234600Y0072434D01*
X0234600Y0073433D02*
X0240500Y0073433D01*
X0240500Y0074432D02*
X0234600Y0074432D01*
X0234600Y0075430D02*
X0240500Y0075430D01*
X0240500Y0076429D02*
X0234600Y0076429D01*
X0234600Y0077427D02*
X0240500Y0077427D01*
X0240500Y0078426D02*
X0234600Y0078426D01*
X0234600Y0079424D02*
X0240500Y0079424D01*
X0240500Y0080423D02*
X0234600Y0080423D01*
X0234600Y0081421D02*
X0240500Y0081421D01*
X0240500Y0082420D02*
X0234600Y0082420D01*
X0234600Y0083418D02*
X0240500Y0083418D01*
X0240500Y0084417D02*
X0234600Y0084417D01*
X0234600Y0085415D02*
X0240500Y0085415D01*
X0240500Y0086414D02*
X0234600Y0086414D01*
X0234600Y0087412D02*
X0240500Y0087412D01*
X0240500Y0088411D02*
X0234600Y0088411D01*
X0234600Y0089409D02*
X0240500Y0089409D01*
X0240500Y0090408D02*
X0234600Y0090408D01*
X0234600Y0091406D02*
X0240500Y0091406D01*
X0240500Y0092405D02*
X0234600Y0092405D01*
X0234600Y0093403D02*
X0240500Y0093403D01*
X0240500Y0094402D02*
X0234600Y0094402D01*
X0234600Y0095400D02*
X0240500Y0095400D01*
X0240500Y0096399D02*
X0234600Y0096399D01*
X0234600Y0097397D02*
X0240500Y0097397D01*
X0240500Y0098396D02*
X0234600Y0098396D01*
X0234600Y0099394D02*
X0240500Y0099394D01*
X0240564Y0100393D02*
X0234600Y0100393D01*
X0234600Y0101391D02*
X0241563Y0101391D01*
X0242561Y0102390D02*
X0234600Y0102390D01*
X0234600Y0103388D02*
X0243560Y0103388D01*
X0240075Y0109379D02*
X0234600Y0109379D01*
X0234600Y0108381D02*
X0330400Y0108381D01*
X0330400Y0109379D02*
X0324925Y0109379D01*
X0327444Y0110378D02*
X0330400Y0110378D01*
X0330400Y0111376D02*
X0328634Y0111376D01*
X0329812Y0112365D02*
X0329812Y0112365D01*
X0329812Y0112365D01*
X0329818Y0112375D02*
X0330400Y0112375D01*
X0330394Y0113373D02*
X0330400Y0113373D01*
X0330400Y0107382D02*
X0234600Y0107382D01*
X0234600Y0106384D02*
X0330400Y0106384D01*
X0330400Y0079424D02*
X0270364Y0079424D01*
X0270500Y0078426D02*
X0330400Y0078426D01*
X0330400Y0077427D02*
X0270303Y0077427D01*
X0269671Y0076429D02*
X0330400Y0076429D01*
X0330400Y0075430D02*
X0269500Y0075430D01*
X0269500Y0074432D02*
X0330400Y0074432D01*
X0330400Y0073433D02*
X0269500Y0073433D01*
X0269500Y0072434D02*
X0330400Y0072434D01*
X0330400Y0071436D02*
X0269500Y0071436D01*
X0269500Y0070437D02*
X0330400Y0070437D01*
X0330400Y0069439D02*
X0269500Y0069439D01*
X0269500Y0068440D02*
X0330400Y0068440D01*
X0330400Y0067442D02*
X0269500Y0067442D01*
X0269500Y0066443D02*
X0281767Y0066443D01*
X0283233Y0066443D02*
X0330400Y0066443D01*
X0330400Y0065445D02*
X0303383Y0065445D01*
X0304382Y0064446D02*
X0330400Y0064446D01*
X0330400Y0063448D02*
X0305381Y0063448D01*
X0306379Y0062449D02*
X0330400Y0062449D01*
X0330400Y0061451D02*
X0307378Y0061451D01*
X0308376Y0060452D02*
X0330400Y0060452D01*
X0330400Y0059454D02*
X0309375Y0059454D01*
X0309500Y0058455D02*
X0330400Y0058455D01*
X0330400Y0057457D02*
X0309500Y0057457D01*
X0309500Y0056458D02*
X0330400Y0056458D01*
X0330400Y0055460D02*
X0309500Y0055460D01*
X0309500Y0054461D02*
X0330400Y0054461D01*
X0330400Y0053463D02*
X0309500Y0053463D01*
X0309500Y0052464D02*
X0330400Y0052464D01*
X0330400Y0051466D02*
X0309500Y0051466D01*
X0309500Y0050467D02*
X0330400Y0050467D01*
X0330400Y0049469D02*
X0309500Y0049469D01*
X0309500Y0048470D02*
X0330400Y0048470D01*
X0330400Y0047472D02*
X0309500Y0047472D01*
X0309500Y0046473D02*
X0330400Y0046473D01*
X0330400Y0045475D02*
X0309500Y0045475D01*
X0309500Y0044476D02*
X0330400Y0044476D01*
X0330400Y0043478D02*
X0309500Y0043478D01*
X0309500Y0042479D02*
X0330400Y0042479D01*
X0330400Y0041481D02*
X0309500Y0041481D01*
X0309500Y0040482D02*
X0330400Y0040482D01*
X0330400Y0039484D02*
X0309500Y0039484D01*
X0309576Y0038485D02*
X0330400Y0038485D01*
X0330400Y0037487D02*
X0311150Y0037487D01*
X0312107Y0036488D02*
X0330400Y0036488D01*
X0330400Y0035490D02*
X0312521Y0035490D01*
X0312900Y0034491D02*
X0327319Y0034491D01*
X0326425Y0033493D02*
X0312900Y0033493D01*
X0312900Y0032494D02*
X0326050Y0032494D01*
X0326050Y0031496D02*
X0312515Y0031496D01*
X0305424Y0038485D02*
X0299576Y0038485D01*
X0299500Y0039484D02*
X0305500Y0039484D01*
X0305500Y0040482D02*
X0299500Y0040482D01*
X0299500Y0041481D02*
X0305500Y0041481D01*
X0305500Y0042479D02*
X0299500Y0042479D01*
X0299500Y0043478D02*
X0305500Y0043478D01*
X0305500Y0044476D02*
X0299500Y0044476D01*
X0299500Y0045475D02*
X0305500Y0045475D01*
X0305500Y0046473D02*
X0299500Y0046473D01*
X0299500Y0047472D02*
X0305500Y0047472D01*
X0305500Y0048470D02*
X0299500Y0048470D01*
X0299500Y0049469D02*
X0305500Y0049469D01*
X0305500Y0050467D02*
X0299500Y0050467D01*
X0299500Y0051466D02*
X0305500Y0051466D01*
X0305500Y0052464D02*
X0299500Y0052464D01*
X0299500Y0053463D02*
X0305500Y0053463D01*
X0305500Y0054461D02*
X0299367Y0054461D01*
X0298369Y0055460D02*
X0305500Y0055460D01*
X0305500Y0056458D02*
X0297370Y0056458D01*
X0296372Y0057457D02*
X0305500Y0057457D01*
X0304716Y0058455D02*
X0295373Y0058455D01*
X0294375Y0059454D02*
X0303718Y0059454D01*
X0302719Y0060452D02*
X0293376Y0060452D01*
X0301721Y0061451D02*
X0284694Y0061451D01*
X0280306Y0061451D02*
X0272378Y0061451D01*
X0271379Y0062449D02*
X0279688Y0062449D01*
X0279500Y0063448D02*
X0270381Y0063448D01*
X0269500Y0064446D02*
X0279645Y0064446D01*
X0280202Y0065445D02*
X0269500Y0065445D01*
X0274106Y0083418D02*
X0302894Y0083418D01*
X0302668Y0088411D02*
X0274500Y0088411D01*
X0274500Y0089409D02*
X0276437Y0089409D01*
X0275550Y0090408D02*
X0274500Y0090408D01*
X0274500Y0091406D02*
X0275550Y0091406D01*
X0275550Y0092405D02*
X0274500Y0092405D01*
X0274500Y0093403D02*
X0275550Y0093403D01*
X0275550Y0094402D02*
X0274500Y0094402D01*
X0274500Y0095400D02*
X0275550Y0095400D01*
X0275550Y0096399D02*
X0274641Y0096399D01*
X0275290Y0097397D02*
X0276243Y0097397D01*
X0276500Y0098396D02*
X0275500Y0098396D01*
X0278500Y0093500D02*
X0282500Y0093500D01*
X0286500Y0093500D01*
X0289450Y0096399D02*
X0289763Y0096399D01*
X0290762Y0097397D02*
X0288757Y0097397D01*
X0291760Y0098396D02*
X0284500Y0098396D01*
X0284500Y0099394D02*
X0292759Y0099394D01*
X0292905Y0100393D02*
X0284500Y0100393D01*
X0284500Y0101391D02*
X0293342Y0101391D01*
X0294613Y0102390D02*
X0284439Y0102390D01*
X0312452Y0133344D02*
X0326079Y0133344D01*
X0326050Y0134342D02*
X0312865Y0134342D01*
X0312900Y0135341D02*
X0326362Y0135341D01*
X0327167Y0136339D02*
X0312900Y0136339D01*
X0312584Y0137338D02*
X0330400Y0137338D01*
X0330400Y0138336D02*
X0312170Y0138336D01*
X0311302Y0139335D02*
X0330400Y0139335D01*
X0330400Y0140333D02*
X0309942Y0140333D01*
X0309500Y0141332D02*
X0330400Y0141332D01*
X0330400Y0142330D02*
X0309500Y0142330D01*
X0309500Y0143329D02*
X0330400Y0143329D01*
X0330400Y0144327D02*
X0309500Y0144327D01*
X0309500Y0145326D02*
X0330400Y0145326D01*
X0330400Y0146324D02*
X0309500Y0146324D01*
X0309500Y0147323D02*
X0330400Y0147323D01*
X0330400Y0148321D02*
X0309500Y0148321D01*
X0309500Y0149320D02*
X0330400Y0149320D01*
X0330400Y0150318D02*
X0309500Y0150318D01*
X0309500Y0151317D02*
X0330400Y0151317D01*
X0330400Y0152315D02*
X0309500Y0152315D01*
X0309500Y0153314D02*
X0330400Y0153314D01*
X0330400Y0154312D02*
X0309500Y0154312D01*
X0309500Y0155311D02*
X0330400Y0155311D01*
X0330400Y0156309D02*
X0309500Y0156309D01*
X0309500Y0157308D02*
X0330400Y0157308D01*
X0330400Y0158306D02*
X0309500Y0158306D01*
X0309500Y0159305D02*
X0330400Y0159305D01*
X0330400Y0160303D02*
X0309500Y0160303D01*
X0309500Y0161302D02*
X0330400Y0161302D01*
X0330400Y0162301D02*
X0308528Y0162301D01*
X0307529Y0163299D02*
X0330400Y0163299D01*
X0330400Y0164298D02*
X0306531Y0164298D01*
X0305532Y0165296D02*
X0330400Y0165296D01*
X0330400Y0166295D02*
X0304534Y0166295D01*
X0303535Y0167293D02*
X0330400Y0167293D01*
X0330400Y0184268D02*
X0261561Y0184268D01*
X0261430Y0185266D02*
X0271260Y0185266D01*
X0273740Y0185266D02*
X0303260Y0185266D01*
X0305740Y0185266D02*
X0330400Y0185266D01*
X0330400Y0186265D02*
X0307007Y0186265D01*
X0307442Y0187263D02*
X0330400Y0187263D01*
X0330400Y0188262D02*
X0307500Y0188262D01*
X0307225Y0189260D02*
X0330400Y0189260D01*
X0330400Y0190259D02*
X0306484Y0190259D01*
X0302516Y0190259D02*
X0274500Y0190259D01*
X0274500Y0191257D02*
X0330400Y0191257D01*
X0330400Y0192256D02*
X0289410Y0192256D01*
X0289450Y0193254D02*
X0330400Y0193254D01*
X0330400Y0194253D02*
X0291274Y0194253D01*
X0292273Y0195251D02*
X0330400Y0195251D01*
X0330400Y0196250D02*
X0293271Y0196250D01*
X0294270Y0197248D02*
X0330400Y0197248D01*
X0330400Y0198247D02*
X0295268Y0198247D01*
X0297681Y0199245D02*
X0330400Y0199245D01*
X0330400Y0200244D02*
X0298510Y0200244D01*
X0298846Y0201242D02*
X0330400Y0201242D01*
X0330400Y0202241D02*
X0298846Y0202241D01*
X0298437Y0203239D02*
X0330400Y0203239D01*
X0330400Y0204238D02*
X0297446Y0204238D01*
X0294247Y0204238D02*
X0284500Y0204238D01*
X0284500Y0203239D02*
X0293256Y0203239D01*
X0292846Y0202241D02*
X0284500Y0202241D01*
X0284500Y0201242D02*
X0292607Y0201242D01*
X0291608Y0200244D02*
X0284500Y0200244D01*
X0283592Y0205237D02*
X0330400Y0205237D01*
X0330400Y0206235D02*
X0282593Y0206235D01*
X0276500Y0200244D02*
X0275500Y0200244D01*
X0275228Y0199245D02*
X0276091Y0199245D01*
X0275550Y0198247D02*
X0274500Y0198247D01*
X0274500Y0197248D02*
X0275550Y0197248D01*
X0275550Y0196250D02*
X0274500Y0196250D01*
X0274500Y0195251D02*
X0275550Y0195251D01*
X0275550Y0194253D02*
X0274500Y0194253D01*
X0274500Y0193254D02*
X0275550Y0193254D01*
X0275590Y0192256D02*
X0274500Y0192256D01*
X0278500Y0195500D02*
X0282500Y0195500D01*
X0286500Y0195500D01*
X0289450Y0198247D02*
X0289611Y0198247D01*
X0288909Y0199245D02*
X0290610Y0199245D01*
X0324157Y0211100D02*
X0324157Y0211100D01*
X0324508Y0211228D02*
X0330400Y0211228D01*
X0330400Y0212226D02*
X0327251Y0212226D01*
X0328453Y0213225D02*
X0330400Y0213225D01*
X0330400Y0214223D02*
X0329643Y0214223D01*
X0329812Y0214365D02*
X0329812Y0214365D01*
X0330307Y0215222D02*
X0330400Y0215222D01*
X0326142Y0235192D02*
X0312389Y0235192D01*
X0312802Y0236190D02*
X0326050Y0236190D01*
X0326299Y0237189D02*
X0312900Y0237189D01*
X0312900Y0238187D02*
X0327015Y0238187D01*
X0330400Y0239186D02*
X0312647Y0239186D01*
X0312233Y0240184D02*
X0330400Y0240184D01*
X0330400Y0241183D02*
X0311454Y0241183D01*
X0310309Y0242181D02*
X0330400Y0242181D01*
X0330400Y0243180D02*
X0309500Y0243180D01*
X0309500Y0244178D02*
X0330400Y0244178D01*
X0330400Y0245177D02*
X0309500Y0245177D01*
X0309500Y0246175D02*
X0330400Y0246175D01*
X0330400Y0247174D02*
X0309500Y0247174D01*
X0309500Y0248172D02*
X0330400Y0248172D01*
X0330400Y0249171D02*
X0309500Y0249171D01*
X0309500Y0250170D02*
X0330400Y0250170D01*
X0330400Y0251168D02*
X0309500Y0251168D01*
X0309500Y0252167D02*
X0330400Y0252167D01*
X0330400Y0253165D02*
X0309500Y0253165D01*
X0309500Y0254164D02*
X0330400Y0254164D01*
X0330400Y0255162D02*
X0309500Y0255162D01*
X0309500Y0256161D02*
X0330400Y0256161D01*
X0330400Y0257159D02*
X0309500Y0257159D01*
X0309500Y0258158D02*
X0330400Y0258158D01*
X0330400Y0259156D02*
X0309500Y0259156D01*
X0309500Y0260155D02*
X0330400Y0260155D01*
X0330400Y0261153D02*
X0309500Y0261153D01*
X0309500Y0262152D02*
X0330400Y0262152D01*
X0330400Y0263150D02*
X0309500Y0263150D01*
X0308680Y0264149D02*
X0330400Y0264149D01*
X0330400Y0265147D02*
X0307681Y0265147D01*
X0306683Y0266146D02*
X0330400Y0266146D01*
X0330400Y0267144D02*
X0305684Y0267144D01*
X0304686Y0268143D02*
X0330400Y0268143D01*
X0330400Y0269141D02*
X0303687Y0269141D01*
X0228400Y0307085D02*
X0181744Y0307085D01*
X0180745Y0308083D02*
X0228400Y0308083D01*
X0216166Y0314074D02*
X0144834Y0314074D01*
X0146272Y0315073D02*
X0214728Y0315073D01*
X0213538Y0316071D02*
X0147462Y0316071D01*
X0147812Y0316365D02*
X0147812Y0316365D01*
X0147812Y0316365D01*
X0148219Y0317070D02*
X0212781Y0317070D01*
X0212204Y0318068D02*
X0148796Y0318068D01*
X0149372Y0319067D02*
X0211628Y0319067D01*
X0211531Y0319235D02*
X0211531Y0319235D01*
X0211384Y0320065D02*
X0149616Y0320065D01*
X0149792Y0321064D02*
X0211208Y0321064D01*
X0211032Y0322062D02*
X0149968Y0322062D01*
X0150045Y0322500D02*
X0150045Y0322500D01*
X0149946Y0323061D02*
X0211054Y0323061D01*
X0211230Y0324059D02*
X0149770Y0324059D01*
X0149594Y0325058D02*
X0211406Y0325058D01*
X0211531Y0325765D02*
X0211531Y0325765D01*
X0211699Y0326056D02*
X0149301Y0326056D01*
X0149469Y0325765D02*
X0149469Y0325765D01*
X0148724Y0327055D02*
X0212276Y0327055D01*
X0212852Y0328053D02*
X0148148Y0328053D01*
X0147316Y0329052D02*
X0213684Y0329052D01*
X0213188Y0328635D02*
X0213188Y0328635D01*
X0213188Y0328635D01*
X0214874Y0330050D02*
X0146126Y0330050D01*
X0132781Y0317070D02*
X0132600Y0317070D01*
X0132600Y0316071D02*
X0133538Y0316071D01*
X0132600Y0315073D02*
X0134728Y0315073D01*
X0136166Y0314074D02*
X0132600Y0314074D01*
X0126400Y0314074D02*
X0122834Y0314074D01*
X0124272Y0315073D02*
X0126400Y0315073D01*
X0126400Y0316071D02*
X0125462Y0316071D01*
X0125812Y0316365D02*
X0125812Y0316365D01*
X0125812Y0316365D01*
X0126219Y0317070D02*
X0126400Y0317070D01*
X0126400Y0313076D02*
X0030600Y0313076D01*
X0030600Y0314074D02*
X0034166Y0314074D01*
X0032728Y0315073D02*
X0030600Y0315073D01*
X0030600Y0316071D02*
X0031538Y0316071D01*
X0030781Y0317070D02*
X0030600Y0317070D01*
X0030600Y0312077D02*
X0126400Y0312077D01*
X0126400Y0311079D02*
X0030600Y0311079D01*
X0030600Y0310080D02*
X0126400Y0310080D01*
X0126400Y0309082D02*
X0030600Y0309082D01*
X0030600Y0308083D02*
X0040255Y0308083D01*
X0039256Y0307085D02*
X0030600Y0307085D01*
X0030600Y0306086D02*
X0038258Y0306086D01*
X0037259Y0305088D02*
X0030600Y0305088D01*
X0030600Y0304089D02*
X0036500Y0304089D01*
X0036500Y0303091D02*
X0030600Y0303091D01*
X0030600Y0302092D02*
X0036500Y0302092D01*
X0036500Y0301094D02*
X0030600Y0301094D01*
X0030600Y0300095D02*
X0036500Y0300095D01*
X0036500Y0299097D02*
X0030600Y0299097D01*
X0030600Y0298098D02*
X0036500Y0298098D01*
X0036500Y0297100D02*
X0030600Y0297100D01*
X0030600Y0296101D02*
X0036500Y0296101D01*
X0036500Y0295103D02*
X0030600Y0295103D01*
X0030600Y0294104D02*
X0036500Y0294104D01*
X0036500Y0293105D02*
X0030600Y0293105D01*
X0030600Y0292107D02*
X0036500Y0292107D01*
X0036500Y0291108D02*
X0030600Y0291108D01*
X0030600Y0290110D02*
X0036500Y0290110D01*
X0036500Y0289111D02*
X0030600Y0289111D01*
X0030600Y0288113D02*
X0036500Y0288113D01*
X0036500Y0287114D02*
X0030600Y0287114D01*
X0030600Y0286116D02*
X0036500Y0286116D01*
X0036500Y0285117D02*
X0030600Y0285117D01*
X0030600Y0284119D02*
X0036500Y0284119D01*
X0036500Y0283120D02*
X0030600Y0283120D01*
X0030600Y0282122D02*
X0036500Y0282122D01*
X0036500Y0281123D02*
X0030600Y0281123D01*
X0030600Y0280125D02*
X0036500Y0280125D01*
X0036500Y0279126D02*
X0030600Y0279126D01*
X0030600Y0278128D02*
X0036500Y0278128D01*
X0036500Y0277129D02*
X0030600Y0277129D01*
X0030600Y0276131D02*
X0036500Y0276131D01*
X0036500Y0275132D02*
X0030600Y0275132D01*
X0030600Y0274134D02*
X0036500Y0274134D01*
X0036500Y0273135D02*
X0030600Y0273135D01*
X0030600Y0272137D02*
X0036500Y0272137D01*
X0037033Y0271138D02*
X0030600Y0271138D01*
X0030600Y0270140D02*
X0038032Y0270140D01*
X0037672Y0270500D02*
X0037672Y0270500D01*
X0039030Y0269141D02*
X0030600Y0269141D01*
X0030600Y0268143D02*
X0039500Y0268143D01*
X0039500Y0267144D02*
X0030600Y0267144D01*
X0030600Y0266146D02*
X0039500Y0266146D01*
X0039500Y0265147D02*
X0030600Y0265147D01*
X0030600Y0264149D02*
X0039500Y0264149D01*
X0039500Y0263150D02*
X0030600Y0263150D01*
X0030600Y0262152D02*
X0039500Y0262152D01*
X0038999Y0261153D02*
X0030600Y0261153D01*
X0030600Y0260155D02*
X0038550Y0260155D01*
X0038550Y0259156D02*
X0030600Y0259156D01*
X0030600Y0258158D02*
X0038550Y0258158D01*
X0038670Y0241704D02*
X0038670Y0241704D01*
X0036410Y0241183D02*
X0035988Y0241183D01*
X0035467Y0241704D02*
X0035467Y0241704D01*
X0035467Y0241704D01*
X0034066Y0241704D02*
X0034066Y0241704D01*
X0032326Y0241704D02*
X0032326Y0241704D01*
X0032326Y0241704D01*
X0031806Y0241183D02*
X0030600Y0241183D01*
X0031096Y0240473D02*
X0031096Y0240473D01*
X0030807Y0240184D02*
X0030600Y0240184D01*
X0030600Y0215222D02*
X0030693Y0215222D01*
X0030600Y0214223D02*
X0031357Y0214223D01*
X0030600Y0213225D02*
X0032547Y0213225D01*
X0033749Y0212226D02*
X0030600Y0212226D01*
X0030600Y0211228D02*
X0036492Y0211228D01*
X0041172Y0207000D02*
X0037672Y0203500D01*
X0036500Y0202328D01*
X0036500Y0169672D01*
X0037672Y0168500D01*
X0039500Y0166672D01*
X0039500Y0159654D01*
X0038550Y0158704D01*
X0038550Y0152296D01*
X0039500Y0151346D01*
X0039500Y0143172D01*
X0040664Y0142008D01*
X0040957Y0141301D01*
X0041801Y0140457D01*
X0042903Y0140000D01*
X0044097Y0140000D01*
X0045199Y0140457D01*
X0046043Y0141301D01*
X0046500Y0142403D01*
X0046500Y0143597D01*
X0046043Y0144699D01*
X0045199Y0145543D01*
X0044097Y0146000D01*
X0043500Y0146000D01*
X0043500Y0151346D01*
X0043546Y0151300D01*
X0047454Y0151300D01*
X0048450Y0152296D01*
X0048450Y0153500D01*
X0053328Y0153500D01*
X0059000Y0159172D01*
X0059000Y0182828D01*
X0057500Y0184328D01*
X0057500Y0185097D01*
X0057126Y0186000D01*
X0066257Y0186000D01*
X0066801Y0185457D01*
X0067903Y0185000D01*
X0069097Y0185000D01*
X0070199Y0185457D01*
X0070743Y0186000D01*
X0098257Y0186000D01*
X0098801Y0185457D01*
X0099903Y0185000D01*
X0101097Y0185000D01*
X0102199Y0185457D01*
X0103043Y0186301D01*
X0103500Y0187403D01*
X0103500Y0188597D01*
X0103043Y0189699D01*
X0102199Y0190543D01*
X0101097Y0191000D01*
X0099903Y0191000D01*
X0098801Y0190543D01*
X0098257Y0190000D01*
X0070743Y0190000D01*
X0070500Y0190243D01*
X0070500Y0198257D01*
X0071043Y0198801D01*
X0071500Y0199903D01*
X0071500Y0201000D01*
X0072500Y0201000D01*
X0072500Y0199654D01*
X0071550Y0198704D01*
X0071550Y0192296D01*
X0072546Y0191300D01*
X0076454Y0191300D01*
X0076500Y0191346D01*
X0076546Y0191300D01*
X0080454Y0191300D01*
X0080500Y0191346D01*
X0080546Y0191300D01*
X0084454Y0191300D01*
X0085450Y0192296D01*
X0085450Y0193500D01*
X0086521Y0193500D01*
X0091675Y0198654D01*
X0092443Y0198654D01*
X0093546Y0199110D01*
X0094390Y0199954D01*
X0094846Y0201057D01*
X0094846Y0202250D01*
X0094390Y0203353D01*
X0093546Y0204197D01*
X0092443Y0204654D01*
X0091250Y0204654D01*
X0090147Y0204197D01*
X0089303Y0203353D01*
X0088846Y0202250D01*
X0088846Y0201482D01*
X0085450Y0198085D01*
X0085450Y0198704D01*
X0084454Y0199700D01*
X0080546Y0199700D01*
X0080500Y0199654D01*
X0080500Y0199654D01*
X0080500Y0204328D01*
X0079000Y0205828D01*
X0077828Y0207000D01*
X0041172Y0207000D01*
X0040407Y0206235D02*
X0030600Y0206235D01*
X0030600Y0205237D02*
X0039408Y0205237D01*
X0038410Y0204238D02*
X0030600Y0204238D01*
X0030600Y0203239D02*
X0037411Y0203239D01*
X0036500Y0202241D02*
X0030600Y0202241D01*
X0030600Y0201242D02*
X0036500Y0201242D01*
X0036500Y0200244D02*
X0030600Y0200244D01*
X0030600Y0199245D02*
X0036500Y0199245D01*
X0036500Y0198247D02*
X0030600Y0198247D01*
X0030600Y0197248D02*
X0036500Y0197248D01*
X0036500Y0196250D02*
X0030600Y0196250D01*
X0030600Y0195251D02*
X0036500Y0195251D01*
X0036500Y0194253D02*
X0030600Y0194253D01*
X0030600Y0193254D02*
X0036500Y0193254D01*
X0036500Y0192256D02*
X0030600Y0192256D01*
X0030600Y0191257D02*
X0036500Y0191257D01*
X0036500Y0190259D02*
X0030600Y0190259D01*
X0030600Y0189260D02*
X0036500Y0189260D01*
X0036500Y0188262D02*
X0030600Y0188262D01*
X0030600Y0187263D02*
X0036500Y0187263D01*
X0036500Y0186265D02*
X0030600Y0186265D01*
X0030600Y0185266D02*
X0036500Y0185266D01*
X0036500Y0184268D02*
X0030600Y0184268D01*
X0030600Y0183269D02*
X0036500Y0183269D01*
X0036500Y0182271D02*
X0030600Y0182271D01*
X0030600Y0181272D02*
X0036500Y0181272D01*
X0036500Y0180274D02*
X0030600Y0180274D01*
X0030600Y0179275D02*
X0036500Y0179275D01*
X0036500Y0178277D02*
X0030600Y0178277D01*
X0030600Y0177278D02*
X0036500Y0177278D01*
X0036500Y0176280D02*
X0030600Y0176280D01*
X0030600Y0175281D02*
X0036500Y0175281D01*
X0036500Y0174283D02*
X0030600Y0174283D01*
X0030600Y0173284D02*
X0036500Y0173284D01*
X0036500Y0172286D02*
X0030600Y0172286D01*
X0030600Y0171287D02*
X0036500Y0171287D01*
X0036500Y0170289D02*
X0030600Y0170289D01*
X0030600Y0169290D02*
X0036881Y0169290D01*
X0037880Y0168292D02*
X0030600Y0168292D01*
X0030600Y0167293D02*
X0038878Y0167293D01*
X0039500Y0166295D02*
X0030600Y0166295D01*
X0030600Y0165296D02*
X0039500Y0165296D01*
X0039500Y0164298D02*
X0030600Y0164298D01*
X0030600Y0163299D02*
X0039500Y0163299D01*
X0039500Y0162301D02*
X0030600Y0162301D01*
X0030600Y0161302D02*
X0039500Y0161302D01*
X0039500Y0160303D02*
X0030600Y0160303D01*
X0030600Y0159305D02*
X0039151Y0159305D01*
X0038550Y0158306D02*
X0030600Y0158306D01*
X0030600Y0157308D02*
X0038550Y0157308D01*
X0038550Y0156309D02*
X0030600Y0156309D01*
X0030600Y0155311D02*
X0038550Y0155311D01*
X0038550Y0154312D02*
X0030600Y0154312D01*
X0030600Y0153314D02*
X0038550Y0153314D01*
X0038550Y0152315D02*
X0030600Y0152315D01*
X0030600Y0151317D02*
X0039500Y0151317D01*
X0039500Y0150318D02*
X0030600Y0150318D01*
X0030600Y0149320D02*
X0039500Y0149320D01*
X0039500Y0148321D02*
X0030600Y0148321D01*
X0030600Y0147323D02*
X0039500Y0147323D01*
X0039500Y0146324D02*
X0030600Y0146324D01*
X0030600Y0145326D02*
X0039500Y0145326D01*
X0039500Y0144327D02*
X0030600Y0144327D01*
X0030600Y0143329D02*
X0039500Y0143329D01*
X0040341Y0142330D02*
X0030600Y0142330D01*
X0030600Y0141332D02*
X0040944Y0141332D01*
X0042099Y0140333D02*
X0030600Y0140333D01*
X0030600Y0139335D02*
X0031958Y0139335D01*
X0030959Y0138336D02*
X0030600Y0138336D01*
X0035836Y0139335D02*
X0036562Y0139335D01*
X0040440Y0139335D02*
X0040514Y0139335D01*
X0043073Y0139335D02*
X0043136Y0139335D01*
X0044901Y0140333D02*
X0051548Y0140333D01*
X0053000Y0140333D02*
X0054000Y0140333D01*
X0054000Y0139335D02*
X0053000Y0139335D01*
X0053000Y0138336D02*
X0054000Y0138336D01*
X0054000Y0137338D02*
X0053000Y0137338D01*
X0053000Y0136339D02*
X0054000Y0136339D01*
X0053000Y0135341D02*
X0045736Y0135341D01*
X0046187Y0136339D02*
X0048368Y0136339D01*
X0048630Y0137338D02*
X0046701Y0137338D01*
X0046501Y0138336D02*
X0049133Y0138336D01*
X0049981Y0139335D02*
X0045695Y0139335D01*
X0046056Y0141332D02*
X0091500Y0141332D01*
X0091500Y0142330D02*
X0046470Y0142330D01*
X0046500Y0143329D02*
X0091500Y0143329D01*
X0091500Y0144327D02*
X0046197Y0144327D01*
X0045417Y0145326D02*
X0091500Y0145326D01*
X0091500Y0146324D02*
X0043500Y0146324D01*
X0043500Y0147323D02*
X0091500Y0147323D01*
X0091500Y0148321D02*
X0043500Y0148321D01*
X0043500Y0149320D02*
X0091500Y0149320D01*
X0091500Y0150318D02*
X0043500Y0150318D01*
X0043500Y0151317D02*
X0043529Y0151317D01*
X0043500Y0151346D02*
X0043500Y0151346D01*
X0047471Y0151317D02*
X0091500Y0151317D01*
X0091500Y0152315D02*
X0048450Y0152315D01*
X0048450Y0153314D02*
X0091500Y0153314D01*
X0091500Y0154312D02*
X0054141Y0154312D01*
X0055139Y0155311D02*
X0090861Y0155311D01*
X0089862Y0156309D02*
X0056138Y0156309D01*
X0057136Y0157308D02*
X0088864Y0157308D01*
X0087865Y0158306D02*
X0058135Y0158306D01*
X0059000Y0159305D02*
X0066867Y0159305D01*
X0065868Y0160303D02*
X0059000Y0160303D01*
X0059000Y0161302D02*
X0064870Y0161302D01*
X0063871Y0162301D02*
X0059000Y0162301D01*
X0059000Y0163299D02*
X0062873Y0163299D01*
X0061874Y0164298D02*
X0059000Y0164298D01*
X0059000Y0165296D02*
X0061500Y0165296D01*
X0061500Y0166295D02*
X0059000Y0166295D01*
X0059000Y0167293D02*
X0061500Y0167293D01*
X0061500Y0168292D02*
X0059000Y0168292D01*
X0059000Y0169290D02*
X0061500Y0169290D01*
X0061500Y0170289D02*
X0059000Y0170289D01*
X0059000Y0171287D02*
X0061500Y0171287D01*
X0061500Y0172286D02*
X0059000Y0172286D01*
X0059000Y0173284D02*
X0061500Y0173284D01*
X0061500Y0174283D02*
X0059000Y0174283D01*
X0059000Y0175281D02*
X0061500Y0175281D01*
X0061500Y0176280D02*
X0059000Y0176280D01*
X0059000Y0177278D02*
X0061500Y0177278D01*
X0061481Y0178277D02*
X0059000Y0178277D01*
X0059000Y0179275D02*
X0060760Y0179275D01*
X0060500Y0180274D02*
X0059000Y0180274D01*
X0059000Y0181272D02*
X0060573Y0181272D01*
X0061028Y0182271D02*
X0059000Y0182271D01*
X0058559Y0183269D02*
X0062346Y0183269D01*
X0064654Y0183269D02*
X0126400Y0183269D01*
X0126400Y0182271D02*
X0065972Y0182271D01*
X0066427Y0181272D02*
X0126400Y0181272D01*
X0126400Y0180274D02*
X0066500Y0180274D01*
X0066240Y0179275D02*
X0126400Y0179275D01*
X0126400Y0178277D02*
X0065519Y0178277D01*
X0065500Y0177278D02*
X0126400Y0177278D01*
X0126400Y0176280D02*
X0065500Y0176280D01*
X0065500Y0175281D02*
X0126400Y0175281D01*
X0126400Y0174283D02*
X0065500Y0174283D01*
X0065500Y0173284D02*
X0126400Y0173284D01*
X0126400Y0172286D02*
X0065500Y0172286D01*
X0065500Y0171287D02*
X0126400Y0171287D01*
X0126400Y0170289D02*
X0065500Y0170289D01*
X0065500Y0169290D02*
X0126400Y0169290D01*
X0126400Y0168292D02*
X0079600Y0168292D01*
X0077400Y0168292D02*
X0065500Y0168292D01*
X0065500Y0167293D02*
X0076050Y0167293D01*
X0075582Y0166295D02*
X0065534Y0166295D01*
X0066532Y0165296D02*
X0075500Y0165296D01*
X0075751Y0164298D02*
X0067531Y0164298D01*
X0068529Y0163299D02*
X0076458Y0163299D01*
X0080542Y0163299D02*
X0097873Y0163299D01*
X0098871Y0162301D02*
X0089528Y0162301D01*
X0090526Y0161302D02*
X0099870Y0161302D01*
X0100868Y0160303D02*
X0091525Y0160303D01*
X0092523Y0159305D02*
X0101500Y0159305D01*
X0101500Y0158306D02*
X0093522Y0158306D01*
X0094520Y0157308D02*
X0101500Y0157308D01*
X0101500Y0156309D02*
X0095500Y0156309D01*
X0095500Y0155311D02*
X0101500Y0155311D01*
X0101500Y0154312D02*
X0095500Y0154312D01*
X0095500Y0153314D02*
X0101500Y0153314D01*
X0101500Y0152315D02*
X0095500Y0152315D01*
X0095500Y0151317D02*
X0101500Y0151317D01*
X0101500Y0150318D02*
X0095500Y0150318D01*
X0095500Y0149320D02*
X0101500Y0149320D01*
X0101500Y0148321D02*
X0095500Y0148321D01*
X0095500Y0147323D02*
X0101500Y0147323D01*
X0101500Y0146324D02*
X0095500Y0146324D01*
X0095500Y0145326D02*
X0101500Y0145326D01*
X0101500Y0144327D02*
X0095500Y0144327D01*
X0095500Y0143329D02*
X0101500Y0143329D01*
X0101500Y0142330D02*
X0095500Y0142330D01*
X0095500Y0141332D02*
X0101500Y0141332D01*
X0101058Y0140333D02*
X0095942Y0140333D01*
X0097302Y0139335D02*
X0099698Y0139335D01*
X0098830Y0138336D02*
X0098170Y0138336D01*
X0091058Y0140333D02*
X0085942Y0140333D01*
X0087302Y0139335D02*
X0089698Y0139335D01*
X0088830Y0138336D02*
X0088170Y0138336D01*
X0081058Y0140333D02*
X0075942Y0140333D01*
X0077302Y0139335D02*
X0079698Y0139335D01*
X0078830Y0138336D02*
X0078170Y0138336D01*
X0071058Y0140333D02*
X0065942Y0140333D01*
X0067302Y0139335D02*
X0069698Y0139335D01*
X0068830Y0138336D02*
X0068170Y0138336D01*
X0061058Y0140333D02*
X0055452Y0140333D01*
X0057019Y0139335D02*
X0059698Y0139335D01*
X0058830Y0138336D02*
X0057867Y0138336D01*
X0058370Y0137338D02*
X0058416Y0137338D01*
X0048419Y0134342D02*
X0046402Y0134342D01*
X0046636Y0133344D02*
X0048763Y0133344D01*
X0043709Y0126400D02*
X0113291Y0126400D01*
X0111188Y0124635D01*
X0109531Y0121765D01*
X0108955Y0118500D01*
X0108955Y0118500D01*
X0109531Y0115235D01*
X0111188Y0112365D01*
X0111188Y0112365D01*
X0113727Y0110234D01*
X0113727Y0110234D01*
X0116843Y0109100D01*
X0120157Y0109100D01*
X0123272Y0110234D01*
X0123273Y0110234D01*
X0125812Y0112365D01*
X0126400Y0113383D01*
X0126400Y0034613D01*
X0125587Y0034950D01*
X0124413Y0034950D01*
X0123329Y0034501D01*
X0122499Y0033671D01*
X0122050Y0032587D01*
X0122050Y0031413D01*
X0122387Y0030600D01*
X0108144Y0030600D01*
X0108900Y0032426D01*
X0108900Y0034574D01*
X0108078Y0036559D01*
X0106559Y0038078D01*
X0105500Y0038516D01*
X0105500Y0059328D01*
X0104328Y0060500D01*
X0099328Y0065500D01*
X0080743Y0065500D01*
X0080199Y0066043D01*
X0079097Y0066500D01*
X0077903Y0066500D01*
X0076801Y0066043D01*
X0075957Y0065199D01*
X0075500Y0064097D01*
X0075500Y0062903D01*
X0075957Y0061801D01*
X0076801Y0060957D01*
X0077903Y0060500D01*
X0079097Y0060500D01*
X0080199Y0060957D01*
X0080743Y0061500D01*
X0097672Y0061500D01*
X0101500Y0057672D01*
X0101500Y0038516D01*
X0100441Y0038078D01*
X0098922Y0036559D01*
X0098500Y0035540D01*
X0098078Y0036559D01*
X0096559Y0038078D01*
X0095500Y0038516D01*
X0095500Y0054328D01*
X0090500Y0059328D01*
X0089328Y0060500D01*
X0069328Y0060500D01*
X0065500Y0064328D01*
X0065500Y0076257D01*
X0066043Y0076801D01*
X0066500Y0077903D01*
X0066500Y0079097D01*
X0066043Y0080199D01*
X0065199Y0081043D01*
X0064097Y0081500D01*
X0062903Y0081500D01*
X0061801Y0081043D01*
X0060957Y0080199D01*
X0060500Y0079097D01*
X0060500Y0077903D01*
X0060957Y0076801D01*
X0061500Y0076257D01*
X0061500Y0062672D01*
X0062672Y0061500D01*
X0067672Y0056500D01*
X0087672Y0056500D01*
X0091500Y0052672D01*
X0091500Y0038516D01*
X0090441Y0038078D01*
X0088922Y0036559D01*
X0088500Y0035540D01*
X0088078Y0036559D01*
X0086559Y0038078D01*
X0084574Y0038900D01*
X0082426Y0038900D01*
X0080441Y0038078D01*
X0078922Y0036559D01*
X0078500Y0035540D01*
X0078078Y0036559D01*
X0076559Y0038078D01*
X0074574Y0038900D01*
X0072426Y0038900D01*
X0070441Y0038078D01*
X0068922Y0036559D01*
X0068500Y0035540D01*
X0068078Y0036559D01*
X0066559Y0038078D01*
X0064574Y0038900D01*
X0062426Y0038900D01*
X0060441Y0038078D01*
X0058922Y0036559D01*
X0058391Y0035276D01*
X0058319Y0035496D01*
X0057947Y0036225D01*
X0057466Y0036888D01*
X0056888Y0037466D01*
X0056225Y0037947D01*
X0055496Y0038319D01*
X0054718Y0038572D01*
X0054000Y0038686D01*
X0054000Y0034000D01*
X0053000Y0034000D01*
X0053000Y0038686D01*
X0052282Y0038572D01*
X0051504Y0038319D01*
X0050775Y0037947D01*
X0050112Y0037466D01*
X0049534Y0036888D01*
X0049053Y0036225D01*
X0048681Y0035496D01*
X0048428Y0034718D01*
X0048314Y0034000D01*
X0053000Y0034000D01*
X0053000Y0033000D01*
X0048314Y0033000D01*
X0048428Y0032282D01*
X0048681Y0031504D01*
X0049053Y0030775D01*
X0049179Y0030600D01*
X0046487Y0030600D01*
X0046736Y0031841D01*
X0045629Y0033502D01*
X0046736Y0035162D01*
X0046395Y0036868D01*
X0044947Y0037833D01*
X0043241Y0037492D01*
X0043105Y0037288D01*
X0042968Y0037492D01*
X0041262Y0037833D01*
X0040470Y0037305D01*
X0040071Y0037704D01*
X0038670Y0037704D01*
X0038492Y0037704D01*
X0038332Y0037704D01*
X0038332Y0037704D01*
X0036930Y0037704D01*
X0036930Y0037704D01*
X0036916Y0037690D01*
X0036199Y0036972D01*
X0035481Y0037690D01*
X0035467Y0037704D01*
X0034066Y0037704D01*
X0033728Y0037704D01*
X0033728Y0037704D01*
X0032326Y0037704D01*
X0031096Y0036473D01*
X0030600Y0035977D01*
X0030600Y0113383D01*
X0031188Y0112365D01*
X0031188Y0112365D01*
X0033727Y0110234D01*
X0033727Y0110234D01*
X0036843Y0109100D01*
X0040157Y0109100D01*
X0043272Y0110234D01*
X0043273Y0110234D01*
X0045812Y0112365D01*
X0047469Y0115235D01*
X0047469Y0115235D01*
X0048045Y0118500D01*
X0047469Y0121765D01*
X0045812Y0124635D01*
X0045812Y0124635D01*
X0043709Y0126400D01*
X0043764Y0126354D02*
X0113236Y0126354D01*
X0112046Y0125356D02*
X0044954Y0125356D01*
X0045973Y0124357D02*
X0111027Y0124357D01*
X0111188Y0124635D02*
X0111188Y0124635D01*
X0111188Y0124635D01*
X0110451Y0123359D02*
X0046549Y0123359D01*
X0047126Y0122360D02*
X0109874Y0122360D01*
X0109531Y0121765D02*
X0109531Y0121765D01*
X0109460Y0121362D02*
X0047540Y0121362D01*
X0047469Y0121765D02*
X0047469Y0121765D01*
X0047716Y0120363D02*
X0109284Y0120363D01*
X0109107Y0119365D02*
X0047893Y0119365D01*
X0048045Y0118500D02*
X0048045Y0118500D01*
X0048021Y0118366D02*
X0108979Y0118366D01*
X0109155Y0117368D02*
X0047845Y0117368D01*
X0047669Y0116369D02*
X0109331Y0116369D01*
X0109507Y0115370D02*
X0047493Y0115370D01*
X0046971Y0114372D02*
X0110029Y0114372D01*
X0109531Y0115235D02*
X0109531Y0115235D01*
X0110606Y0113373D02*
X0046394Y0113373D01*
X0045818Y0112375D02*
X0111182Y0112375D01*
X0112366Y0111376D02*
X0044634Y0111376D01*
X0045812Y0112365D02*
X0045812Y0112365D01*
X0045812Y0112365D01*
X0043444Y0110378D02*
X0113556Y0110378D01*
X0116075Y0109379D02*
X0040925Y0109379D01*
X0041172Y0105000D02*
X0037672Y0101500D01*
X0036500Y0100328D01*
X0036500Y0067672D01*
X0037672Y0066500D01*
X0039500Y0064672D01*
X0039500Y0057654D01*
X0038550Y0056704D01*
X0038550Y0050296D01*
X0039500Y0049346D01*
X0039500Y0041172D01*
X0040664Y0040008D01*
X0040957Y0039301D01*
X0041801Y0038457D01*
X0042903Y0038000D01*
X0044097Y0038000D01*
X0045199Y0038457D01*
X0046043Y0039301D01*
X0046500Y0040403D01*
X0046500Y0041597D01*
X0046043Y0042699D01*
X0045199Y0043543D01*
X0044097Y0044000D01*
X0043500Y0044000D01*
X0043500Y0049346D01*
X0043546Y0049300D01*
X0047454Y0049300D01*
X0048450Y0050296D01*
X0048450Y0051500D01*
X0053328Y0051500D01*
X0059000Y0057172D01*
X0059000Y0080828D01*
X0057500Y0082328D01*
X0057500Y0083097D01*
X0057126Y0084000D01*
X0066257Y0084000D01*
X0066801Y0083457D01*
X0067903Y0083000D01*
X0069097Y0083000D01*
X0070199Y0083457D01*
X0070743Y0084000D01*
X0098257Y0084000D01*
X0098801Y0083457D01*
X0099903Y0083000D01*
X0101097Y0083000D01*
X0102199Y0083457D01*
X0103043Y0084301D01*
X0103500Y0085403D01*
X0103500Y0086597D01*
X0103043Y0087699D01*
X0102199Y0088543D01*
X0101097Y0089000D01*
X0099903Y0089000D01*
X0098801Y0088543D01*
X0098257Y0088000D01*
X0070743Y0088000D01*
X0070500Y0088243D01*
X0070500Y0096257D01*
X0071043Y0096801D01*
X0071500Y0097903D01*
X0071500Y0099000D01*
X0072500Y0099000D01*
X0072500Y0097654D01*
X0071550Y0096704D01*
X0071550Y0090296D01*
X0072546Y0089300D01*
X0076454Y0089300D01*
X0076500Y0089346D01*
X0076546Y0089300D01*
X0080454Y0089300D01*
X0080500Y0089346D01*
X0080546Y0089300D01*
X0084454Y0089300D01*
X0085450Y0090296D01*
X0085450Y0091500D01*
X0086521Y0091500D01*
X0091675Y0096654D01*
X0092443Y0096654D01*
X0093546Y0097110D01*
X0094390Y0097954D01*
X0094846Y0099057D01*
X0094846Y0100250D01*
X0094390Y0101353D01*
X0093546Y0102197D01*
X0092443Y0102654D01*
X0091250Y0102654D01*
X0090147Y0102197D01*
X0089303Y0101353D01*
X0088846Y0100250D01*
X0088846Y0099482D01*
X0085450Y0096085D01*
X0085450Y0096704D01*
X0084454Y0097700D01*
X0080546Y0097700D01*
X0080500Y0097654D01*
X0080500Y0102328D01*
X0079000Y0103828D01*
X0077828Y0105000D01*
X0041172Y0105000D01*
X0040558Y0104387D02*
X0030600Y0104387D01*
X0030600Y0105385D02*
X0126400Y0105385D01*
X0126400Y0104387D02*
X0078442Y0104387D01*
X0079440Y0103388D02*
X0126400Y0103388D01*
X0126400Y0102390D02*
X0093080Y0102390D01*
X0094351Y0101391D02*
X0126400Y0101391D01*
X0126400Y0100393D02*
X0094787Y0100393D01*
X0094846Y0099394D02*
X0126400Y0099394D01*
X0126400Y0098396D02*
X0094573Y0098396D01*
X0093833Y0097397D02*
X0126400Y0097397D01*
X0126400Y0096399D02*
X0091420Y0096399D01*
X0090422Y0095400D02*
X0126400Y0095400D01*
X0126400Y0094402D02*
X0089423Y0094402D01*
X0088425Y0093403D02*
X0126400Y0093403D01*
X0126400Y0092405D02*
X0087426Y0092405D01*
X0085450Y0091406D02*
X0126400Y0091406D01*
X0126400Y0090408D02*
X0085450Y0090408D01*
X0084563Y0089409D02*
X0126400Y0089409D01*
X0126400Y0088411D02*
X0102332Y0088411D01*
X0103162Y0087412D02*
X0126400Y0087412D01*
X0126400Y0086414D02*
X0103500Y0086414D01*
X0103500Y0085415D02*
X0126400Y0085415D01*
X0126400Y0084417D02*
X0103091Y0084417D01*
X0102106Y0083418D02*
X0126400Y0083418D01*
X0126400Y0082420D02*
X0057500Y0082420D01*
X0057367Y0083418D02*
X0066894Y0083418D01*
X0065820Y0080423D02*
X0126400Y0080423D01*
X0126400Y0081421D02*
X0064287Y0081421D01*
X0062713Y0081421D02*
X0058407Y0081421D01*
X0059000Y0080423D02*
X0061180Y0080423D01*
X0060636Y0079424D02*
X0059000Y0079424D01*
X0059000Y0078426D02*
X0060500Y0078426D01*
X0060697Y0077427D02*
X0059000Y0077427D01*
X0059000Y0076429D02*
X0061329Y0076429D01*
X0061500Y0075430D02*
X0059000Y0075430D01*
X0059000Y0074432D02*
X0061500Y0074432D01*
X0061500Y0073433D02*
X0059000Y0073433D01*
X0059000Y0072434D02*
X0061500Y0072434D01*
X0061500Y0071436D02*
X0059000Y0071436D01*
X0059000Y0070437D02*
X0061500Y0070437D01*
X0061500Y0069439D02*
X0059000Y0069439D01*
X0059000Y0068440D02*
X0061500Y0068440D01*
X0061500Y0067442D02*
X0059000Y0067442D01*
X0059000Y0066443D02*
X0061500Y0066443D01*
X0061500Y0065445D02*
X0059000Y0065445D01*
X0059000Y0064446D02*
X0061500Y0064446D01*
X0061500Y0063448D02*
X0059000Y0063448D01*
X0059000Y0062449D02*
X0061722Y0062449D01*
X0062721Y0061451D02*
X0059000Y0061451D01*
X0059000Y0060452D02*
X0063719Y0060452D01*
X0064718Y0059454D02*
X0059000Y0059454D01*
X0059000Y0058455D02*
X0065716Y0058455D01*
X0066715Y0057457D02*
X0059000Y0057457D01*
X0058287Y0056458D02*
X0087713Y0056458D01*
X0088712Y0055460D02*
X0057288Y0055460D01*
X0056290Y0054461D02*
X0089710Y0054461D01*
X0090709Y0053463D02*
X0055291Y0053463D01*
X0054293Y0052464D02*
X0091500Y0052464D01*
X0091500Y0051466D02*
X0048450Y0051466D01*
X0048450Y0050467D02*
X0091500Y0050467D01*
X0091500Y0049469D02*
X0047623Y0049469D01*
X0043500Y0049346D02*
X0043500Y0049346D01*
X0043500Y0048470D02*
X0091500Y0048470D01*
X0091500Y0047472D02*
X0043500Y0047472D01*
X0043500Y0046473D02*
X0091500Y0046473D01*
X0091500Y0045475D02*
X0043500Y0045475D01*
X0043500Y0044476D02*
X0091500Y0044476D01*
X0091500Y0043478D02*
X0045265Y0043478D01*
X0046134Y0042479D02*
X0091500Y0042479D01*
X0091500Y0041481D02*
X0046500Y0041481D01*
X0046500Y0040482D02*
X0091500Y0040482D01*
X0091500Y0039484D02*
X0046119Y0039484D01*
X0045228Y0038485D02*
X0052015Y0038485D01*
X0053000Y0038485D02*
X0054000Y0038485D01*
X0054985Y0038485D02*
X0061424Y0038485D01*
X0059850Y0037487D02*
X0056860Y0037487D01*
X0057757Y0036488D02*
X0058893Y0036488D01*
X0058479Y0035490D02*
X0058321Y0035490D01*
X0054000Y0035490D02*
X0053000Y0035490D01*
X0053000Y0036488D02*
X0054000Y0036488D01*
X0054000Y0037487D02*
X0053000Y0037487D01*
X0050140Y0037487D02*
X0045467Y0037487D01*
X0046471Y0036488D02*
X0049243Y0036488D01*
X0048679Y0035490D02*
X0046670Y0035490D01*
X0046288Y0034491D02*
X0048392Y0034491D01*
X0048395Y0032494D02*
X0046300Y0032494D01*
X0046667Y0031496D02*
X0048685Y0031496D01*
X0045635Y0033493D02*
X0053000Y0033493D01*
X0053000Y0034491D02*
X0054000Y0034491D01*
X0043237Y0037487D02*
X0042972Y0037487D01*
X0041772Y0038485D02*
X0030600Y0038485D01*
X0030600Y0037487D02*
X0032109Y0037487D01*
X0031111Y0036488D02*
X0030600Y0036488D01*
X0031096Y0036473D02*
X0031096Y0036473D01*
X0030600Y0039484D02*
X0040881Y0039484D01*
X0040189Y0040482D02*
X0030600Y0040482D01*
X0030600Y0041481D02*
X0039500Y0041481D01*
X0039500Y0042479D02*
X0030600Y0042479D01*
X0030600Y0043478D02*
X0039500Y0043478D01*
X0039500Y0044476D02*
X0030600Y0044476D01*
X0030600Y0045475D02*
X0039500Y0045475D01*
X0039500Y0046473D02*
X0030600Y0046473D01*
X0030600Y0047472D02*
X0039500Y0047472D01*
X0039500Y0048470D02*
X0030600Y0048470D01*
X0030600Y0049469D02*
X0039377Y0049469D01*
X0038550Y0050467D02*
X0030600Y0050467D01*
X0030600Y0051466D02*
X0038550Y0051466D01*
X0038550Y0052464D02*
X0030600Y0052464D01*
X0030600Y0053463D02*
X0038550Y0053463D01*
X0038550Y0054461D02*
X0030600Y0054461D01*
X0030600Y0055460D02*
X0038550Y0055460D01*
X0038550Y0056458D02*
X0030600Y0056458D01*
X0030600Y0057457D02*
X0039303Y0057457D01*
X0039500Y0058455D02*
X0030600Y0058455D01*
X0030600Y0059454D02*
X0039500Y0059454D01*
X0039500Y0060452D02*
X0030600Y0060452D01*
X0030600Y0061451D02*
X0039500Y0061451D01*
X0039500Y0062449D02*
X0030600Y0062449D01*
X0030600Y0063448D02*
X0039500Y0063448D01*
X0039500Y0064446D02*
X0030600Y0064446D01*
X0030600Y0065445D02*
X0038727Y0065445D01*
X0037728Y0066443D02*
X0030600Y0066443D01*
X0030600Y0067442D02*
X0036730Y0067442D01*
X0036500Y0068440D02*
X0030600Y0068440D01*
X0030600Y0069439D02*
X0036500Y0069439D01*
X0036500Y0070437D02*
X0030600Y0070437D01*
X0030600Y0071436D02*
X0036500Y0071436D01*
X0036500Y0072434D02*
X0030600Y0072434D01*
X0030600Y0073433D02*
X0036500Y0073433D01*
X0036500Y0074432D02*
X0030600Y0074432D01*
X0030600Y0075430D02*
X0036500Y0075430D01*
X0036500Y0076429D02*
X0030600Y0076429D01*
X0030600Y0077427D02*
X0036500Y0077427D01*
X0036500Y0078426D02*
X0030600Y0078426D01*
X0030600Y0079424D02*
X0036500Y0079424D01*
X0036500Y0080423D02*
X0030600Y0080423D01*
X0030600Y0081421D02*
X0036500Y0081421D01*
X0036500Y0082420D02*
X0030600Y0082420D01*
X0030600Y0083418D02*
X0036500Y0083418D01*
X0036500Y0084417D02*
X0030600Y0084417D01*
X0030600Y0085415D02*
X0036500Y0085415D01*
X0036500Y0086414D02*
X0030600Y0086414D01*
X0030600Y0087412D02*
X0036500Y0087412D01*
X0036500Y0088411D02*
X0030600Y0088411D01*
X0030600Y0089409D02*
X0036500Y0089409D01*
X0036500Y0090408D02*
X0030600Y0090408D01*
X0030600Y0091406D02*
X0036500Y0091406D01*
X0036500Y0092405D02*
X0030600Y0092405D01*
X0030600Y0093403D02*
X0036500Y0093403D01*
X0036500Y0094402D02*
X0030600Y0094402D01*
X0030600Y0095400D02*
X0036500Y0095400D01*
X0036500Y0096399D02*
X0030600Y0096399D01*
X0030600Y0097397D02*
X0036500Y0097397D01*
X0036500Y0098396D02*
X0030600Y0098396D01*
X0030600Y0099394D02*
X0036500Y0099394D01*
X0036564Y0100393D02*
X0030600Y0100393D01*
X0030600Y0101391D02*
X0037563Y0101391D01*
X0038561Y0102390D02*
X0030600Y0102390D01*
X0030600Y0103388D02*
X0039560Y0103388D01*
X0036075Y0109379D02*
X0030600Y0109379D01*
X0030600Y0108381D02*
X0126400Y0108381D01*
X0126400Y0109379D02*
X0120925Y0109379D01*
X0123444Y0110378D02*
X0126400Y0110378D01*
X0126400Y0111376D02*
X0124634Y0111376D01*
X0125812Y0112365D02*
X0125812Y0112365D01*
X0125812Y0112365D01*
X0125818Y0112375D02*
X0126400Y0112375D01*
X0126394Y0113373D02*
X0126400Y0113373D01*
X0132600Y0113373D02*
X0132606Y0113373D01*
X0132600Y0113383D02*
X0133188Y0112365D01*
X0133188Y0112365D01*
X0135727Y0110234D01*
X0135727Y0110234D01*
X0138843Y0109100D01*
X0142157Y0109100D01*
X0145272Y0110234D01*
X0145273Y0110234D01*
X0147812Y0112365D01*
X0149469Y0115235D01*
X0149469Y0115235D01*
X0150045Y0118500D01*
X0149469Y0121765D01*
X0147812Y0124635D01*
X0147812Y0124635D01*
X0145709Y0126400D01*
X0215291Y0126400D01*
X0213188Y0124635D01*
X0211531Y0121765D01*
X0210955Y0118500D01*
X0210955Y0118500D01*
X0211531Y0115235D01*
X0213188Y0112365D01*
X0213188Y0112365D01*
X0215727Y0110234D01*
X0215727Y0110234D01*
X0218843Y0109100D01*
X0222157Y0109100D01*
X0225272Y0110234D01*
X0225273Y0110234D01*
X0227812Y0112365D01*
X0228400Y0113383D01*
X0228400Y0034613D01*
X0227587Y0034950D01*
X0226413Y0034950D01*
X0225329Y0034501D01*
X0224499Y0033671D01*
X0224050Y0032587D01*
X0224050Y0031413D01*
X0224387Y0030600D01*
X0210144Y0030600D01*
X0210900Y0032426D01*
X0210900Y0034574D01*
X0210078Y0036559D01*
X0208559Y0038078D01*
X0207500Y0038516D01*
X0207500Y0059328D01*
X0206328Y0060500D01*
X0201328Y0065500D01*
X0182743Y0065500D01*
X0182199Y0066043D01*
X0181097Y0066500D01*
X0179903Y0066500D01*
X0178801Y0066043D01*
X0177957Y0065199D01*
X0177500Y0064097D01*
X0177500Y0062903D01*
X0177957Y0061801D01*
X0178801Y0060957D01*
X0179903Y0060500D01*
X0181097Y0060500D01*
X0182199Y0060957D01*
X0182743Y0061500D01*
X0199672Y0061500D01*
X0203500Y0057672D01*
X0203500Y0038516D01*
X0202441Y0038078D01*
X0200922Y0036559D01*
X0200500Y0035540D01*
X0200078Y0036559D01*
X0198559Y0038078D01*
X0197500Y0038516D01*
X0197500Y0054328D01*
X0192500Y0059328D01*
X0191328Y0060500D01*
X0171328Y0060500D01*
X0167500Y0064328D01*
X0167500Y0076257D01*
X0168043Y0076801D01*
X0168500Y0077903D01*
X0168500Y0079097D01*
X0168043Y0080199D01*
X0167199Y0081043D01*
X0166097Y0081500D01*
X0164903Y0081500D01*
X0163801Y0081043D01*
X0162957Y0080199D01*
X0162500Y0079097D01*
X0162500Y0077903D01*
X0162957Y0076801D01*
X0163500Y0076257D01*
X0163500Y0062672D01*
X0164672Y0061500D01*
X0169672Y0056500D01*
X0189672Y0056500D01*
X0193500Y0052672D01*
X0193500Y0038516D01*
X0192441Y0038078D01*
X0190922Y0036559D01*
X0190500Y0035540D01*
X0190078Y0036559D01*
X0188559Y0038078D01*
X0186574Y0038900D01*
X0184426Y0038900D01*
X0182441Y0038078D01*
X0180922Y0036559D01*
X0180500Y0035540D01*
X0180078Y0036559D01*
X0178559Y0038078D01*
X0176574Y0038900D01*
X0174426Y0038900D01*
X0172441Y0038078D01*
X0170922Y0036559D01*
X0170500Y0035540D01*
X0170078Y0036559D01*
X0168559Y0038078D01*
X0166574Y0038900D01*
X0164426Y0038900D01*
X0162441Y0038078D01*
X0160922Y0036559D01*
X0160391Y0035276D01*
X0160319Y0035496D01*
X0159947Y0036225D01*
X0159466Y0036888D01*
X0158888Y0037466D01*
X0158225Y0037947D01*
X0157496Y0038319D01*
X0156718Y0038572D01*
X0156000Y0038686D01*
X0156000Y0034000D01*
X0155000Y0034000D01*
X0155000Y0038686D01*
X0154282Y0038572D01*
X0153504Y0038319D01*
X0152775Y0037947D01*
X0152112Y0037466D01*
X0151534Y0036888D01*
X0151053Y0036225D01*
X0150681Y0035496D01*
X0150428Y0034718D01*
X0150314Y0034000D01*
X0155000Y0034000D01*
X0155000Y0033000D01*
X0150314Y0033000D01*
X0150428Y0032282D01*
X0150681Y0031504D01*
X0151053Y0030775D01*
X0151179Y0030600D01*
X0148487Y0030600D01*
X0148736Y0031841D01*
X0147629Y0033502D01*
X0148736Y0035162D01*
X0148395Y0036868D01*
X0146947Y0037833D01*
X0145241Y0037492D01*
X0145105Y0037288D01*
X0144968Y0037492D01*
X0143262Y0037833D01*
X0142470Y0037305D01*
X0142071Y0037704D01*
X0140670Y0037704D01*
X0140332Y0037704D01*
X0140332Y0037704D01*
X0138930Y0037704D01*
X0138930Y0037704D01*
X0138916Y0037690D01*
X0138199Y0036972D01*
X0137481Y0037690D01*
X0137467Y0037704D01*
X0136066Y0037704D01*
X0135906Y0037704D01*
X0135728Y0037704D01*
X0135728Y0037704D01*
X0134326Y0037704D01*
X0133096Y0036473D01*
X0132600Y0035977D01*
X0132600Y0113383D01*
X0132600Y0112375D02*
X0133182Y0112375D01*
X0132600Y0111376D02*
X0134366Y0111376D01*
X0135556Y0110378D02*
X0132600Y0110378D01*
X0132600Y0109379D02*
X0138075Y0109379D01*
X0142925Y0109379D02*
X0218075Y0109379D01*
X0215556Y0110378D02*
X0145444Y0110378D01*
X0146634Y0111376D02*
X0214366Y0111376D01*
X0213182Y0112375D02*
X0147818Y0112375D01*
X0147812Y0112365D02*
X0147812Y0112365D01*
X0147812Y0112365D01*
X0148394Y0113373D02*
X0212606Y0113373D01*
X0212029Y0114372D02*
X0148971Y0114372D01*
X0149493Y0115370D02*
X0211507Y0115370D01*
X0211531Y0115235D02*
X0211531Y0115235D01*
X0211331Y0116369D02*
X0149669Y0116369D01*
X0149845Y0117368D02*
X0211155Y0117368D01*
X0210979Y0118366D02*
X0150021Y0118366D01*
X0150045Y0118500D02*
X0150045Y0118500D01*
X0149893Y0119365D02*
X0211107Y0119365D01*
X0211284Y0120363D02*
X0149716Y0120363D01*
X0149540Y0121362D02*
X0211460Y0121362D01*
X0211531Y0121765D02*
X0211531Y0121765D01*
X0211874Y0122360D02*
X0149126Y0122360D01*
X0149469Y0121765D02*
X0149469Y0121765D01*
X0148549Y0123359D02*
X0212451Y0123359D01*
X0213027Y0124357D02*
X0147973Y0124357D01*
X0146954Y0125356D02*
X0214046Y0125356D01*
X0213188Y0124635D02*
X0213188Y0124635D01*
X0213188Y0124635D01*
X0215236Y0126354D02*
X0145764Y0126354D01*
X0148636Y0133344D02*
X0150763Y0133344D01*
X0150419Y0134342D02*
X0148402Y0134342D01*
X0142514Y0139335D02*
X0142440Y0139335D01*
X0140670Y0139704D02*
X0140670Y0139704D01*
X0138562Y0139335D02*
X0137836Y0139335D01*
X0137467Y0139704D02*
X0137467Y0139704D01*
X0136066Y0139704D02*
X0136066Y0139704D01*
X0126400Y0139335D02*
X0107302Y0139335D01*
X0108170Y0138336D02*
X0126400Y0138336D01*
X0126400Y0137338D02*
X0108584Y0137338D01*
X0108900Y0136339D02*
X0123167Y0136339D01*
X0122362Y0135341D02*
X0108900Y0135341D01*
X0108865Y0134342D02*
X0122050Y0134342D01*
X0122079Y0133344D02*
X0108452Y0133344D01*
X0105942Y0140333D02*
X0126400Y0140333D01*
X0126400Y0141332D02*
X0105500Y0141332D01*
X0105500Y0142330D02*
X0126400Y0142330D01*
X0126400Y0143329D02*
X0105500Y0143329D01*
X0105500Y0144327D02*
X0126400Y0144327D01*
X0126400Y0145326D02*
X0105500Y0145326D01*
X0105500Y0146324D02*
X0126400Y0146324D01*
X0126400Y0147323D02*
X0105500Y0147323D01*
X0105500Y0148321D02*
X0126400Y0148321D01*
X0126400Y0149320D02*
X0105500Y0149320D01*
X0105500Y0150318D02*
X0126400Y0150318D01*
X0126400Y0151317D02*
X0105500Y0151317D01*
X0105500Y0152315D02*
X0126400Y0152315D01*
X0126400Y0153314D02*
X0105500Y0153314D01*
X0105500Y0154312D02*
X0126400Y0154312D01*
X0126400Y0155311D02*
X0105500Y0155311D01*
X0105500Y0156309D02*
X0126400Y0156309D01*
X0126400Y0157308D02*
X0105500Y0157308D01*
X0105500Y0158306D02*
X0126400Y0158306D01*
X0126400Y0159305D02*
X0105500Y0159305D01*
X0105500Y0160303D02*
X0126400Y0160303D01*
X0126400Y0161302D02*
X0105500Y0161302D01*
X0104528Y0162301D02*
X0126400Y0162301D01*
X0126400Y0163299D02*
X0103529Y0163299D01*
X0102531Y0164298D02*
X0126400Y0164298D01*
X0126400Y0165296D02*
X0101532Y0165296D01*
X0100534Y0166295D02*
X0126400Y0166295D01*
X0126400Y0167293D02*
X0099535Y0167293D01*
X0099260Y0185266D02*
X0069740Y0185266D01*
X0067260Y0185266D02*
X0057430Y0185266D01*
X0057561Y0184268D02*
X0126400Y0184268D01*
X0126400Y0185266D02*
X0101740Y0185266D01*
X0103007Y0186265D02*
X0126400Y0186265D01*
X0126400Y0187263D02*
X0103442Y0187263D01*
X0103500Y0188262D02*
X0126400Y0188262D01*
X0126400Y0189260D02*
X0103225Y0189260D01*
X0102484Y0190259D02*
X0126400Y0190259D01*
X0126400Y0191257D02*
X0070500Y0191257D01*
X0070500Y0190259D02*
X0098516Y0190259D01*
X0091268Y0198247D02*
X0126400Y0198247D01*
X0126400Y0199245D02*
X0093681Y0199245D01*
X0094510Y0200244D02*
X0126400Y0200244D01*
X0126400Y0201242D02*
X0094846Y0201242D01*
X0094846Y0202241D02*
X0126400Y0202241D01*
X0126400Y0203239D02*
X0094437Y0203239D01*
X0093446Y0204238D02*
X0126400Y0204238D01*
X0126400Y0205237D02*
X0079592Y0205237D01*
X0080500Y0204238D02*
X0090247Y0204238D01*
X0089256Y0203239D02*
X0080500Y0203239D01*
X0080500Y0202241D02*
X0088846Y0202241D01*
X0088607Y0201242D02*
X0080500Y0201242D01*
X0080500Y0200244D02*
X0087608Y0200244D01*
X0086610Y0199245D02*
X0084909Y0199245D01*
X0085450Y0198247D02*
X0085611Y0198247D01*
X0088273Y0195251D02*
X0126400Y0195251D01*
X0126400Y0194253D02*
X0087274Y0194253D01*
X0085450Y0193254D02*
X0126400Y0193254D01*
X0126400Y0192256D02*
X0085410Y0192256D01*
X0082500Y0195500D02*
X0078500Y0195500D01*
X0074500Y0195500D01*
X0071550Y0195251D02*
X0070500Y0195251D01*
X0070500Y0194253D02*
X0071550Y0194253D01*
X0071550Y0193254D02*
X0070500Y0193254D01*
X0070500Y0192256D02*
X0071590Y0192256D01*
X0071550Y0196250D02*
X0070500Y0196250D01*
X0070500Y0197248D02*
X0071550Y0197248D01*
X0071550Y0198247D02*
X0070500Y0198247D01*
X0071228Y0199245D02*
X0072091Y0199245D01*
X0072500Y0200244D02*
X0071500Y0200244D01*
X0078593Y0206235D02*
X0126400Y0206235D01*
X0126400Y0207234D02*
X0030600Y0207234D01*
X0030600Y0208232D02*
X0126400Y0208232D01*
X0126400Y0209231D02*
X0030600Y0209231D01*
X0030600Y0210229D02*
X0126400Y0210229D01*
X0126400Y0197248D02*
X0090270Y0197248D01*
X0089271Y0196250D02*
X0126400Y0196250D01*
X0139672Y0168500D02*
X0139672Y0168500D01*
X0144000Y0155500D02*
X0147000Y0155500D01*
X0157452Y0140333D02*
X0163058Y0140333D01*
X0161698Y0139335D02*
X0159019Y0139335D01*
X0159867Y0138336D02*
X0160830Y0138336D01*
X0160416Y0137338D02*
X0160370Y0137338D01*
X0167942Y0140333D02*
X0173058Y0140333D01*
X0171698Y0139335D02*
X0169302Y0139335D01*
X0170170Y0138336D02*
X0170830Y0138336D01*
X0177942Y0140333D02*
X0183058Y0140333D01*
X0181698Y0139335D02*
X0179302Y0139335D01*
X0180170Y0138336D02*
X0180830Y0138336D01*
X0187942Y0140333D02*
X0193058Y0140333D01*
X0191698Y0139335D02*
X0189302Y0139335D01*
X0190170Y0138336D02*
X0190830Y0138336D01*
X0197500Y0141332D02*
X0203500Y0141332D01*
X0203500Y0142330D02*
X0197500Y0142330D01*
X0197500Y0143329D02*
X0203500Y0143329D01*
X0203500Y0144327D02*
X0197500Y0144327D01*
X0197500Y0145326D02*
X0203500Y0145326D01*
X0203500Y0146324D02*
X0197500Y0146324D01*
X0197500Y0147323D02*
X0203500Y0147323D01*
X0203500Y0148321D02*
X0197500Y0148321D01*
X0197500Y0149320D02*
X0203500Y0149320D01*
X0203500Y0150318D02*
X0197500Y0150318D01*
X0197500Y0151317D02*
X0203500Y0151317D01*
X0203500Y0152315D02*
X0197500Y0152315D01*
X0197500Y0153314D02*
X0203500Y0153314D01*
X0203500Y0154312D02*
X0197500Y0154312D01*
X0197500Y0155311D02*
X0203500Y0155311D01*
X0203500Y0156309D02*
X0197500Y0156309D01*
X0196520Y0157308D02*
X0203500Y0157308D01*
X0203500Y0158306D02*
X0195522Y0158306D01*
X0194523Y0159305D02*
X0203500Y0159305D01*
X0202868Y0160303D02*
X0193525Y0160303D01*
X0192526Y0161302D02*
X0201870Y0161302D01*
X0200871Y0162301D02*
X0191528Y0162301D01*
X0199873Y0163299D02*
X0182542Y0163299D01*
X0178458Y0163299D02*
X0170529Y0163299D01*
X0169531Y0164298D02*
X0177751Y0164298D01*
X0177500Y0165296D02*
X0168532Y0165296D01*
X0167534Y0166295D02*
X0177582Y0166295D01*
X0178050Y0167293D02*
X0167500Y0167293D01*
X0167500Y0168292D02*
X0179400Y0168292D01*
X0181600Y0168292D02*
X0228400Y0168292D01*
X0228400Y0169290D02*
X0167500Y0169290D01*
X0167500Y0170289D02*
X0228400Y0170289D01*
X0228400Y0171287D02*
X0167500Y0171287D01*
X0167500Y0172286D02*
X0228400Y0172286D01*
X0228400Y0173284D02*
X0167500Y0173284D01*
X0167500Y0174283D02*
X0228400Y0174283D01*
X0228400Y0175281D02*
X0167500Y0175281D01*
X0167500Y0176280D02*
X0228400Y0176280D01*
X0228400Y0177278D02*
X0167500Y0177278D01*
X0167519Y0178277D02*
X0228400Y0178277D01*
X0228400Y0179275D02*
X0168240Y0179275D01*
X0168500Y0180274D02*
X0228400Y0180274D01*
X0228400Y0181272D02*
X0168427Y0181272D01*
X0201535Y0167293D02*
X0228400Y0167293D01*
X0228400Y0166295D02*
X0202534Y0166295D01*
X0203532Y0165296D02*
X0228400Y0165296D01*
X0228400Y0164298D02*
X0204531Y0164298D01*
X0205529Y0163299D02*
X0228400Y0163299D01*
X0228400Y0162301D02*
X0206528Y0162301D01*
X0207500Y0161302D02*
X0228400Y0161302D01*
X0228400Y0160303D02*
X0207500Y0160303D01*
X0207500Y0159305D02*
X0228400Y0159305D01*
X0228400Y0158306D02*
X0207500Y0158306D01*
X0207500Y0157308D02*
X0228400Y0157308D01*
X0228400Y0156309D02*
X0207500Y0156309D01*
X0207500Y0155311D02*
X0228400Y0155311D01*
X0228400Y0154312D02*
X0207500Y0154312D01*
X0207500Y0153314D02*
X0228400Y0153314D01*
X0228400Y0152315D02*
X0207500Y0152315D01*
X0207500Y0151317D02*
X0228400Y0151317D01*
X0228400Y0150318D02*
X0207500Y0150318D01*
X0207500Y0149320D02*
X0228400Y0149320D01*
X0228400Y0148321D02*
X0207500Y0148321D01*
X0207500Y0147323D02*
X0228400Y0147323D01*
X0228400Y0146324D02*
X0207500Y0146324D01*
X0207500Y0145326D02*
X0228400Y0145326D01*
X0228400Y0144327D02*
X0207500Y0144327D01*
X0207500Y0143329D02*
X0228400Y0143329D01*
X0228400Y0142330D02*
X0207500Y0142330D01*
X0207500Y0141332D02*
X0228400Y0141332D01*
X0228400Y0140333D02*
X0207942Y0140333D01*
X0209302Y0139335D02*
X0228400Y0139335D01*
X0228400Y0138336D02*
X0210170Y0138336D01*
X0210584Y0137338D02*
X0228400Y0137338D01*
X0225167Y0136339D02*
X0210900Y0136339D01*
X0210900Y0135341D02*
X0224362Y0135341D01*
X0224050Y0134342D02*
X0210865Y0134342D01*
X0210452Y0133344D02*
X0224079Y0133344D01*
X0234600Y0138336D02*
X0234959Y0138336D01*
X0235096Y0138473D02*
X0235096Y0138473D01*
X0234600Y0139335D02*
X0235958Y0139335D01*
X0238066Y0139704D02*
X0238066Y0139704D01*
X0239467Y0139704D02*
X0239467Y0139704D01*
X0239836Y0139335D02*
X0240562Y0139335D01*
X0242670Y0139704D02*
X0242670Y0139704D01*
X0244440Y0139335D02*
X0244514Y0139335D01*
X0246000Y0155500D02*
X0249000Y0155500D01*
X0234606Y0113373D02*
X0234600Y0113373D01*
X0234600Y0112375D02*
X0235182Y0112375D01*
X0234600Y0111376D02*
X0236366Y0111376D01*
X0237556Y0110378D02*
X0234600Y0110378D01*
X0228400Y0110378D02*
X0225444Y0110378D01*
X0226634Y0111376D02*
X0228400Y0111376D01*
X0228400Y0112375D02*
X0227818Y0112375D01*
X0227812Y0112365D02*
X0227812Y0112365D01*
X0227812Y0112365D01*
X0228394Y0113373D02*
X0228400Y0113373D01*
X0228400Y0109379D02*
X0222925Y0109379D01*
X0228400Y0108381D02*
X0132600Y0108381D01*
X0132600Y0107382D02*
X0228400Y0107382D01*
X0228400Y0106384D02*
X0132600Y0106384D01*
X0132600Y0105385D02*
X0228400Y0105385D01*
X0228400Y0104387D02*
X0180442Y0104387D01*
X0181000Y0103828D02*
X0179828Y0105000D01*
X0143172Y0105000D01*
X0139672Y0101500D01*
X0138500Y0100328D01*
X0138500Y0067672D01*
X0139672Y0066500D01*
X0141500Y0064672D01*
X0141500Y0057654D01*
X0140550Y0056704D01*
X0140550Y0050296D01*
X0141500Y0049346D01*
X0141500Y0041172D01*
X0142664Y0040008D01*
X0142957Y0039301D01*
X0143801Y0038457D01*
X0144903Y0038000D01*
X0146097Y0038000D01*
X0147199Y0038457D01*
X0148043Y0039301D01*
X0148500Y0040403D01*
X0148500Y0041597D01*
X0148043Y0042699D01*
X0147199Y0043543D01*
X0146097Y0044000D01*
X0145500Y0044000D01*
X0145500Y0049346D01*
X0145546Y0049300D01*
X0149454Y0049300D01*
X0150450Y0050296D01*
X0150450Y0051500D01*
X0155328Y0051500D01*
X0161000Y0057172D01*
X0161000Y0080828D01*
X0159500Y0082328D01*
X0159500Y0083097D01*
X0159126Y0084000D01*
X0168257Y0084000D01*
X0168801Y0083457D01*
X0169903Y0083000D01*
X0171097Y0083000D01*
X0172199Y0083457D01*
X0172743Y0084000D01*
X0200257Y0084000D01*
X0200801Y0083457D01*
X0201903Y0083000D01*
X0203097Y0083000D01*
X0204199Y0083457D01*
X0205043Y0084301D01*
X0205500Y0085403D01*
X0205500Y0086597D01*
X0205043Y0087699D01*
X0204199Y0088543D01*
X0203097Y0089000D01*
X0201903Y0089000D01*
X0200801Y0088543D01*
X0200257Y0088000D01*
X0172743Y0088000D01*
X0172500Y0088243D01*
X0172500Y0096257D01*
X0173043Y0096801D01*
X0173500Y0097903D01*
X0173500Y0099000D01*
X0174500Y0099000D01*
X0174500Y0097654D01*
X0173550Y0096704D01*
X0173550Y0090296D01*
X0174546Y0089300D01*
X0178454Y0089300D01*
X0178500Y0089346D01*
X0178546Y0089300D01*
X0182454Y0089300D01*
X0182500Y0089346D01*
X0182546Y0089300D01*
X0186454Y0089300D01*
X0187450Y0090296D01*
X0187450Y0091500D01*
X0188521Y0091500D01*
X0193675Y0096654D01*
X0194443Y0096654D01*
X0195546Y0097110D01*
X0196390Y0097954D01*
X0196846Y0099057D01*
X0196846Y0100250D01*
X0196390Y0101353D01*
X0195546Y0102197D01*
X0194443Y0102654D01*
X0193250Y0102654D01*
X0192147Y0102197D01*
X0191303Y0101353D01*
X0190846Y0100250D01*
X0190846Y0099482D01*
X0187450Y0096085D01*
X0187450Y0096704D01*
X0186454Y0097700D01*
X0182546Y0097700D01*
X0182500Y0097654D01*
X0182500Y0102328D01*
X0181000Y0103828D01*
X0181440Y0103388D02*
X0228400Y0103388D01*
X0228400Y0102390D02*
X0195080Y0102390D01*
X0196351Y0101391D02*
X0228400Y0101391D01*
X0228400Y0100393D02*
X0196787Y0100393D01*
X0196846Y0099394D02*
X0228400Y0099394D01*
X0228400Y0098396D02*
X0196573Y0098396D01*
X0195833Y0097397D02*
X0228400Y0097397D01*
X0228400Y0096399D02*
X0193420Y0096399D01*
X0192422Y0095400D02*
X0228400Y0095400D01*
X0228400Y0094402D02*
X0191423Y0094402D01*
X0190425Y0093403D02*
X0228400Y0093403D01*
X0228400Y0092405D02*
X0189426Y0092405D01*
X0187450Y0091406D02*
X0228400Y0091406D01*
X0228400Y0090408D02*
X0187450Y0090408D01*
X0186563Y0089409D02*
X0228400Y0089409D01*
X0228400Y0088411D02*
X0204332Y0088411D01*
X0205162Y0087412D02*
X0228400Y0087412D01*
X0228400Y0086414D02*
X0205500Y0086414D01*
X0205500Y0085415D02*
X0228400Y0085415D01*
X0228400Y0084417D02*
X0205091Y0084417D01*
X0204106Y0083418D02*
X0228400Y0083418D01*
X0228400Y0082420D02*
X0159500Y0082420D01*
X0159367Y0083418D02*
X0168894Y0083418D01*
X0167820Y0080423D02*
X0228400Y0080423D01*
X0228400Y0081421D02*
X0166287Y0081421D01*
X0164713Y0081421D02*
X0160407Y0081421D01*
X0161000Y0080423D02*
X0163180Y0080423D01*
X0162636Y0079424D02*
X0161000Y0079424D01*
X0161000Y0078426D02*
X0162500Y0078426D01*
X0162697Y0077427D02*
X0161000Y0077427D01*
X0161000Y0076429D02*
X0163329Y0076429D01*
X0163500Y0075430D02*
X0161000Y0075430D01*
X0161000Y0074432D02*
X0163500Y0074432D01*
X0163500Y0073433D02*
X0161000Y0073433D01*
X0161000Y0072434D02*
X0163500Y0072434D01*
X0163500Y0071436D02*
X0161000Y0071436D01*
X0161000Y0070437D02*
X0163500Y0070437D01*
X0163500Y0069439D02*
X0161000Y0069439D01*
X0161000Y0068440D02*
X0163500Y0068440D01*
X0163500Y0067442D02*
X0161000Y0067442D01*
X0161000Y0066443D02*
X0163500Y0066443D01*
X0163500Y0065445D02*
X0161000Y0065445D01*
X0161000Y0064446D02*
X0163500Y0064446D01*
X0163500Y0063448D02*
X0161000Y0063448D01*
X0161000Y0062449D02*
X0163722Y0062449D01*
X0164721Y0061451D02*
X0161000Y0061451D01*
X0161000Y0060452D02*
X0165719Y0060452D01*
X0166718Y0059454D02*
X0161000Y0059454D01*
X0161000Y0058455D02*
X0167716Y0058455D01*
X0168715Y0057457D02*
X0161000Y0057457D01*
X0160287Y0056458D02*
X0189713Y0056458D01*
X0190712Y0055460D02*
X0159288Y0055460D01*
X0158290Y0054461D02*
X0191710Y0054461D01*
X0192709Y0053463D02*
X0157291Y0053463D01*
X0156293Y0052464D02*
X0193500Y0052464D01*
X0193500Y0051466D02*
X0150450Y0051466D01*
X0150450Y0050467D02*
X0193500Y0050467D01*
X0193500Y0049469D02*
X0149623Y0049469D01*
X0145500Y0049346D02*
X0145500Y0049346D01*
X0145500Y0048470D02*
X0193500Y0048470D01*
X0193500Y0047472D02*
X0145500Y0047472D01*
X0145500Y0046473D02*
X0193500Y0046473D01*
X0193500Y0045475D02*
X0145500Y0045475D01*
X0145500Y0044476D02*
X0193500Y0044476D01*
X0193500Y0043478D02*
X0147265Y0043478D01*
X0148134Y0042479D02*
X0193500Y0042479D01*
X0193500Y0041481D02*
X0148500Y0041481D01*
X0148500Y0040482D02*
X0193500Y0040482D01*
X0193500Y0039484D02*
X0148119Y0039484D01*
X0147228Y0038485D02*
X0154015Y0038485D01*
X0155000Y0038485D02*
X0156000Y0038485D01*
X0156985Y0038485D02*
X0163424Y0038485D01*
X0161850Y0037487D02*
X0158860Y0037487D01*
X0159757Y0036488D02*
X0160893Y0036488D01*
X0160479Y0035490D02*
X0160321Y0035490D01*
X0156000Y0035490D02*
X0155000Y0035490D01*
X0155000Y0036488D02*
X0156000Y0036488D01*
X0156000Y0037487D02*
X0155000Y0037487D01*
X0152140Y0037487D02*
X0147467Y0037487D01*
X0148471Y0036488D02*
X0151243Y0036488D01*
X0150679Y0035490D02*
X0148670Y0035490D01*
X0148288Y0034491D02*
X0150392Y0034491D01*
X0150395Y0032494D02*
X0148300Y0032494D01*
X0148667Y0031496D02*
X0150685Y0031496D01*
X0147635Y0033493D02*
X0155000Y0033493D01*
X0155000Y0034491D02*
X0156000Y0034491D01*
X0145237Y0037487D02*
X0144972Y0037487D01*
X0143772Y0038485D02*
X0132600Y0038485D01*
X0132600Y0037487D02*
X0134109Y0037487D01*
X0133111Y0036488D02*
X0132600Y0036488D01*
X0133096Y0036473D02*
X0133096Y0036473D01*
X0132600Y0039484D02*
X0142881Y0039484D01*
X0142189Y0040482D02*
X0132600Y0040482D01*
X0132600Y0041481D02*
X0141500Y0041481D01*
X0141500Y0042479D02*
X0132600Y0042479D01*
X0132600Y0043478D02*
X0141500Y0043478D01*
X0141500Y0044476D02*
X0132600Y0044476D01*
X0132600Y0045475D02*
X0141500Y0045475D01*
X0141500Y0046473D02*
X0132600Y0046473D01*
X0132600Y0047472D02*
X0141500Y0047472D01*
X0141500Y0048470D02*
X0132600Y0048470D01*
X0132600Y0049469D02*
X0141377Y0049469D01*
X0140550Y0050467D02*
X0132600Y0050467D01*
X0132600Y0051466D02*
X0140550Y0051466D01*
X0140550Y0052464D02*
X0132600Y0052464D01*
X0132600Y0053463D02*
X0140550Y0053463D01*
X0140550Y0054461D02*
X0132600Y0054461D01*
X0132600Y0055460D02*
X0140550Y0055460D01*
X0140550Y0056458D02*
X0132600Y0056458D01*
X0132600Y0057457D02*
X0141303Y0057457D01*
X0141500Y0058455D02*
X0132600Y0058455D01*
X0132600Y0059454D02*
X0141500Y0059454D01*
X0141500Y0060452D02*
X0132600Y0060452D01*
X0132600Y0061451D02*
X0141500Y0061451D01*
X0141500Y0062449D02*
X0132600Y0062449D01*
X0132600Y0063448D02*
X0141500Y0063448D01*
X0141500Y0064446D02*
X0132600Y0064446D01*
X0132600Y0065445D02*
X0140727Y0065445D01*
X0139728Y0066443D02*
X0132600Y0066443D01*
X0132600Y0067442D02*
X0138730Y0067442D01*
X0138500Y0068440D02*
X0132600Y0068440D01*
X0132600Y0069439D02*
X0138500Y0069439D01*
X0138500Y0070437D02*
X0132600Y0070437D01*
X0132600Y0071436D02*
X0138500Y0071436D01*
X0138500Y0072434D02*
X0132600Y0072434D01*
X0132600Y0073433D02*
X0138500Y0073433D01*
X0138500Y0074432D02*
X0132600Y0074432D01*
X0132600Y0075430D02*
X0138500Y0075430D01*
X0138500Y0076429D02*
X0132600Y0076429D01*
X0132600Y0077427D02*
X0138500Y0077427D01*
X0138500Y0078426D02*
X0132600Y0078426D01*
X0132600Y0079424D02*
X0138500Y0079424D01*
X0138500Y0080423D02*
X0132600Y0080423D01*
X0132600Y0081421D02*
X0138500Y0081421D01*
X0138500Y0082420D02*
X0132600Y0082420D01*
X0132600Y0083418D02*
X0138500Y0083418D01*
X0138500Y0084417D02*
X0132600Y0084417D01*
X0132600Y0085415D02*
X0138500Y0085415D01*
X0138500Y0086414D02*
X0132600Y0086414D01*
X0132600Y0087412D02*
X0138500Y0087412D01*
X0138500Y0088411D02*
X0132600Y0088411D01*
X0132600Y0089409D02*
X0138500Y0089409D01*
X0138500Y0090408D02*
X0132600Y0090408D01*
X0132600Y0091406D02*
X0138500Y0091406D01*
X0138500Y0092405D02*
X0132600Y0092405D01*
X0132600Y0093403D02*
X0138500Y0093403D01*
X0138500Y0094402D02*
X0132600Y0094402D01*
X0132600Y0095400D02*
X0138500Y0095400D01*
X0138500Y0096399D02*
X0132600Y0096399D01*
X0132600Y0097397D02*
X0138500Y0097397D01*
X0138500Y0098396D02*
X0132600Y0098396D01*
X0132600Y0099394D02*
X0138500Y0099394D01*
X0138564Y0100393D02*
X0132600Y0100393D01*
X0132600Y0101391D02*
X0139563Y0101391D01*
X0140561Y0102390D02*
X0132600Y0102390D01*
X0132600Y0103388D02*
X0141560Y0103388D01*
X0142558Y0104387D02*
X0132600Y0104387D01*
X0126400Y0106384D02*
X0030600Y0106384D01*
X0030600Y0107382D02*
X0126400Y0107382D01*
X0126400Y0079424D02*
X0066364Y0079424D01*
X0066500Y0078426D02*
X0126400Y0078426D01*
X0126400Y0077427D02*
X0066303Y0077427D01*
X0065671Y0076429D02*
X0126400Y0076429D01*
X0126400Y0075430D02*
X0065500Y0075430D01*
X0065500Y0074432D02*
X0126400Y0074432D01*
X0126400Y0073433D02*
X0065500Y0073433D01*
X0065500Y0072434D02*
X0126400Y0072434D01*
X0126400Y0071436D02*
X0065500Y0071436D01*
X0065500Y0070437D02*
X0126400Y0070437D01*
X0126400Y0069439D02*
X0065500Y0069439D01*
X0065500Y0068440D02*
X0126400Y0068440D01*
X0126400Y0067442D02*
X0065500Y0067442D01*
X0065500Y0066443D02*
X0077767Y0066443D01*
X0079233Y0066443D02*
X0126400Y0066443D01*
X0126400Y0065445D02*
X0099383Y0065445D01*
X0100382Y0064446D02*
X0126400Y0064446D01*
X0126400Y0063448D02*
X0101381Y0063448D01*
X0102379Y0062449D02*
X0126400Y0062449D01*
X0126400Y0061451D02*
X0103378Y0061451D01*
X0104376Y0060452D02*
X0126400Y0060452D01*
X0126400Y0059454D02*
X0105375Y0059454D01*
X0105500Y0058455D02*
X0126400Y0058455D01*
X0126400Y0057457D02*
X0105500Y0057457D01*
X0105500Y0056458D02*
X0126400Y0056458D01*
X0126400Y0055460D02*
X0105500Y0055460D01*
X0105500Y0054461D02*
X0126400Y0054461D01*
X0126400Y0053463D02*
X0105500Y0053463D01*
X0105500Y0052464D02*
X0126400Y0052464D01*
X0126400Y0051466D02*
X0105500Y0051466D01*
X0105500Y0050467D02*
X0126400Y0050467D01*
X0126400Y0049469D02*
X0105500Y0049469D01*
X0105500Y0048470D02*
X0126400Y0048470D01*
X0126400Y0047472D02*
X0105500Y0047472D01*
X0105500Y0046473D02*
X0126400Y0046473D01*
X0126400Y0045475D02*
X0105500Y0045475D01*
X0105500Y0044476D02*
X0126400Y0044476D01*
X0126400Y0043478D02*
X0105500Y0043478D01*
X0105500Y0042479D02*
X0126400Y0042479D01*
X0126400Y0041481D02*
X0105500Y0041481D01*
X0105500Y0040482D02*
X0126400Y0040482D01*
X0126400Y0039484D02*
X0105500Y0039484D01*
X0105576Y0038485D02*
X0126400Y0038485D01*
X0126400Y0037487D02*
X0107150Y0037487D01*
X0108107Y0036488D02*
X0126400Y0036488D01*
X0126400Y0035490D02*
X0108521Y0035490D01*
X0108900Y0034491D02*
X0123319Y0034491D01*
X0122425Y0033493D02*
X0108900Y0033493D01*
X0108900Y0032494D02*
X0122050Y0032494D01*
X0122050Y0031496D02*
X0108515Y0031496D01*
X0101424Y0038485D02*
X0095576Y0038485D01*
X0095500Y0039484D02*
X0101500Y0039484D01*
X0101500Y0040482D02*
X0095500Y0040482D01*
X0095500Y0041481D02*
X0101500Y0041481D01*
X0101500Y0042479D02*
X0095500Y0042479D01*
X0095500Y0043478D02*
X0101500Y0043478D01*
X0101500Y0044476D02*
X0095500Y0044476D01*
X0095500Y0045475D02*
X0101500Y0045475D01*
X0101500Y0046473D02*
X0095500Y0046473D01*
X0095500Y0047472D02*
X0101500Y0047472D01*
X0101500Y0048470D02*
X0095500Y0048470D01*
X0095500Y0049469D02*
X0101500Y0049469D01*
X0101500Y0050467D02*
X0095500Y0050467D01*
X0095500Y0051466D02*
X0101500Y0051466D01*
X0101500Y0052464D02*
X0095500Y0052464D01*
X0095500Y0053463D02*
X0101500Y0053463D01*
X0101500Y0054461D02*
X0095367Y0054461D01*
X0094369Y0055460D02*
X0101500Y0055460D01*
X0101500Y0056458D02*
X0093370Y0056458D01*
X0092372Y0057457D02*
X0101500Y0057457D01*
X0100716Y0058455D02*
X0091373Y0058455D01*
X0090375Y0059454D02*
X0099718Y0059454D01*
X0098719Y0060452D02*
X0089376Y0060452D01*
X0097721Y0061451D02*
X0080694Y0061451D01*
X0076306Y0061451D02*
X0068378Y0061451D01*
X0067379Y0062449D02*
X0075688Y0062449D01*
X0075500Y0063448D02*
X0066381Y0063448D01*
X0065500Y0064446D02*
X0075645Y0064446D01*
X0076202Y0065445D02*
X0065500Y0065445D01*
X0070106Y0083418D02*
X0098894Y0083418D01*
X0098668Y0088411D02*
X0070500Y0088411D01*
X0070500Y0089409D02*
X0072437Y0089409D01*
X0071550Y0090408D02*
X0070500Y0090408D01*
X0070500Y0091406D02*
X0071550Y0091406D01*
X0071550Y0092405D02*
X0070500Y0092405D01*
X0070500Y0093403D02*
X0071550Y0093403D01*
X0071550Y0094402D02*
X0070500Y0094402D01*
X0070500Y0095400D02*
X0071550Y0095400D01*
X0071550Y0096399D02*
X0070641Y0096399D01*
X0071290Y0097397D02*
X0072243Y0097397D01*
X0072500Y0098396D02*
X0071500Y0098396D01*
X0074500Y0093500D02*
X0078500Y0093500D01*
X0082500Y0093500D01*
X0085450Y0096399D02*
X0085763Y0096399D01*
X0086762Y0097397D02*
X0084757Y0097397D01*
X0087760Y0098396D02*
X0080500Y0098396D01*
X0080500Y0097654D02*
X0080500Y0097654D01*
X0080500Y0099394D02*
X0088759Y0099394D01*
X0088905Y0100393D02*
X0080500Y0100393D01*
X0080500Y0101391D02*
X0089342Y0101391D01*
X0090613Y0102390D02*
X0080439Y0102390D01*
X0037672Y0066500D02*
X0037672Y0066500D01*
X0042000Y0053500D02*
X0045000Y0053500D01*
X0040742Y0037487D02*
X0040288Y0037487D01*
X0038670Y0037704D02*
X0038670Y0037704D01*
X0036713Y0037487D02*
X0035684Y0037487D01*
X0035467Y0037704D02*
X0035467Y0037704D01*
X0034066Y0037704D02*
X0034066Y0037704D01*
X0065576Y0038485D02*
X0071424Y0038485D01*
X0069850Y0037487D02*
X0067150Y0037487D01*
X0068107Y0036488D02*
X0068893Y0036488D01*
X0075576Y0038485D02*
X0081424Y0038485D01*
X0079850Y0037487D02*
X0077150Y0037487D01*
X0078107Y0036488D02*
X0078893Y0036488D01*
X0085576Y0038485D02*
X0091424Y0038485D01*
X0089850Y0037487D02*
X0087150Y0037487D01*
X0088107Y0036488D02*
X0088893Y0036488D01*
X0097150Y0037487D02*
X0099850Y0037487D01*
X0098893Y0036488D02*
X0098107Y0036488D01*
X0136066Y0037704D02*
X0136066Y0037704D01*
X0137467Y0037704D02*
X0137467Y0037704D01*
X0137684Y0037487D02*
X0138713Y0037487D01*
X0140670Y0037704D02*
X0140670Y0037704D01*
X0142288Y0037487D02*
X0142742Y0037487D01*
X0144000Y0053500D02*
X0147000Y0053500D01*
X0167500Y0064446D02*
X0177645Y0064446D01*
X0177500Y0063448D02*
X0168381Y0063448D01*
X0169379Y0062449D02*
X0177688Y0062449D01*
X0178306Y0061451D02*
X0170378Y0061451D01*
X0167500Y0065445D02*
X0178202Y0065445D01*
X0179767Y0066443D02*
X0167500Y0066443D01*
X0167500Y0067442D02*
X0228400Y0067442D01*
X0228400Y0068440D02*
X0167500Y0068440D01*
X0167500Y0069439D02*
X0228400Y0069439D01*
X0228400Y0070437D02*
X0167500Y0070437D01*
X0167500Y0071436D02*
X0228400Y0071436D01*
X0228400Y0072434D02*
X0167500Y0072434D01*
X0167500Y0073433D02*
X0228400Y0073433D01*
X0228400Y0074432D02*
X0167500Y0074432D01*
X0167500Y0075430D02*
X0228400Y0075430D01*
X0228400Y0076429D02*
X0167671Y0076429D01*
X0168303Y0077427D02*
X0228400Y0077427D01*
X0228400Y0078426D02*
X0168500Y0078426D01*
X0168364Y0079424D02*
X0228400Y0079424D01*
X0228400Y0066443D02*
X0181233Y0066443D01*
X0182694Y0061451D02*
X0199721Y0061451D01*
X0200719Y0060452D02*
X0191376Y0060452D01*
X0192375Y0059454D02*
X0201718Y0059454D01*
X0202716Y0058455D02*
X0193373Y0058455D01*
X0194372Y0057457D02*
X0203500Y0057457D01*
X0203500Y0056458D02*
X0195370Y0056458D01*
X0196369Y0055460D02*
X0203500Y0055460D01*
X0203500Y0054461D02*
X0197367Y0054461D01*
X0197500Y0053463D02*
X0203500Y0053463D01*
X0203500Y0052464D02*
X0197500Y0052464D01*
X0197500Y0051466D02*
X0203500Y0051466D01*
X0203500Y0050467D02*
X0197500Y0050467D01*
X0197500Y0049469D02*
X0203500Y0049469D01*
X0203500Y0048470D02*
X0197500Y0048470D01*
X0197500Y0047472D02*
X0203500Y0047472D01*
X0203500Y0046473D02*
X0197500Y0046473D01*
X0197500Y0045475D02*
X0203500Y0045475D01*
X0203500Y0044476D02*
X0197500Y0044476D01*
X0197500Y0043478D02*
X0203500Y0043478D01*
X0203500Y0042479D02*
X0197500Y0042479D01*
X0197500Y0041481D02*
X0203500Y0041481D01*
X0203500Y0040482D02*
X0197500Y0040482D01*
X0197500Y0039484D02*
X0203500Y0039484D01*
X0203424Y0038485D02*
X0197576Y0038485D01*
X0199150Y0037487D02*
X0201850Y0037487D01*
X0200893Y0036488D02*
X0200107Y0036488D01*
X0193424Y0038485D02*
X0187576Y0038485D01*
X0189150Y0037487D02*
X0191850Y0037487D01*
X0190893Y0036488D02*
X0190107Y0036488D01*
X0183424Y0038485D02*
X0177576Y0038485D01*
X0179150Y0037487D02*
X0181850Y0037487D01*
X0180893Y0036488D02*
X0180107Y0036488D01*
X0173424Y0038485D02*
X0167576Y0038485D01*
X0169150Y0037487D02*
X0171850Y0037487D01*
X0170893Y0036488D02*
X0170107Y0036488D01*
X0201383Y0065445D02*
X0228400Y0065445D01*
X0228400Y0064446D02*
X0202382Y0064446D01*
X0203381Y0063448D02*
X0228400Y0063448D01*
X0228400Y0062449D02*
X0204379Y0062449D01*
X0205378Y0061451D02*
X0228400Y0061451D01*
X0228400Y0060452D02*
X0206376Y0060452D01*
X0207375Y0059454D02*
X0228400Y0059454D01*
X0228400Y0058455D02*
X0207500Y0058455D01*
X0207500Y0057457D02*
X0228400Y0057457D01*
X0228400Y0056458D02*
X0207500Y0056458D01*
X0207500Y0055460D02*
X0228400Y0055460D01*
X0228400Y0054461D02*
X0207500Y0054461D01*
X0207500Y0053463D02*
X0228400Y0053463D01*
X0228400Y0052464D02*
X0207500Y0052464D01*
X0207500Y0051466D02*
X0228400Y0051466D01*
X0228400Y0050467D02*
X0207500Y0050467D01*
X0207500Y0049469D02*
X0228400Y0049469D01*
X0228400Y0048470D02*
X0207500Y0048470D01*
X0207500Y0047472D02*
X0228400Y0047472D01*
X0228400Y0046473D02*
X0207500Y0046473D01*
X0207500Y0045475D02*
X0228400Y0045475D01*
X0228400Y0044476D02*
X0207500Y0044476D01*
X0207500Y0043478D02*
X0228400Y0043478D01*
X0228400Y0042479D02*
X0207500Y0042479D01*
X0207500Y0041481D02*
X0228400Y0041481D01*
X0228400Y0040482D02*
X0207500Y0040482D01*
X0207500Y0039484D02*
X0228400Y0039484D01*
X0228400Y0038485D02*
X0207576Y0038485D01*
X0209150Y0037487D02*
X0228400Y0037487D01*
X0228400Y0036488D02*
X0210107Y0036488D01*
X0210521Y0035490D02*
X0228400Y0035490D01*
X0225319Y0034491D02*
X0210900Y0034491D01*
X0210900Y0033493D02*
X0224425Y0033493D01*
X0224050Y0032494D02*
X0210900Y0032494D01*
X0210515Y0031496D02*
X0224050Y0031496D01*
X0238066Y0037704D02*
X0238066Y0037704D01*
X0239467Y0037704D02*
X0239467Y0037704D01*
X0239684Y0037487D02*
X0240713Y0037487D01*
X0242670Y0037704D02*
X0242670Y0037704D01*
X0244288Y0037487D02*
X0244742Y0037487D01*
X0246000Y0053500D02*
X0249000Y0053500D01*
X0241672Y0066500D02*
X0241672Y0066500D01*
X0269576Y0038485D02*
X0275424Y0038485D01*
X0273850Y0037487D02*
X0271150Y0037487D01*
X0272107Y0036488D02*
X0272893Y0036488D01*
X0279576Y0038485D02*
X0285424Y0038485D01*
X0283850Y0037487D02*
X0281150Y0037487D01*
X0282107Y0036488D02*
X0282893Y0036488D01*
X0289576Y0038485D02*
X0295424Y0038485D01*
X0293850Y0037487D02*
X0291150Y0037487D01*
X0292107Y0036488D02*
X0292893Y0036488D01*
X0301150Y0037487D02*
X0303850Y0037487D01*
X0302893Y0036488D02*
X0302107Y0036488D01*
X0200894Y0083418D02*
X0172106Y0083418D01*
X0172500Y0088411D02*
X0200668Y0088411D01*
X0189760Y0098396D02*
X0182500Y0098396D01*
X0182500Y0097654D02*
X0182500Y0097654D01*
X0182500Y0099394D02*
X0190759Y0099394D01*
X0190905Y0100393D02*
X0182500Y0100393D01*
X0182500Y0101391D02*
X0191342Y0101391D01*
X0192613Y0102390D02*
X0182439Y0102390D01*
X0186757Y0097397D02*
X0188762Y0097397D01*
X0187763Y0096399D02*
X0187450Y0096399D01*
X0184500Y0093500D02*
X0180500Y0093500D01*
X0176500Y0093500D01*
X0173550Y0093403D02*
X0172500Y0093403D01*
X0172500Y0092405D02*
X0173550Y0092405D01*
X0173550Y0091406D02*
X0172500Y0091406D01*
X0172500Y0090408D02*
X0173550Y0090408D01*
X0174437Y0089409D02*
X0172500Y0089409D01*
X0172500Y0094402D02*
X0173550Y0094402D01*
X0173550Y0095400D02*
X0172500Y0095400D01*
X0172641Y0096399D02*
X0173550Y0096399D01*
X0173290Y0097397D02*
X0174243Y0097397D01*
X0174500Y0098396D02*
X0173500Y0098396D01*
X0200170Y0138336D02*
X0200830Y0138336D01*
X0201698Y0139335D02*
X0199302Y0139335D01*
X0197942Y0140333D02*
X0203058Y0140333D01*
X0190767Y0240184D02*
X0190233Y0240184D01*
X0189454Y0241183D02*
X0191546Y0241183D01*
X0140670Y0241704D02*
X0140670Y0241704D01*
X0138410Y0241183D02*
X0137988Y0241183D01*
X0137467Y0241704D02*
X0137467Y0241704D01*
X0136066Y0241704D02*
X0136066Y0241704D01*
X0133806Y0241183D02*
X0132600Y0241183D01*
X0133096Y0240473D02*
X0133096Y0240473D01*
X0132807Y0240184D02*
X0132600Y0240184D01*
X0085460Y0300095D02*
X0085450Y0300095D01*
X0085061Y0301094D02*
X0086458Y0301094D01*
X0079744Y0307085D02*
X0126400Y0307085D01*
X0126400Y0308083D02*
X0078745Y0308083D01*
X0109628Y0319067D02*
X0047372Y0319067D01*
X0047616Y0320065D02*
X0109384Y0320065D01*
X0109531Y0319235D02*
X0109531Y0319235D01*
X0110204Y0318068D02*
X0046796Y0318068D01*
X0046219Y0317070D02*
X0110781Y0317070D01*
X0111538Y0316071D02*
X0045462Y0316071D01*
X0045812Y0316365D02*
X0045812Y0316365D01*
X0045812Y0316365D01*
X0044272Y0315073D02*
X0112728Y0315073D01*
X0114166Y0314074D02*
X0042834Y0314074D01*
X0047792Y0321064D02*
X0109208Y0321064D01*
X0109032Y0322062D02*
X0047968Y0322062D01*
X0048045Y0322500D02*
X0048045Y0322500D01*
X0047946Y0323061D02*
X0109054Y0323061D01*
X0109230Y0324059D02*
X0047770Y0324059D01*
X0047594Y0325058D02*
X0109406Y0325058D01*
X0109531Y0325765D02*
X0109531Y0325765D01*
X0109699Y0326056D02*
X0047301Y0326056D01*
X0047469Y0325765D02*
X0047469Y0325765D01*
X0046724Y0327055D02*
X0110276Y0327055D01*
X0110852Y0328053D02*
X0046148Y0328053D01*
X0045316Y0329052D02*
X0111684Y0329052D01*
X0111188Y0328635D02*
X0111188Y0328635D01*
X0111188Y0328635D01*
X0112874Y0330050D02*
X0044126Y0330050D01*
X0045000Y0155500D02*
X0042000Y0155500D01*
X0030606Y0113373D02*
X0030600Y0113373D01*
X0030600Y0112375D02*
X0031182Y0112375D01*
X0030600Y0111376D02*
X0032366Y0111376D01*
X0033556Y0110378D02*
X0030600Y0110378D01*
D13*
X0053500Y0135500D03*
X0063500Y0135500D03*
X0073500Y0135500D03*
X0083500Y0135500D03*
X0093500Y0135500D03*
X0103500Y0135500D03*
X0155500Y0135500D03*
X0165500Y0135500D03*
X0175500Y0135500D03*
X0185500Y0135500D03*
X0195500Y0135500D03*
X0205500Y0135500D03*
X0257500Y0135500D03*
X0267500Y0135500D03*
X0277500Y0135500D03*
X0287500Y0135500D03*
X0297500Y0135500D03*
X0307500Y0135500D03*
X0307500Y0033500D03*
X0297500Y0033500D03*
X0287500Y0033500D03*
X0277500Y0033500D03*
X0267500Y0033500D03*
X0257500Y0033500D03*
X0205500Y0033500D03*
X0195500Y0033500D03*
X0185500Y0033500D03*
X0175500Y0033500D03*
X0165500Y0033500D03*
X0155500Y0033500D03*
X0103500Y0033500D03*
X0093500Y0033500D03*
X0083500Y0033500D03*
X0073500Y0033500D03*
X0063500Y0033500D03*
X0053500Y0033500D03*
X0053500Y0237500D03*
X0063500Y0237500D03*
X0073500Y0237500D03*
X0083500Y0237500D03*
X0093500Y0237500D03*
X0103500Y0237500D03*
X0155500Y0237500D03*
X0165500Y0237500D03*
X0175500Y0237500D03*
X0185500Y0237500D03*
X0195500Y0237500D03*
X0205500Y0237500D03*
X0257500Y0237500D03*
X0267500Y0237500D03*
X0277500Y0237500D03*
X0287500Y0237500D03*
X0297500Y0237500D03*
X0307500Y0237500D03*
D14*
X0329000Y0236000D03*
X0235500Y0227500D03*
X0227000Y0236000D03*
X0235500Y0329500D03*
X0133500Y0329500D03*
X0125000Y0236000D03*
X0133500Y0227500D03*
X0125000Y0134000D03*
X0133500Y0125500D03*
X0125000Y0032000D03*
X0031500Y0125500D03*
X0031500Y0227500D03*
X0031500Y0329500D03*
X0227000Y0134000D03*
X0235500Y0125500D03*
X0227000Y0032000D03*
X0329000Y0032000D03*
X0329000Y0134000D03*
D15*
X0302500Y0170500D03*
X0304500Y0188000D03*
X0307500Y0195500D03*
X0295846Y0201654D03*
X0282500Y0180500D03*
X0282500Y0170500D03*
X0282500Y0165500D03*
X0267500Y0180500D03*
X0267500Y0185500D03*
X0272500Y0188000D03*
X0272500Y0200500D03*
X0269154Y0200154D03*
X0258500Y0184500D03*
X0246000Y0180500D03*
X0257500Y0165500D03*
X0272500Y0145500D03*
X0247500Y0143000D03*
X0269154Y0098154D03*
X0272500Y0098500D03*
X0272500Y0086000D03*
X0267500Y0083500D03*
X0267500Y0078500D03*
X0258500Y0082500D03*
X0246000Y0078500D03*
X0257500Y0063500D03*
X0272500Y0043500D03*
X0282500Y0063500D03*
X0282500Y0068500D03*
X0282500Y0078500D03*
X0302500Y0068500D03*
X0304500Y0086000D03*
X0307500Y0093500D03*
X0295846Y0099654D03*
X0247500Y0041000D03*
X0202500Y0086000D03*
X0205500Y0093500D03*
X0193846Y0099654D03*
X0170500Y0098500D03*
X0167154Y0098154D03*
X0170500Y0086000D03*
X0165500Y0083500D03*
X0165500Y0078500D03*
X0156500Y0082500D03*
X0144000Y0078500D03*
X0155500Y0063500D03*
X0170500Y0043500D03*
X0180500Y0063500D03*
X0180500Y0068500D03*
X0180500Y0078500D03*
X0200500Y0068500D03*
X0145500Y0041000D03*
X0098500Y0068500D03*
X0100500Y0086000D03*
X0103500Y0093500D03*
X0091846Y0099654D03*
X0078500Y0078500D03*
X0078500Y0068500D03*
X0078500Y0063500D03*
X0063500Y0078500D03*
X0063500Y0083500D03*
X0068500Y0086000D03*
X0054500Y0082500D03*
X0042000Y0078500D03*
X0053500Y0063500D03*
X0068500Y0043500D03*
X0043500Y0041000D03*
X0065154Y0098154D03*
X0068500Y0098500D03*
X0043500Y0143000D03*
X0053500Y0165500D03*
X0063500Y0180500D03*
X0063500Y0185500D03*
X0068500Y0188000D03*
X0068500Y0200500D03*
X0065154Y0200154D03*
X0054500Y0184500D03*
X0042000Y0180500D03*
X0078500Y0180500D03*
X0078500Y0170500D03*
X0078500Y0165500D03*
X0068500Y0145500D03*
X0098500Y0170500D03*
X0100500Y0188000D03*
X0103500Y0195500D03*
X0091846Y0201654D03*
X0068500Y0247500D03*
X0078500Y0267500D03*
X0078500Y0272500D03*
X0078500Y0282500D03*
X0068500Y0290000D03*
X0063500Y0287500D03*
X0063500Y0282500D03*
X0054500Y0286500D03*
X0042000Y0282500D03*
X0053500Y0267500D03*
X0043500Y0245000D03*
X0098500Y0272500D03*
X0100500Y0290000D03*
X0103500Y0297500D03*
X0091846Y0303654D03*
X0068500Y0302500D03*
X0065154Y0302154D03*
X0144000Y0282500D03*
X0156500Y0286500D03*
X0165500Y0287500D03*
X0165500Y0282500D03*
X0170500Y0290000D03*
X0170500Y0302500D03*
X0167154Y0302154D03*
X0180500Y0282500D03*
X0180500Y0272500D03*
X0180500Y0267500D03*
X0200500Y0272500D03*
X0202500Y0290000D03*
X0205500Y0297500D03*
X0193846Y0303654D03*
X0155500Y0267500D03*
X0170500Y0247500D03*
X0145500Y0245000D03*
X0167154Y0200154D03*
X0170500Y0200500D03*
X0170500Y0188000D03*
X0165500Y0185500D03*
X0165500Y0180500D03*
X0156500Y0184500D03*
X0144000Y0180500D03*
X0155500Y0165500D03*
X0170500Y0145500D03*
X0180500Y0165500D03*
X0180500Y0170500D03*
X0180500Y0180500D03*
X0200500Y0170500D03*
X0202500Y0188000D03*
X0205500Y0195500D03*
X0193846Y0201654D03*
X0247500Y0245000D03*
X0257500Y0267500D03*
X0267500Y0282500D03*
X0267500Y0287500D03*
X0272500Y0290000D03*
X0272500Y0302500D03*
X0269154Y0302154D03*
X0258500Y0286500D03*
X0246000Y0282500D03*
X0282500Y0282500D03*
X0282500Y0272500D03*
X0282500Y0267500D03*
X0302500Y0272500D03*
X0304500Y0290000D03*
X0307500Y0297500D03*
X0295846Y0303654D03*
X0272500Y0247500D03*
X0145500Y0143000D03*
D16*
X0144500Y0143000D01*
X0143500Y0144000D01*
X0143500Y0155500D01*
X0143500Y0165500D01*
X0143500Y0167500D01*
X0140500Y0170500D01*
X0140500Y0201500D01*
X0144000Y0205000D01*
X0179000Y0205000D01*
X0180500Y0203500D01*
X0180500Y0195500D01*
X0184500Y0195500D02*
X0187693Y0195500D01*
X0193846Y0201654D01*
X0202500Y0188000D02*
X0170500Y0188000D01*
X0170500Y0200500D01*
X0167154Y0200154D02*
X0167154Y0202154D01*
X0168000Y0203000D01*
X0175500Y0203000D01*
X0176500Y0202000D01*
X0176500Y0195500D01*
X0170500Y0188000D02*
X0148000Y0188000D01*
X0144000Y0184000D01*
X0144000Y0180500D01*
X0156500Y0184500D02*
X0157500Y0183500D01*
X0156500Y0184500D02*
X0159000Y0182000D01*
X0159000Y0160000D01*
X0154500Y0155500D01*
X0147500Y0155500D01*
X0143500Y0165500D02*
X0155500Y0165500D01*
X0165500Y0165500D02*
X0165500Y0180500D01*
X0165500Y0165500D02*
X0170500Y0160500D01*
X0190500Y0160500D01*
X0195500Y0155500D01*
X0195500Y0135500D01*
X0205500Y0135500D02*
X0205500Y0160500D01*
X0200500Y0165500D01*
X0180500Y0165500D01*
X0242500Y0170500D02*
X0242500Y0201500D01*
X0246000Y0205000D01*
X0281000Y0205000D01*
X0282500Y0203500D01*
X0282500Y0195500D01*
X0278500Y0195500D02*
X0278500Y0202000D01*
X0277500Y0203000D01*
X0270000Y0203000D01*
X0269154Y0202154D01*
X0269154Y0200154D01*
X0272500Y0200500D02*
X0272500Y0188000D01*
X0250000Y0188000D01*
X0246000Y0184000D01*
X0246000Y0180500D01*
X0242500Y0170500D02*
X0245500Y0167500D01*
X0245500Y0165500D01*
X0245500Y0155500D01*
X0245500Y0144000D01*
X0246500Y0143000D01*
X0247500Y0143000D01*
X0249500Y0155500D02*
X0256500Y0155500D01*
X0261000Y0160000D01*
X0261000Y0182000D01*
X0258500Y0184500D01*
X0259500Y0183500D01*
X0267500Y0180500D02*
X0267500Y0165500D01*
X0272500Y0160500D01*
X0292500Y0160500D01*
X0297500Y0155500D01*
X0297500Y0135500D01*
X0307500Y0135500D02*
X0307500Y0160500D01*
X0302500Y0165500D01*
X0282500Y0165500D01*
X0272500Y0188000D02*
X0304500Y0188000D01*
X0295846Y0201654D02*
X0289693Y0195500D01*
X0286500Y0195500D01*
X0257500Y0165500D02*
X0245500Y0165500D01*
X0246000Y0103000D02*
X0242500Y0099500D01*
X0242500Y0068500D01*
X0245500Y0065500D01*
X0245500Y0063500D01*
X0245500Y0053500D01*
X0245500Y0042000D01*
X0246500Y0041000D01*
X0247500Y0041000D01*
X0249500Y0053500D02*
X0256500Y0053500D01*
X0261000Y0058000D01*
X0261000Y0080000D01*
X0258500Y0082500D01*
X0259500Y0081500D01*
X0250000Y0086000D02*
X0246000Y0082000D01*
X0246000Y0078500D01*
X0250000Y0086000D02*
X0272500Y0086000D01*
X0272500Y0098500D01*
X0269154Y0098154D02*
X0269154Y0100154D01*
X0270000Y0101000D01*
X0277500Y0101000D01*
X0278500Y0100000D01*
X0278500Y0093500D01*
X0282500Y0093500D02*
X0282500Y0101500D01*
X0281000Y0103000D01*
X0246000Y0103000D01*
X0272500Y0086000D02*
X0304500Y0086000D01*
X0295846Y0099654D02*
X0289693Y0093500D01*
X0286500Y0093500D01*
X0267500Y0078500D02*
X0267500Y0063500D01*
X0272500Y0058500D01*
X0292500Y0058500D01*
X0297500Y0053500D01*
X0297500Y0033500D01*
X0307500Y0033500D02*
X0307500Y0058500D01*
X0302500Y0063500D01*
X0282500Y0063500D01*
X0257500Y0063500D02*
X0245500Y0063500D01*
X0205500Y0058500D02*
X0205500Y0033500D01*
X0195500Y0033500D02*
X0195500Y0053500D01*
X0190500Y0058500D01*
X0170500Y0058500D01*
X0165500Y0063500D01*
X0165500Y0078500D01*
X0159000Y0080000D02*
X0156500Y0082500D01*
X0157500Y0081500D01*
X0159000Y0080000D02*
X0159000Y0058000D01*
X0154500Y0053500D01*
X0147500Y0053500D01*
X0143500Y0053500D02*
X0143500Y0042000D01*
X0144500Y0041000D01*
X0145500Y0041000D01*
X0143500Y0053500D02*
X0143500Y0063500D01*
X0143500Y0065500D01*
X0140500Y0068500D01*
X0140500Y0099500D01*
X0144000Y0103000D01*
X0179000Y0103000D01*
X0180500Y0101500D01*
X0180500Y0093500D01*
X0184500Y0093500D02*
X0187693Y0093500D01*
X0193846Y0099654D01*
X0202500Y0086000D02*
X0170500Y0086000D01*
X0170500Y0098500D01*
X0167154Y0098154D02*
X0167154Y0100154D01*
X0168000Y0101000D01*
X0175500Y0101000D01*
X0176500Y0100000D01*
X0176500Y0093500D01*
X0170500Y0086000D02*
X0148000Y0086000D01*
X0144000Y0082000D01*
X0144000Y0078500D01*
X0143500Y0063500D02*
X0155500Y0063500D01*
X0180500Y0063500D02*
X0200500Y0063500D01*
X0205500Y0058500D01*
X0103500Y0058500D02*
X0103500Y0033500D01*
X0093500Y0033500D02*
X0093500Y0053500D01*
X0088500Y0058500D01*
X0068500Y0058500D01*
X0063500Y0063500D01*
X0063500Y0078500D01*
X0057000Y0080000D02*
X0054500Y0082500D01*
X0055500Y0081500D01*
X0057000Y0080000D02*
X0057000Y0058000D01*
X0052500Y0053500D01*
X0045500Y0053500D01*
X0041500Y0053500D02*
X0041500Y0042000D01*
X0042500Y0041000D01*
X0043500Y0041000D01*
X0041500Y0053500D02*
X0041500Y0063500D01*
X0041500Y0065500D01*
X0038500Y0068500D01*
X0038500Y0099500D01*
X0042000Y0103000D01*
X0077000Y0103000D01*
X0078500Y0101500D01*
X0078500Y0093500D01*
X0074500Y0093500D02*
X0074500Y0100000D01*
X0073500Y0101000D01*
X0066000Y0101000D01*
X0065154Y0100154D01*
X0065154Y0098154D01*
X0068500Y0098500D02*
X0068500Y0086000D01*
X0046000Y0086000D01*
X0042000Y0082000D01*
X0042000Y0078500D01*
X0041500Y0063500D02*
X0053500Y0063500D01*
X0068500Y0086000D02*
X0100500Y0086000D01*
X0091846Y0099654D02*
X0085693Y0093500D01*
X0082500Y0093500D01*
X0078500Y0063500D02*
X0098500Y0063500D01*
X0103500Y0058500D01*
X0103500Y0135500D02*
X0103500Y0160500D01*
X0098500Y0165500D01*
X0078500Y0165500D01*
X0068500Y0160500D02*
X0063500Y0165500D01*
X0063500Y0180500D01*
X0057000Y0182000D02*
X0054500Y0184500D01*
X0055500Y0183500D01*
X0057000Y0182000D02*
X0057000Y0160000D01*
X0052500Y0155500D01*
X0045500Y0155500D01*
X0041500Y0155500D02*
X0041500Y0144000D01*
X0042500Y0143000D01*
X0043500Y0143000D01*
X0041500Y0155500D02*
X0041500Y0165500D01*
X0041500Y0167500D01*
X0038500Y0170500D01*
X0038500Y0201500D01*
X0042000Y0205000D01*
X0077000Y0205000D01*
X0078500Y0203500D01*
X0078500Y0195500D01*
X0074500Y0195500D02*
X0074500Y0202000D01*
X0073500Y0203000D01*
X0066000Y0203000D01*
X0065154Y0202154D01*
X0065154Y0200154D01*
X0068500Y0200500D02*
X0068500Y0188000D01*
X0046000Y0188000D01*
X0042000Y0184000D01*
X0042000Y0180500D01*
X0041500Y0165500D02*
X0053500Y0165500D01*
X0068500Y0160500D02*
X0088500Y0160500D01*
X0093500Y0155500D01*
X0093500Y0135500D01*
X0100500Y0188000D02*
X0068500Y0188000D01*
X0082500Y0195500D02*
X0085693Y0195500D01*
X0091846Y0201654D01*
X0093500Y0237500D02*
X0093500Y0257500D01*
X0088500Y0262500D01*
X0068500Y0262500D01*
X0063500Y0267500D01*
X0063500Y0282500D01*
X0057000Y0284000D02*
X0054500Y0286500D01*
X0055500Y0285500D01*
X0057000Y0284000D02*
X0057000Y0262000D01*
X0052500Y0257500D01*
X0045500Y0257500D01*
X0041500Y0257500D02*
X0041500Y0246000D01*
X0042500Y0245000D01*
X0043500Y0245000D01*
X0041500Y0257500D02*
X0041500Y0267500D01*
X0041500Y0269500D01*
X0038500Y0272500D01*
X0038500Y0303500D01*
X0042000Y0307000D01*
X0077000Y0307000D01*
X0078500Y0305500D01*
X0078500Y0297500D01*
X0074500Y0297500D02*
X0074500Y0304000D01*
X0073500Y0305000D01*
X0066000Y0305000D01*
X0065154Y0304154D01*
X0065154Y0302154D01*
X0068500Y0302500D02*
X0068500Y0290000D01*
X0046000Y0290000D01*
X0042000Y0286000D01*
X0042000Y0282500D01*
X0041500Y0267500D02*
X0053500Y0267500D01*
X0068500Y0290000D02*
X0100500Y0290000D01*
X0091846Y0303654D02*
X0085693Y0297500D01*
X0082500Y0297500D01*
X0078500Y0267500D02*
X0098500Y0267500D01*
X0103500Y0262500D01*
X0103500Y0237500D01*
X0140500Y0272500D02*
X0140500Y0303500D01*
X0144000Y0307000D01*
X0179000Y0307000D01*
X0180500Y0305500D01*
X0180500Y0297500D01*
X0184500Y0297500D02*
X0187693Y0297500D01*
X0193846Y0303654D01*
X0202500Y0290000D02*
X0170500Y0290000D01*
X0170500Y0302500D01*
X0167154Y0302154D02*
X0167154Y0304154D01*
X0168000Y0305000D01*
X0175500Y0305000D01*
X0176500Y0304000D01*
X0176500Y0297500D01*
X0170500Y0290000D02*
X0148000Y0290000D01*
X0144000Y0286000D01*
X0144000Y0282500D01*
X0140500Y0272500D02*
X0143500Y0269500D01*
X0143500Y0267500D01*
X0143500Y0257500D01*
X0143500Y0246000D01*
X0144500Y0245000D01*
X0145500Y0245000D01*
X0147500Y0257500D02*
X0154500Y0257500D01*
X0159000Y0262000D01*
X0159000Y0284000D01*
X0156500Y0286500D01*
X0157500Y0285500D01*
X0165500Y0282500D02*
X0165500Y0267500D01*
X0170500Y0262500D01*
X0190500Y0262500D01*
X0195500Y0257500D01*
X0195500Y0237500D01*
X0205500Y0237500D02*
X0205500Y0262500D01*
X0200500Y0267500D01*
X0180500Y0267500D01*
X0155500Y0267500D02*
X0143500Y0267500D01*
X0242500Y0272500D02*
X0242500Y0303500D01*
X0246000Y0307000D01*
X0281000Y0307000D01*
X0282500Y0305500D01*
X0282500Y0297500D01*
X0278500Y0297500D02*
X0278500Y0304000D01*
X0277500Y0305000D01*
X0270000Y0305000D01*
X0269154Y0304154D01*
X0269154Y0302154D01*
X0272500Y0302500D02*
X0272500Y0290000D01*
X0250000Y0290000D01*
X0246000Y0286000D01*
X0246000Y0282500D01*
X0242500Y0272500D02*
X0245500Y0269500D01*
X0245500Y0267500D01*
X0245500Y0257500D01*
X0245500Y0246000D01*
X0246500Y0245000D01*
X0247500Y0245000D01*
X0249500Y0257500D02*
X0256500Y0257500D01*
X0261000Y0262000D01*
X0261000Y0284000D01*
X0258500Y0286500D01*
X0259500Y0285500D01*
X0267500Y0282500D02*
X0267500Y0267500D01*
X0272500Y0262500D01*
X0292500Y0262500D01*
X0297500Y0257500D01*
X0297500Y0237500D01*
X0307500Y0237500D02*
X0307500Y0262500D01*
X0302500Y0267500D01*
X0282500Y0267500D01*
X0272500Y0290000D02*
X0304500Y0290000D01*
X0295846Y0303654D02*
X0289693Y0297500D01*
X0286500Y0297500D01*
X0257500Y0267500D02*
X0245500Y0267500D01*
M02*
